#N canvas 6 22 1920 1036 12;
#X obj 820 516 loadbang;
#X msg 820 540 db 1 \, log 1;
#X obj 709 466 tgl 15 0 empty empty empty 17 7 0 10 #fcfcfc #000000
#000000 0 1;
#X obj 709 486 metro 100;
#X obj 709 509 tabwrite~ \$0-scope;
#N canvas 0 22 450 278 (subpatch) 0;
#X array \$0-scope 441 float 0;
#X coords 0 1 440 -1 200 140 1;
#X restore 955 342 graph;
#X obj 561 571 dac~ 1 2;
#X obj 564 483 *~ 1;
#X obj 820 563 spectrograph~ 1024 1 1 300 140 100;
#X obj 278 373 osc~;
#X floatatom 235 228 5 0 0 0 - - - 0;
#X obj 235 250 mtof;
#X floatatom 235 273 5 0 0 0 - - - 0;
#X text 676 193 LFO : Low Frequency Oscilador 0 a 20 Hz;
#X obj 335 273 osc~ 7;
#X obj 235 295 sig~;
#X obj 278 335 +~;
#X floatatom 446 216 5 0 0 0 - - - 0;
#X obj 446 238 sig~;
#X obj 446 301 +~;
#X obj 446 324 mtof~;
#X obj 446 357 osc~;
#X text 489 323 <- Midi to frequency;
#X text 491 218 MIDI;
#X text 562 263 <- intensidad en semitonos;
#X obj 511 243 osc~ 4;
#X obj 511 266 *~ 0.5;
#X text 579 287 0.5 semitonos = 50 cents;
#X text 310 173 Vibrato;
#X text 443 195 B) Equitemperado;
#X text 239 201 A) Lineal;
#X obj 338 524 osc~ 4;
#X obj 251 572 *~;
#X obj 338 547 +~ 1;
#X obj 338 570 /~ 2;
#X text 373 559 <- Unipolar;
#X floatatom 340 485 5 0 0 0 - - - 0;
#X text 228 391 Tremolo;
#X text 228 411 Valores subsonicos = tremolo;
#X text 228 431 Valores sonicos = ring modulation;
#X obj 561 528 *~ 0.1;
#X obj 250 538 osc~ 440;
#X obj 335 296 *~ 20;
#X obj 582 222 hsl 128 15 0 2 0 0 empty empty Intensidad-Vibrato -2
-8 0 10 #fcfcfc #000000 #000000 0 1;
#X floatatom 579 242 5 0 0 0 - - - 0;
#X text 239 471 A);
#X obj 441 664 osc~ 4;
#X obj 303 773 *~;
#X obj 441 687 +~ 1;
#X obj 441 710 /~ 2;
#X floatatom 443 625 5 0 0 0 - - - 0;
#X obj 302 739 osc~ 440;
#X obj 441 733 *~;
#X obj 505 602 vsl 15 128 0 1 0 0 empty empty INT 0 -9 0 10 #fcfcfc
#000000 #000000 0 1;
#X floatatom 505 738 5 0 0 0 - - - 0;
#X obj 371 705 sig~ 1;
#X obj 372 749 -~;
#X text 235 646 B) Control de intensidad;
#X connect 0 0 1 0;
#X connect 1 0 8 0;
#X connect 2 0 3 0;
#X connect 3 0 4 0;
#X connect 7 0 8 0;
#X connect 7 0 4 0;
#X connect 7 0 40 0;
#X connect 10 0 11 0;
#X connect 11 0 12 0;
#X connect 12 0 15 0;
#X connect 14 0 42 0;
#X connect 15 0 16 0;
#X connect 16 0 9 0;
#X connect 17 0 18 0;
#X connect 18 0 19 0;
#X connect 19 0 20 0;
#X connect 20 0 21 0;
#X connect 25 0 26 0;
#X connect 26 0 19 1;
#X connect 31 0 33 0;
#X connect 33 0 34 0;
#X connect 34 0 32 1;
#X connect 36 0 31 0;
#X connect 40 0 6 0;
#X connect 40 0 6 1;
#X connect 41 0 32 0;
#X connect 42 0 16 1;
#X connect 43 0 44 0;
#X connect 44 0 26 1;
#X connect 46 0 48 0;
#X connect 48 0 49 0;
#X connect 49 0 52 0;
#X connect 50 0 46 0;
#X connect 51 0 47 0;
#X connect 52 0 56 1;
#X connect 53 0 54 0;
#X connect 54 0 52 1;
#X connect 55 0 56 0;
#X connect 56 0 47 1;
