#N canvas 0 22 1920 1036 12;
#X obj 585 386 loadbang;
#X msg 585 410 db 1 \, log 1;
#X obj 314 353 tgl 15 0 empty empty empty 17 7 0 10 #fcfcfc #000000
#000000 0 1;
#X obj 314 373 metro 100;
#X obj 314 396 tabwrite~ \$0-scope;
#N canvas 0 22 450 278 (subpatch) 0;
#X array \$0-scope 441 float 0;
#X coords 0 1 440 -1 200 140 1;
#X restore 722 4 graph;
#X obj 166 458 dac~ 1 2;
#X obj 169 370 *~ 1;
#X obj 585 433 spectrograph~ 1024 1 1 300 140 100;
#X obj 166 415 *~ 0.1;
#X obj 162 27 notein;
#X floatatom 162 70 5 0 0 0 - - - 0;
#X floatatom 212 70 5 0 0 0 - - - 0;
#X text 253 71 Velocidad;
#X text 113 70 Nota;
#X text 236 102 Voz \, Nota \, Velocidad;
#X obj 162 125 pack f f f;
#X obj 162 158 route 1 2 3 4;
#X obj 162 201 unpack f f;
#X floatatom 162 224 5 0 0 0 - - - 0;
#X text 123 224 Nota;
#X floatatom 232 224 5 0 0 0 - - - 0;
#X text 273 222 Velocidad;
#X obj 162 246 mtof;
#X obj 162 269 osc~;
#X obj 192 292 *~;
#X obj 232 246 > 0;
#X obj 386 195 unpack f f;
#X floatatom 386 218 5 0 0 0 - - - 0;
#X text 347 218 Nota;
#X floatatom 456 218 5 0 0 0 - - - 0;
#X text 497 216 Velocidad;
#X obj 386 240 mtof;
#X obj 386 263 osc~;
#X obj 416 286 *~;
#X obj 456 240 > 0;
#X obj 614 194 unpack f f;
#X floatatom 614 217 5 0 0 0 - - - 0;
#X text 575 217 Nota;
#X floatatom 684 217 5 0 0 0 - - - 0;
#X text 725 215 Velocidad;
#X obj 614 239 mtof;
#X obj 614 262 osc~;
#X obj 644 285 *~;
#X obj 684 239 > 0;
#X obj 833 198 unpack f f;
#X floatatom 833 221 5 0 0 0 - - - 0;
#X text 794 221 Nota;
#X floatatom 903 221 5 0 0 0 - - - 0;
#X text 944 219 Velocidad;
#X obj 833 243 mtof;
#X obj 833 266 osc~;
#X obj 863 289 *~;
#X obj 903 243 > 0;
#X obj 192 315 /~ 4;
#X obj 162 102 poly 4 1;
#X connect 0 0 1 0;
#X connect 1 0 8 0;
#X connect 2 0 3 0;
#X connect 3 0 4 0;
#X connect 7 0 8 0;
#X connect 7 0 4 0;
#X connect 7 0 9 0;
#X connect 9 0 6 0;
#X connect 9 0 6 1;
#X connect 10 0 11 0;
#X connect 10 1 12 0;
#X connect 11 0 55 0;
#X connect 12 0 55 1;
#X connect 16 0 17 0;
#X connect 17 0 18 0;
#X connect 17 1 27 0;
#X connect 17 2 36 0;
#X connect 17 3 45 0;
#X connect 18 0 19 0;
#X connect 18 1 21 0;
#X connect 19 0 23 0;
#X connect 21 0 26 0;
#X connect 23 0 24 0;
#X connect 24 0 25 0;
#X connect 25 0 54 0;
#X connect 26 0 25 1;
#X connect 27 0 28 0;
#X connect 27 1 30 0;
#X connect 28 0 32 0;
#X connect 30 0 35 0;
#X connect 32 0 33 0;
#X connect 33 0 34 0;
#X connect 34 0 54 0;
#X connect 35 0 34 1;
#X connect 36 0 37 0;
#X connect 36 1 39 0;
#X connect 37 0 41 0;
#X connect 39 0 44 0;
#X connect 41 0 42 0;
#X connect 42 0 43 0;
#X connect 43 0 54 0;
#X connect 44 0 43 1;
#X connect 45 0 46 0;
#X connect 45 1 48 0;
#X connect 46 0 50 0;
#X connect 48 0 53 0;
#X connect 50 0 51 0;
#X connect 51 0 52 0;
#X connect 52 0 54 0;
#X connect 53 0 52 1;
#X connect 54 0 7 0;
#X connect 55 0 16 0;
#X connect 55 1 16 1;
#X connect 55 2 16 2;
