#N canvas 0 22 1920 1036 12;
#X obj 307 651 /~ 4;
#X obj 307 675 hip~ 3;
#X obj 307 699 clip~ -1 1;
#X obj 307 723 /~ 2;
#X obj 307 747 dac~ 1 2;
#X obj 307 542 *~ 1;
#X obj 485 540 loadbang;
#X obj 485 563 tgl 18 0 empty empty empty 17 7 0 10 #fcfcfc #000000
#000000 0 1;
#X obj 485 586 metro 100;
#X obj 485 610 tabwrite~ \$0-scope;
#N canvas 0 22 450 278 (subpatch) 0;
#X array \$0-scope 441 float 0;
#X coords 0 1 440 -1 200 140 1;
#X restore 486 660 graph;
#N canvas 0 22 450 278 (subpatch) 0;
#X array array1 88200 float 0;
#X coords 0 1 88199 -1 200 140 1;
#X restore 63 389 graph;
#X obj 356 450 tabread4~ array1;
#X text 396 152 Hz;
#X obj 61 165 adc~ 1;
#X obj 71 235 tabwrite~ array1;
#X obj 150 144 bng 15 250 50 0 empty empty empty 17 7 0 10 #fcfcfc
#000000 #000000;
#X text 671 132 1) Velocidad de Reproduccion (Pitch);
#X text 671 152 2) Duracion;
#X text 691 172 3) Starting Point;
#X floatatom 437 55 5 0 0 0 - - - 0;
#X obj 542 202 * 44.1;
#X floatatom 542 225 0 0 0 0 - - - 0;
#X text 596 225 samples;
#X text 484 55 ms;
#X obj 357 359 *~;
#X obj 437 77 t f f;
#X msg 349 108 1000 \$1;
#X obj 349 131 /;
#X floatatom 350 154 5 0 0 0 - - - 0;
#X obj 356 255 phasor~;
#X text 437 34 Duracion;
#X floatatom 646 337 5 0 0 0 - - - 0;
#X text 689 383 ms;
#X obj 646 359 * 44.1;
#X floatatom 646 382 5 0 0 0 - - - 0;
#X obj 356 399 +~;
#X text 646 316 Start;
#X obj 360 209 *~;
#X obj 466 147 hsl 128 15 0.5 2 0 1 empty empty Velocidad -2 -8 0 10
#fcfcfc #000000 #000000 2600 1;
#X floatatom 463 167 5 0 0 0 - - - 0;
#X obj 527 327 samphold~;
#X obj 542 247 sig~;
#X text 195 326 Actualiza la duracion cuando termine el loop ->;
#X connect 0 0 1 0;
#X connect 1 0 2 0;
#X connect 2 0 3 0;
#X connect 3 0 4 0;
#X connect 3 0 4 1;
#X connect 5 0 0 0;
#X connect 5 0 9 0;
#X connect 6 0 7 0;
#X connect 7 0 8 0;
#X connect 8 0 9 0;
#X connect 14 0 15 0;
#X connect 16 0 15 0;
#X connect 20 0 26 0;
#X connect 21 0 22 0;
#X connect 22 0 42 0;
#X connect 25 0 36 0;
#X connect 26 0 27 0;
#X connect 26 1 21 0;
#X connect 27 0 28 0;
#X connect 28 0 29 0;
#X connect 29 0 38 0;
#X connect 30 0 25 0;
#X connect 30 0 41 1;
#X connect 32 0 34 0;
#X connect 34 0 35 0;
#X connect 35 0 36 1;
#X connect 36 0 12 0;
#X connect 38 0 30 0;
#X connect 39 0 40 0;
#X connect 40 0 38 1;
#X connect 41 0 25 1;
#X connect 42 0 41 0;
