#N canvas 0 22 1920 1036 12;
#X obj 307 651 /~ 4;
#X obj 307 675 hip~ 3;
#X obj 307 699 clip~ -1 1;
#X obj 307 723 /~ 2;
#X obj 307 747 dac~ 1 2;
#X obj 307 542 *~ 1;
#X obj 485 540 loadbang;
#X obj 485 563 tgl 18 0 empty empty empty 17 7 0 10 #fcfcfc #000000
#000000 0 1;
#X obj 485 586 metro 100;
#X obj 485 610 tabwrite~ \$0-scope;
#N canvas 0 22 450 278 (subpatch) 0;
#X array \$0-scope 441 float 0;
#X coords 0 1 440 -1 200 140 1;
#X restore 486 660 graph;
#X text 226 89 Delay ––––––;
#X text 226 109 Normalmente pensamos en el delay como un solo proceso
\, cuando en readlidad son dos:;
#X text 226 139 - Almacenamiento de la señal en una memoria o buffer
;
#X text 226 159 - Lectura de ese buffer;
#X obj 406 271 delwrite~ \$0-delay 1000;
#X text 586 271 argumentos: variable \, tiempo de almacenamiento;
#X text 586 291 (tiempo maximo de lectura);
#X text 576 411 argumentos: variable \, tiempo de lectura;
#X obj 297 216 bng 19 250 50 0 empty empty empty 17 7 0 10 #fcfcfc
#000000 #000000;
#N canvas 131 165 450 359 beep 0;
#X msg 122 112 1 \, 0 100;
#X obj 122 136 line~;
#X obj 122 180 *~;
#X obj 191 151 osc~ 440;
#X obj 122 214 outlet~;
#X obj 122 83 inlet;
#X text 192 122 <- Envolvente;
#X text 256 152 <- Oscilador;
#X connect 0 0 1 0;
#X connect 1 0 2 0;
#X connect 2 0 4 0;
#X connect 3 0 2 1;
#X connect 5 0 0 0;
#X restore 302 247 pd beep;
#X obj 281 470 +~;
#X text 616 89 \; \; \; \; \; \;;
#X text 646 89 Se puede pensar en el delay como un array esta en escritura
constante \, reemplazando los valores almacenados por la señal entrante.
;
#X obj 387 222 cnv 7 7 140 empty empty delwrite~ 12 8 0 16 #faff00
#faff00 0;
#X obj 378 377 cnv 7 7 140 empty empty delread~ 12 8 0 16 #faff00 #faff00
0;
#X obj 406 412 delread~ \$0-delay 20;
#X floatatom 487 378 5 0 0 0 - - - 0;
#X text 485 356 Entrada \, tiempo de delay en ms;
#X connect 0 0 1 0;
#X connect 1 0 2 0;
#X connect 2 0 3 0;
#X connect 3 0 4 0;
#X connect 3 0 4 1;
#X connect 5 0 0 0;
#X connect 5 0 9 0;
#X connect 6 0 7 0;
#X connect 7 0 8 0;
#X connect 8 0 9 0;
#X connect 19 0 20 0;
#X connect 20 0 21 0;
#X connect 20 0 15 0;
#X connect 21 0 5 0;
#X connect 26 0 21 1;
#X connect 27 0 26 0;
