#N canvas 0 22 1920 1036 12;
#X obj 85 529 /~ 4;
#X obj 85 553 hip~ 3;
#X obj 85 577 clip~ -1 1;
#X obj 85 601 /~ 2;
#X obj 85 625 dac~ 1 2;
#X obj 80 447 *~ 1;
#X obj 258 445 loadbang;
#X obj 258 468 tgl 18 0 empty empty empty 17 7 0 10 #fcfcfc #000000
#000000 0 1;
#X obj 258 491 metro 100;
#X obj 258 515 tabwrite~ \$0-scope;
#N canvas 0 22 450 278 (subpatch) 0;
#X array \$0-scope 441 float 0;
#X coords 0 1 440 -1 200 140 1;
#X restore 259 565 graph;
#X obj 25 86 cnv 7 7 140 empty empty Feedback\ Delay 12 8 0 16 #faff00
#faff00 0;
#X obj 78 142 tgl 15 0 empty empty empty 17 7 0 10 #fcfcfc #000000
#000000 0 1;
#X obj 78 162 metro 1000;
#X obj 78 186 bng 15 250 50 0 empty empty empty 17 7 0 10 #fcfcfc #000000
#000000;
#X obj 160 314 delwrite~ \$0-delay 60000;
#X text 79 112 Play;
#X obj 78 273 +~;
#X text 158 336 1) Almacena la señal en el buffer del delay;
#X obj 199 5 cnv 7 7 140 empty empty delread4~ 12 8 0 16 #faff00 #faff00
0;
#X obj 213 150 delread4~ \$0-delay;
#X obj 212 199 *~ 0.9;
#X text 267 195 <- Feedback (0 a 1);
#X text 281 220 <- Tone;
#X obj 212 222 lop~ 4000;
#N canvas 0 22 1920 1036 noise 0;
#X obj 300 169 + 24;
#X obj 300 193 mtof;
#X obj 300 217 phasor~;
#X obj 300 241 *~ 2;
#X obj 300 265 -~ 1;
#X obj 370 309 bob~;
#X obj 447 346 *~;
#X msg 538 194 1 \, 0 250;
#X obj 538 218 line~;
#X obj 538 242 pow~ 2;
#X obj 413 87 inlet;
#X obj 413 110 t b b, f 18;
#X obj 447 369 outlet~;
#X obj 300 145 random 60;
#X obj 407 270 *~ 5000;
#X connect 0 0 1 0;
#X connect 1 0 2 0;
#X connect 2 0 3 0;
#X connect 3 0 4 0;
#X connect 4 0 5 0;
#X connect 5 0 6 0;
#X connect 6 0 12 0;
#X connect 7 0 8 0;
#X connect 8 0 9 0;
#X connect 9 0 6 1;
#X connect 9 0 14 0;
#X connect 10 0 11 0;
#X connect 11 0 13 0;
#X connect 11 1 7 0;
#X connect 13 0 0 0;
#X connect 14 0 5 1;
#X restore 78 216 pd noise;
#X obj 371 81 *~ 1;
#X obj 214 116 +~;
#X obj 371 58 osc~ 2;
#X text 372 32 // LFO;
#X text 407 82 <- modulacion tipo vibrato del delay;
#X obj 213 48 sig~ 333;
#X text 213 27 333 ms de delay;
#X connect 0 0 1 0;
#X connect 1 0 2 0;
#X connect 2 0 3 0;
#X connect 3 0 4 0;
#X connect 3 0 4 1;
#X connect 5 0 0 0;
#X connect 5 0 9 0;
#X connect 6 0 7 0;
#X connect 7 0 8 0;
#X connect 8 0 9 0;
#X connect 12 0 13 0;
#X connect 13 0 14 0;
#X connect 14 0 25 0;
#X connect 17 0 15 0;
#X connect 17 0 5 0;
#X connect 20 0 21 0;
#X connect 21 0 24 0;
#X connect 24 0 17 1;
#X connect 25 0 17 0;
#X connect 26 0 27 1;
#X connect 27 0 20 0;
#X connect 28 0 26 0;
#X connect 31 0 27 0;
