#N canvas 0 22 1920 1036 12;
#X obj 307 651 /~ 4;
#X obj 307 675 hip~ 3;
#X obj 307 699 clip~ -1 1;
#X obj 307 723 /~ 2;
#X obj 307 747 dac~ 1 2;
#X obj 324 551 *~ 1;
#X obj 485 540 loadbang;
#X obj 485 563 tgl 18 0 empty empty empty 17 7 0 10 #fcfcfc #000000
#000000 0 1;
#X obj 485 586 metro 100;
#X obj 485 610 tabwrite~ \$0-scope;
#N canvas 0 22 450 278 (subpatch) 0;
#X array \$0-scope 441 float 0;
#X coords 0 1 440 -1 200 140 1;
#X restore 486 660 graph;
#X obj 204 278 cnv 7 7 140 empty empty Comb\ Filter 12 8 0 16 #faff00
#faff00 0;
#X obj 364 264 tgl 15 0 empty empty empty 17 7 0 10 #fcfcfc #000000
#000000 0 1;
#X obj 364 284 metro 1000;
#X obj 364 308 bng 15 250 50 0 empty empty empty 17 7 0 10 #fcfcfc
#000000 #000000;
#N canvas 0 22 1920 1036 synth 0;
#X obj 300 145 random 48;
#X obj 300 169 + 24;
#X obj 300 193 mtof;
#X obj 300 217 phasor~;
#X obj 300 241 *~ 2;
#X obj 300 265 -~ 1;
#X obj 370 309 bob~;
#X obj 447 346 *~;
#X obj 538 218 line~;
#X obj 538 242 pow~ 2;
#X obj 407 270 *~ 14000;
#X obj 413 87 inlet;
#X obj 413 110 t b b, f 18;
#X obj 447 369 outlet~;
#X obj 362 343 noise~;
#X msg 538 194 1 \, 0 1000;
#X connect 0 0 1 0;
#X connect 1 0 2 0;
#X connect 2 0 3 0;
#X connect 3 0 4 0;
#X connect 4 0 5 0;
#X connect 5 0 6 0;
#X connect 7 0 13 0;
#X connect 8 0 9 0;
#X connect 9 0 10 0;
#X connect 9 0 7 1;
#X connect 10 0 6 1;
#X connect 11 0 12 0;
#X connect 12 0 0 0;
#X connect 12 1 15 0;
#X connect 14 0 7 0;
#X connect 15 0 8 0;
#X restore 364 338 pd synth;
#X obj 420 377 delwrite~ \$0-delay 60000;
#X text 365 234 Play;
#X obj 617 465 sig~ 1;
#X obj 617 488 delread4~ \$0-delay;
#X obj 353 505 -~;
#X floatatom 623 372 5 0 0 0 - - - 0;
#X msg 623 394 1000 \$1;
#X obj 623 417 /;
#X floatatom 623 440 5 0 0 0 - - - 0;
#X text 538 265 La unica diferencia entre un delay un comb filter es
que el tiempo del delay esta entre 0 a 50 ms.;
#X text 663 438 ms;
#X text 669 365 Hz;
#X text 635 340 Cutoff Frequency;
#X text 378 507 <- Resta señal original y señal de delay;
#X connect 0 0 1 0;
#X connect 1 0 2 0;
#X connect 2 0 3 0;
#X connect 3 0 4 0;
#X connect 3 0 4 1;
#X connect 5 0 0 0;
#X connect 5 0 9 0;
#X connect 6 0 7 0;
#X connect 7 0 8 0;
#X connect 8 0 9 0;
#X connect 12 0 13 0;
#X connect 13 0 14 0;
#X connect 14 0 15 0;
#X connect 15 0 20 0;
#X connect 15 0 16 0;
#X connect 18 0 19 0;
#X connect 19 0 20 1;
#X connect 20 0 5 0;
#X connect 21 0 22 0;
#X connect 22 0 23 0;
#X connect 23 0 24 0;
#X connect 24 0 18 0;
