#N canvas 0 22 1920 1036 12;
#X obj 80 582 /~ 4;
#X obj 80 606 hip~ 3;
#X obj 80 630 clip~ -1 1;
#X obj 80 654 /~ 2;
#X obj 80 678 dac~ 1 2;
#X obj 97 482 *~ 1;
#X obj 258 471 loadbang;
#X obj 258 494 tgl 18 0 empty empty empty 17 7 0 10 #fcfcfc #000000
#000000 0 1;
#X obj 258 517 metro 100;
#X obj 258 541 tabwrite~ \$0-scope;
#N canvas 0 22 450 278 (subpatch) 0;
#X array \$0-scope 441 float 0;
#X coords 0 1 440 -1 200 140 1;
#X restore 259 591 graph;
#X obj 421 132 cnv 7 7 140 empty empty Chorus 12 8 0 16 #faff00 #faff00
0;
#X obj 117 85 tgl 15 0 empty empty empty 17 7 0 10 #fcfcfc #000000
#000000 0 1;
#X obj 117 105 metro 1000;
#X obj 117 129 bng 15 250 50 0 empty empty empty 17 7 0 10 #fcfcfc
#000000 #000000;
#N canvas 0 22 1920 1036 synth 0;
#X obj 300 145 random 48;
#X obj 300 169 + 24;
#X obj 300 193 mtof;
#X obj 300 217 phasor~;
#X obj 300 241 *~ 2;
#X obj 300 265 -~ 1;
#X obj 370 309 bob~;
#X obj 447 346 *~;
#X obj 538 218 line~;
#X obj 538 242 pow~ 2;
#X obj 407 270 *~ 14000;
#X obj 413 87 inlet;
#X obj 413 110 t b b, f 18;
#X obj 447 369 outlet~;
#X msg 538 194 1 \, 0 1000;
#X connect 0 0 1 0;
#X connect 1 0 2 0;
#X connect 2 0 3 0;
#X connect 3 0 4 0;
#X connect 4 0 5 0;
#X connect 5 0 6 0;
#X connect 6 0 7 0;
#X connect 7 0 13 0;
#X connect 8 0 9 0;
#X connect 9 0 10 0;
#X connect 9 0 7 1;
#X connect 10 0 6 1;
#X connect 11 0 12 0;
#X connect 12 0 0 0;
#X connect 12 1 14 0;
#X connect 14 0 8 0;
#X restore 117 159 pd synth;
#X obj 208 199 delwrite~ \$0-delay 60000;
#X text 118 55 Play;
#X obj 463 346 delread4~ \$0-delay;
#X obj 463 193 +~ 1;
#X obj 463 216 /~ 2;
#X obj 463 312 +~ 4;
#X obj 463 269 *~ 6;
#X text 501 200 <- Unipolar;
#X text 499 268 <- Cantidad de Modulacion;
#X text 497 309 <- Costante de delay;
#X text 517 164 <- LFO;
#X obj 135 396 +~;
#X obj 464 170 osc~ 3;
#X text 369 43 Chorus es vibrato + señal original;
#X obj 137 352 *~ 0.7;
#X obj 704 359 delread4~ \$0-delay;
#X obj 704 206 +~ 1;
#X obj 704 229 /~ 2;
#X obj 704 282 *~ 3;
#X obj 704 325 +~ 8;
#X obj 705 183 osc~ 4.2;
#X obj 463 389 +~;
#X obj 463 413 /~ 2;
#X connect 0 0 1 0;
#X connect 1 0 2 0;
#X connect 2 0 3 0;
#X connect 3 0 4 0;
#X connect 3 0 4 1;
#X connect 5 0 0 0;
#X connect 5 0 9 0;
#X connect 6 0 7 0;
#X connect 7 0 8 0;
#X connect 8 0 9 0;
#X connect 12 0 13 0;
#X connect 13 0 14 0;
#X connect 14 0 15 0;
#X connect 15 0 16 0;
#X connect 15 0 30 0;
#X connect 18 0 37 0;
#X connect 19 0 20 0;
#X connect 20 0 22 0;
#X connect 21 0 18 0;
#X connect 22 0 21 0;
#X connect 27 0 5 0;
#X connect 28 0 19 0;
#X connect 30 0 27 0;
#X connect 31 0 37 1;
#X connect 32 0 33 0;
#X connect 33 0 34 0;
#X connect 34 0 35 0;
#X connect 35 0 31 0;
#X connect 36 0 32 0;
#X connect 37 0 38 0;
#X connect 38 0 27 1;
