#N canvas 0 22 1920 1036 12;
#X obj 307 651 /~ 4;
#X obj 307 675 hip~ 3;
#X obj 307 699 clip~ -1 1;
#X obj 307 723 /~ 2;
#X obj 307 747 dac~ 1 2;
#X obj 307 542 *~ 1;
#X obj 485 540 loadbang;
#X obj 485 563 tgl 18 0 empty empty empty 17 7 0 10 #fcfcfc #000000
#000000 0 1;
#X obj 485 586 metro 100;
#X obj 485 610 tabwrite~ \$0-scope;
#N canvas 0 22 450 278 (subpatch) 0;
#X array \$0-scope 441 float 0;
#X coords 0 1 440 -1 200 140 1;
#X restore 486 660 graph;
#X obj 409 209 adc~ 1;
#X obj 412 319 tgl 15 0 empty empty empty 17 7 0 10 #fcfcfc #000000
#000000 0 1;
#X obj 412 392 i;
#X floatatom 412 415 5 0 0 0 - - - 0;
#X floatatom 412 460 5 0 0 0 - - - 0;
#X obj 412 482 delread4~ \$0-delay;
#X obj 414 265 delwrite~ \$0-delay 5000;
#X obj 453 391 + 100;
#X obj 412 339 metro 100;
#X obj 699 348 bng 15 250 50 0 empty empty empty 17 7 0 10 #fcfcfc
#000000 #000000;
#X obj 699 368 i;
#X obj 737 368 + 1;
#X floatatom 699 391 5 0 0 0 - - - 0;
#X text 499 392 <- incrementos de 100;
#X text 297 306 Stutter;
#X obj 412 437 mod 5000;
#X text 475 436 <- restringe a 5000 ms;
#X connect 0 0 1 0;
#X connect 1 0 2 0;
#X connect 2 0 3 0;
#X connect 3 0 4 0;
#X connect 3 0 4 1;
#X connect 5 0 0 0;
#X connect 5 0 9 0;
#X connect 6 0 7 0;
#X connect 7 0 8 0;
#X connect 8 0 9 0;
#X connect 11 0 17 0;
#X connect 12 0 19 0;
#X connect 13 0 14 0;
#X connect 13 0 18 0;
#X connect 14 0 26 0;
#X connect 15 0 16 0;
#X connect 18 0 13 1;
#X connect 19 0 13 0;
#X connect 20 0 21 0;
#X connect 21 0 22 0;
#X connect 21 0 23 0;
#X connect 22 0 21 1;
#X connect 26 0 15 0;
