#N canvas 156 156 1512 536 12;
#X obj 393 95 inlet~;
#X obj 394 172 *~;
#X msg 455 124 \$1 10;
#X obj 513 96 inlet~;
#X obj 514 173 *~;
#X msg 575 125 \$1 10;
#X obj 651 91 inlet~;
#X obj 652 168 *~;
#X msg 713 120 \$1 10;
#X obj 771 92 inlet~;
#X obj 772 169 *~;
#X msg 833 121 \$1 10;
#X obj 902 92 inlet~;
#X obj 903 169 *~;
#X msg 964 121 \$1 10;
#X obj 1022 93 inlet~;
#X obj 1023 170 *~;
#X msg 1084 122 \$1 10;
#X obj 1160 88 inlet~;
#X obj 1161 165 *~;
#X msg 1222 117 \$1 10;
#X obj 1280 89 inlet~;
#X obj 1281 166 *~;
#X msg 1342 118 \$1 10;
#X obj 102 102 cnv 15 225 195 empty empty empty 20 12 0 14 #c7d9fa
#404040 0;
#X obj 105 158 vsl 12 120 0.01 1 1 1 \$0-V1 empty Ch.1 0 -9 0 12 #9f9f9f
#ffffff #000000 11900 1;
#X obj 455 96 r \$0-V1;
#X obj 575 95 r \$0-V1;
#X obj 713 90 r \$0-V2;
#X obj 833 92 r \$0-V2;
#X obj 964 93 r \$0-V3;
#X obj 1084 92 r \$0-V3;
#X obj 1222 87 r \$0-V4;
#X obj 1342 89 r \$0-V4;
#X obj 151 158 vsl 12 120 0.01 1 1 1 \$0-V2 empty Ch.2 0 -9 0 12 #9f9f9f
#ffffff #000000 11900 1;
#X obj 196 158 vsl 12 120 0.01 1 1 1 \$0-V3 empty Ch.3 0 -9 0 12 #9f9f9f
#ffffff #000000 6700 1;
#X obj 240 158 vsl 12 120 0.01 1 1 1 \$0-V4 empty Ch.4 0 -9 0 12 #9f9f9f
#ffffff #000000 7500 1;
#X obj 393 423 *~;
#X obj 512 422 *~;
#X msg 589 375 \$1 10;
#X obj 589 347 r \$0-VM;
#X obj 392 477 outlet~;
#X obj 511 476 outlet~;
#X obj 105 20 loadbang;
#X msg 105 56 0.75;
#X obj 287 158 vsl 12 120 0.01 1 1 1 \$0-VM empty MTR 0 -9 0 12 #9f9f9f
#ffffff #000000 11900 1;
#X text 150 111 4 Ch. Stereo Mixer;
#X obj 589 404 line~;
#X obj 455 153 line~;
#X obj 575 154 line~;
#X obj 713 149 line~;
#X obj 833 150 line~;
#X obj 964 150 line~;
#X obj 1084 151 line~;
#X obj 1222 146 line~;
#X obj 1342 147 line~;
#X obj 394 303 clip~ -1 1;
#X obj 514 302 clip~ -1 1;
#X obj 651 300 clip~ -1 1;
#X obj 771 299 clip~ -1 1;
#X obj 904 299 clip~ -1 1;
#X obj 1024 298 clip~ -1 1;
#X obj 1161 296 clip~ -1 1;
#X obj 1281 295 clip~ -1 1;
#X obj 513 339 /~ 1;
#X obj 393 342 /~ 1;
#X obj 95 334 cnv 1 6 1 empty empty empty 20 12 0 14 #000000 #404040
0;
#X obj 425 219 - 100;
#X obj 119 159 vu 10 120 empty empty -1 -8 0 10 #404040 #000000 0 0
;
#X obj 425 255 s \$0-ch1;
#X obj 148 57 r \$0-ch1;
#X obj 545 219 - 100;
#X obj 685 219 - 100;
#X obj 805 219 - 100;
#X obj 935 219 - 100;
#X obj 1065 192 env~;
#X obj 1065 219 - 100;
#X obj 1195 192 env~;
#X obj 1195 219 - 100;
#X obj 1325 192 env~;
#X obj 1325 219 - 100;
#X obj 545 255 s \$0-ch2;
#X obj 132 159 vu 10 120 empty empty -1 -8 0 10 #404040 #000000 0 0
;
#X obj 209 57 r \$0-ch2;
#X obj 685 255 s \$0-ch3;
#X obj 935 255 s \$0-ch5;
#X obj 1195 255 s \$0-ch7;
#X obj 805 255 s \$0-ch4;
#X obj 1325 255 s \$0-ch8;
#X obj 1065 255 s \$0-ch6;
#X obj 165 159 vu 10 120 empty empty -1 -8 0 10 #404040 #000000 0 0
;
#X obj 178 159 vu 10 120 empty empty -1 -8 0 10 #404040 #000000 0 0
;
#X obj 210 159 vu 10 120 empty empty -1 -8 0 10 #404040 #000000 0 0
;
#X obj 223 159 vu 10 120 empty empty -1 -8 0 10 #404040 #000000 0 0
;
#X obj 254 159 vu 10 120 empty empty -1 -8 0 10 #404040 #000000 0 0
;
#X obj 267 159 vu 10 120 empty empty -1 -8 0 10 #404040 #000000 0 0
;
#X obj 270 57 r \$0-ch3;
#X obj 331 57 r \$0-ch4;
#X obj 209 27 r \$0-ch5;
#X obj 270 27 r \$0-ch6;
#X obj 331 27 r \$0-ch7;
#X obj 392 27 r \$0-ch8;
#X obj 301 159 vu 10 120 empty empty -1 -8 0 10 #404040 #000000 0 0
;
#X obj 314 159 vu 10 120 empty empty -1 -8 0 10 #404040 #000000 0 0
;
#X obj 590 441 env~;
#X obj 590 468 - 100;
#X obj 710 441 env~;
#X obj 710 468 - 100;
#X obj 590 493 s \$0-Mch1;
#X obj 710 493 s \$0-Mch2;
#X obj 395 57 r \$0-Mch1;
#X obj 465 57 r \$0-Mch2;
#X obj 935 192 env~;
#X obj 805 192 env~;
#X obj 685 192 env~;
#X obj 545 192 env~;
#X obj 425 192 env~;
#X connect 0 0 1 0;
#X connect 1 0 56 0;
#X connect 1 0 116 0;
#X connect 2 0 48 0;
#X connect 3 0 4 0;
#X connect 4 0 57 0;
#X connect 4 0 115 0;
#X connect 5 0 49 0;
#X connect 6 0 7 0;
#X connect 7 0 58 0;
#X connect 7 0 114 0;
#X connect 8 0 50 0;
#X connect 9 0 10 0;
#X connect 10 0 59 0;
#X connect 10 0 113 0;
#X connect 11 0 51 0;
#X connect 12 0 13 0;
#X connect 13 0 60 0;
#X connect 13 0 112 0;
#X connect 14 0 52 0;
#X connect 15 0 16 0;
#X connect 16 0 61 0;
#X connect 16 0 75 0;
#X connect 17 0 53 0;
#X connect 18 0 19 0;
#X connect 19 0 62 0;
#X connect 19 0 77 0;
#X connect 20 0 54 0;
#X connect 21 0 22 0;
#X connect 22 0 63 0;
#X connect 22 0 79 0;
#X connect 23 0 55 0;
#X connect 26 0 2 0;
#X connect 27 0 5 0;
#X connect 28 0 8 0;
#X connect 29 0 11 0;
#X connect 30 0 14 0;
#X connect 31 0 17 0;
#X connect 32 0 20 0;
#X connect 33 0 23 0;
#X connect 37 0 41 0;
#X connect 37 0 104 0;
#X connect 38 0 42 0;
#X connect 38 0 106 0;
#X connect 39 0 47 0;
#X connect 40 0 39 0;
#X connect 43 0 44 0;
#X connect 44 0 25 0;
#X connect 44 0 36 0;
#X connect 44 0 35 0;
#X connect 44 0 34 0;
#X connect 44 0 45 0;
#X connect 47 0 37 1;
#X connect 47 0 38 1;
#X connect 48 0 1 1;
#X connect 49 0 4 1;
#X connect 50 0 7 1;
#X connect 51 0 10 1;
#X connect 52 0 13 1;
#X connect 53 0 16 1;
#X connect 54 0 19 1;
#X connect 55 0 22 1;
#X connect 56 0 65 0;
#X connect 57 0 64 0;
#X connect 58 0 65 0;
#X connect 59 0 64 0;
#X connect 60 0 65 0;
#X connect 61 0 64 0;
#X connect 62 0 65 0;
#X connect 63 0 64 0;
#X connect 64 0 38 0;
#X connect 65 0 37 0;
#X connect 67 0 69 0;
#X connect 70 0 68 0;
#X connect 70 0 68 1;
#X connect 71 0 81 0;
#X connect 72 0 84 0;
#X connect 73 0 87 0;
#X connect 74 0 85 0;
#X connect 75 0 76 0;
#X connect 76 0 89 0;
#X connect 77 0 78 0;
#X connect 78 0 86 0;
#X connect 79 0 80 0;
#X connect 80 0 88 0;
#X connect 83 0 82 0;
#X connect 83 0 82 1;
#X connect 96 0 90 0;
#X connect 96 0 90 1;
#X connect 97 0 91 0;
#X connect 97 0 91 1;
#X connect 98 0 92 0;
#X connect 98 0 92 1;
#X connect 99 0 93 0;
#X connect 99 0 93 1;
#X connect 100 0 94 0;
#X connect 100 0 94 1;
#X connect 101 0 95 1;
#X connect 101 0 95 0;
#X connect 104 0 105 0;
#X connect 105 0 108 0;
#X connect 106 0 107 0;
#X connect 107 0 109 0;
#X connect 110 0 102 0;
#X connect 110 0 102 1;
#X connect 111 0 103 0;
#X connect 111 0 102 1;
#X connect 111 0 103 1;
#X connect 112 0 74 0;
#X connect 113 0 73 0;
#X connect 114 0 72 0;
#X connect 115 0 71 0;
#X connect 116 0 67 0;
#X coords 0 -1 1 1 230 200 1 100 100;
