#N canvas 732 304 753 639 12;
#X obj 126 355 vsl 15 128 0 1 0 1 empty \$0-Wet empty 0 -9 0 10 #fcfcfc
#000000 #000000 12700 1;
#X obj 125 554 hsl 128 15 0.01 1 0 1 empty \$0-Vol empty -2 -8 0 10
#fcfcfc #000000 #000000 12700 1;
#X obj 151 369 hsl 128 15 0.02 10000 0 1 empty \$0-Int empty -2 -8
0 10 #fcfcfc #000000 #000000 3 1;
#X obj 170 468 hradio 15 1 0 2 empty \$0-Al empty 0 -8 0 10 #fcfcfc
#000000 #000000 0;
#X obj 209 475 bng 15 250 50 0 empty empty empty 17 7 0 10 #fcfcfc
#000000 #000000;
#X obj 209 428 tgl 15 0 empty \$0-Tmetro empty 17 7 0 10 #fcfcfc #000000
#000000 0 1;
#X obj 104 573 *~;
#N canvas 208 208 296 240 rndmchorus 0;
#N canvas 243 231 1637 698 chorus 0;
#X obj 240 285 osc~ 0.05;
#X obj 180 433 *~ 10;
#X obj 280 433 *~ 10;
#X obj 180 524 +~ 11;
#X obj 280 524 +~ 21;
#X obj 340 285 osc~ 0.08;
#X obj 380 433 *~ 10;
#X obj 480 433 *~ 10;
#X obj 440 285 osc~ 0.13;
#X obj 380 524 +~ 13;
#X obj 540 285 osc~ 0.21;
#X obj 480 524 +~ 34;
#X obj 580 433 *~ 10;
#X obj 580 524 +~ 55;
#X obj 639 285 osc~ 0.03;
#X obj 680 524 +~ 87;
#X obj 740 285 osc~ 0.015;
#X obj 840 285 osc~ 0.12;
#X obj 780 524 +~ 67;
#X obj 780 433 *~ 5;
#X obj 680 433 *~ 15;
#X obj 180 555 vd~ \$0-chorus;
#X obj 4 7 inlet~;
#X obj 280 555 vd~ \$0-chorus;
#X obj 380 555 vd~ \$0-chorus;
#X obj 480 555 vd~ \$0-chorus;
#X obj 580 555 vd~ \$0-chorus;
#X obj 680 555 vd~ \$0-chorus;
#X obj 780 556 vd~ \$0-chorus;
#X obj 182 643 outlet~;
#X obj 214 10 inlet;
#X obj 179 359 +~ 1;
#X obj 179 383 /~ 2;
#X obj 279 358 +~ 1;
#X obj 279 382 /~ 2;
#X obj 380 356 +~ 1;
#X obj 380 380 /~ 2;
#X obj 479 358 +~ 1;
#X obj 479 382 /~ 2;
#X obj 579 358 +~ 1;
#X obj 579 382 /~ 2;
#X obj 681 356 +~ 1;
#X obj 681 380 /~ 2;
#X obj 781 354 +~ 1;
#X obj 781 378 /~ 2;
#X obj 781 326 gate~ 2 1;
#X obj 680 325 gate~ 2 1;
#X obj 578 326 gate~ 2 1;
#X obj 480 325 gate~ 2 1;
#X obj 379 326 gate~ 2 1;
#X obj 280 325 gate~ 2 1;
#X obj 179 325 gate~ 2 1;
#X obj 351 61 hradio 15 1 1 3 empty empty empty 0 -8 0 10 #fcfcfc #000000
#000000 2;
#X obj 351 12 inlet;
#X obj 1032 26 inlet;
#X msg 712 405 15;
#X msg 805 406 5;
#X floatatom 214 35 5 0 0 0 - - - 0;
#X obj 4 52 delwrite~ \$0-chorus 441000;
#X obj 351 34 + 1;
#X obj 1032 52 bng 15 250 50 0 empty empty empty 17 7 0 10 #fcfcfc
#000000 #000000;
#X obj 1032 72 s \$0-bng;
#X obj 351 84 s \$0-gate;
#X obj 78 306 r \$0-gate;
#X obj 258 187 random01;
#X obj 258 163 r \$0-bng;
#X obj 258 215 * 4;
#X obj 358 187 random01;
#X obj 358 163 r \$0-bng;
#X obj 358 215 * 4;
#X obj 458 187 random01;
#X obj 458 163 r \$0-bng;
#X obj 458 215 * 4;
#X obj 558 187 random01;
#X obj 558 163 r \$0-bng;
#X obj 558 215 * 4;
#X obj 657 187 random01;
#X obj 657 163 r \$0-bng;
#X obj 657 215 * 4;
#X obj 758 187 random01;
#X obj 758 163 r \$0-bng;
#X obj 758 215 * 4;
#X obj 858 187 random01;
#X obj 858 163 r \$0-bng;
#X obj 858 215 * 4;
#X obj 240 244 +;
#X obj 214 61 s \$0-int;
#X obj 340 244 +;
#X obj 440 244 +;
#X obj 540 244 +;
#X obj 639 244 +;
#X obj 740 244 +;
#X obj 840 244 +;
#X obj 145 225 r \$0-int;
#X obj 80 414 * 20;
#X obj 80 386 random01;
#X obj 80 362 r \$0-bng;
#X obj 850 386 r \$0-bng;
#X obj 212 494 * 30;
#X obj 290 215 s \$0-d1;
#X obj 395 216 s \$0-d2;
#X obj 494 216 s \$0-d3;
#X obj 589 215 s \$0-d4;
#X obj 691 215 s \$0-d5;
#X obj 789 215 s \$0-d6;
#X obj 888 216 s \$0-d7;
#X obj 212 468 r \$0-d1;
#X obj 312 493 * 30;
#X obj 412 494 * 30;
#X obj 512 493 * 30;
#X obj 612 494 * 30;
#X obj 712 493 * 30;
#X obj 812 494 * 30;
#X obj 312 467 r \$0-d2;
#X obj 412 468 r \$0-d3;
#X obj 512 467 r \$0-d4;
#X obj 612 468 r \$0-d5;
#X obj 712 467 r \$0-d6;
#X obj 812 468 r \$0-d7;
#X obj 181 610 hip~ 3;
#X connect 0 0 51 1;
#X connect 1 0 3 0;
#X connect 2 0 4 0;
#X connect 3 0 21 0;
#X connect 4 0 23 0;
#X connect 5 0 50 1;
#X connect 6 0 9 0;
#X connect 7 0 11 0;
#X connect 8 0 49 1;
#X connect 9 0 24 0;
#X connect 10 0 48 1;
#X connect 11 0 25 0;
#X connect 12 0 13 0;
#X connect 13 0 26 0;
#X connect 14 0 47 1;
#X connect 15 0 27 0;
#X connect 16 0 46 1;
#X connect 17 0 45 1;
#X connect 18 0 28 0;
#X connect 19 0 18 0;
#X connect 20 0 15 0;
#X connect 21 0 119 0;
#X connect 22 0 58 0;
#X connect 23 0 119 0;
#X connect 24 0 119 0;
#X connect 25 0 119 0;
#X connect 26 0 119 0;
#X connect 27 0 119 0;
#X connect 28 0 119 0;
#X connect 30 0 57 0;
#X connect 31 0 32 0;
#X connect 32 0 1 0;
#X connect 33 0 34 0;
#X connect 34 0 2 0;
#X connect 35 0 36 0;
#X connect 36 0 6 0;
#X connect 37 0 38 0;
#X connect 38 0 7 0;
#X connect 39 0 40 0;
#X connect 40 0 12 0;
#X connect 41 0 42 0;
#X connect 42 0 20 0;
#X connect 43 0 44 0;
#X connect 44 0 19 0;
#X connect 45 0 43 0;
#X connect 45 1 19 0;
#X connect 46 0 41 0;
#X connect 46 1 20 0;
#X connect 47 0 39 0;
#X connect 47 1 12 0;
#X connect 48 0 37 0;
#X connect 48 1 7 0;
#X connect 49 0 35 0;
#X connect 49 1 6 0;
#X connect 50 0 33 0;
#X connect 50 1 2 0;
#X connect 51 0 31 0;
#X connect 51 1 1 0;
#X connect 52 0 62 0;
#X connect 53 0 59 0;
#X connect 54 0 60 0;
#X connect 55 0 20 1;
#X connect 56 0 19 1;
#X connect 57 0 86 0;
#X connect 57 0 60 0;
#X connect 59 0 52 0;
#X connect 60 0 61 0;
#X connect 63 0 51 0;
#X connect 63 0 50 0;
#X connect 63 0 49 0;
#X connect 63 0 48 0;
#X connect 63 0 47 0;
#X connect 63 0 46 0;
#X connect 63 0 45 0;
#X connect 64 0 66 0;
#X connect 64 0 99 0;
#X connect 65 0 64 0;
#X connect 66 0 85 1;
#X connect 67 0 69 0;
#X connect 67 0 100 0;
#X connect 68 0 67 0;
#X connect 69 0 87 1;
#X connect 70 0 72 0;
#X connect 70 0 101 0;
#X connect 71 0 70 0;
#X connect 72 0 88 1;
#X connect 73 0 75 0;
#X connect 73 0 102 0;
#X connect 74 0 73 0;
#X connect 75 0 89 1;
#X connect 76 0 78 0;
#X connect 76 0 103 0;
#X connect 77 0 76 0;
#X connect 78 0 90 1;
#X connect 79 0 81 0;
#X connect 79 0 104 0;
#X connect 80 0 79 0;
#X connect 81 0 91 1;
#X connect 82 0 84 0;
#X connect 82 0 105 0;
#X connect 83 0 82 0;
#X connect 84 0 92 1;
#X connect 85 0 0 0;
#X connect 87 0 5 0;
#X connect 88 0 8 0;
#X connect 89 0 10 0;
#X connect 90 0 14 0;
#X connect 91 0 16 0;
#X connect 92 0 17 0;
#X connect 93 0 85 0;
#X connect 93 0 92 0;
#X connect 93 0 91 0;
#X connect 93 0 90 0;
#X connect 93 0 89 0;
#X connect 93 0 88 0;
#X connect 93 0 87 0;
#X connect 94 0 1 1;
#X connect 94 0 12 1;
#X connect 94 0 7 1;
#X connect 94 0 6 1;
#X connect 94 0 2 1;
#X connect 95 0 94 0;
#X connect 96 0 95 0;
#X connect 97 0 56 0;
#X connect 97 0 55 0;
#X connect 98 0 3 1;
#X connect 106 0 98 0;
#X connect 107 0 4 1;
#X connect 108 0 9 1;
#X connect 109 0 11 1;
#X connect 110 0 13 1;
#X connect 111 0 15 1;
#X connect 112 0 18 1;
#X connect 113 0 107 0;
#X connect 114 0 108 0;
#X connect 115 0 109 0;
#X connect 116 0 110 0;
#X connect 117 0 111 0;
#X connect 118 0 112 0;
#X connect 119 0 29 0;
#X restore 143 172 pd chorus;
#N canvas 327 397 651 484 dry/wet 0;
#X obj 137 266 *~;
#X obj 287 278 *~;
#X obj 355 28 inlet~;
#X obj 93 29 inlet~;
#X obj 225 33 vsl 15 128 0 1 0 0 empty empty empty 0 -9 0 10 #fcfcfc
#000000 #000000 0 1;
#X obj 236 181 - 1;
#X floatatom 236 239 5 0 0 0 - - - 0;
#X obj 236 211 * -1;
#X floatatom 197 239 5 0 0 0 - - - 0;
#X text 412 32 Wet inlet;
#X obj 196 333 +~;
#X obj 196 376 outlet~;
#X text 20 28 Dry inlet;
#X text 213 8 Mix;
#X text 240 29 All wet;
#X text 237 150 All dry;
#X obj 242 8 inlet;
#X connect 0 0 10 0;
#X connect 1 0 10 1;
#X connect 2 0 0 0;
#X connect 3 0 1 0;
#X connect 4 0 5 0;
#X connect 4 0 8 0;
#X connect 5 0 7 0;
#X connect 6 0 1 1;
#X connect 7 0 6 0;
#X connect 8 0 0 1;
#X connect 10 0 11 0;
#X connect 16 0 4 0;
#X restore 40 255 pd dry/wet;
#X f 15;
#X obj 39 50 inlet~;
#X obj 40 288 outlet~;
#X obj 91 222 inlet;
#X obj 163 101 inlet;
#X obj 183 124 inlet;
#X obj 210 146 inlet;
#X connect 0 0 1 2;
#X connect 1 0 3 0;
#X connect 2 0 1 0;
#X connect 2 0 0 0;
#X connect 4 0 1 1;
#X connect 5 0 0 1;
#X connect 6 0 0 2;
#X connect 7 0 0 3;
#X restore 104 502 pd rndmchorus;
#X obj 209 448 metro 290;
#X obj 148 342 pack f 10;
#X text 352 418 Inlets: Dry/Wet 0 - 1 Intensity 1 - 10000 Algorithm
Uni/Bipolar Random Proportions, f 27;
#X obj 209 503 random 10000;
#X obj 105 322 inlet~;
#X obj 103 600 outlet~;
#X msg 363 308 60000 \$1;
#X obj 363 332 /;
#X floatatom 363 380 5 0 0 0 - - - 0;
#X obj 363 356 4;
#X obj 102 102 cnv 15 175 197 empty empty empty 20 12 0 14 #c5dffc
#404040 0;
#X obj 191 171 nbx 5 20 -1e+37 1e+37 0 1 empty \$0-BPM empty 0 -8 0
12 #9f9f9f #ffffff #000000 100 256;
#X obj 123 118 tgl 20 0 \$0-Tmetro empty empty 17 7 0 10 #9f9f9f #ffffff
#000000 0 1;
#X obj 127 276 hsl 128 15 0.01 1 0 1 \$0-Vol empty empty -2 -8 0 10
#9f9f9f #ffffff #000000 12700 1;
#X obj 126 198 hsl 128 15 0.02 10000 0 1 \$0-Int empty empty -2 -8
0 10 #9f9f9f #ffffff #000000 3 1;
#X obj 124 158 hradio 18 1 0 2 \$0-Al empty empty 0 -8 0 10 #9f9f9f
#ffffff #000000 0;
#X obj 126 239 hsl 128 15 0.01 1 0 1 \$0-Wet empty empty -2 -8 0 10
#9f9f9f #ffffff #000000 12700 1;
#X text 190 152 BPM;
#X text 119 178 Intensity;
#X text 120 217 Wet/Dry;
#X text 121 256 Vol;
#X text 121 139 Version;
#X obj 191 64 inlet;
#X obj 59 414 tgl 15 0 empty \$0-OnOff empty 17 7 0 10 #fcfcfc #000000
#000000 0 1;
#X obj 59 438 + 1;
#X obj 59 461 gate~ 2;
#X obj 294 79 loadbang;
#X msg 294 110 0;
#X obj 226 129 tgl 30 0 \$0-OnOff empty empty 17 7 0 10 #ffc7c6 #000000
#000000 0 1;
#X text 149 103 Random :@ Chorus;
#X obj 105 527 clip~ -1 1;
#X obj 492 195 pack f f f;
#X obj 431 248 bng 15 250 50 0 empty empty empty 17 7 0 10 #fcfcfc
#000000 #000000;
#X obj 492 228 outlet;
#X obj 443 94 inlet;
#X obj 443 124 unpack f f f;
#X connect 0 0 7 1;
#X connect 1 0 6 1;
#X connect 2 0 7 2;
#X connect 3 0 7 3;
#X connect 4 0 7 4;
#X connect 4 0 11 0;
#X connect 5 0 8 0;
#X connect 6 0 13 0;
#X connect 7 0 38 0;
#X connect 8 0 4 0;
#X connect 9 0 2 0;
#X connect 11 0 22 0;
#X connect 12 0 33 1;
#X connect 14 0 15 0;
#X connect 15 0 17 0;
#X connect 16 0 8 1;
#X connect 17 0 16 0;
#X connect 19 0 14 0;
#X connect 21 0 39 2;
#X connect 21 0 40 0;
#X connect 22 0 39 0;
#X connect 24 0 39 1;
#X connect 24 0 40 0;
#X connect 30 0 19 0;
#X connect 31 0 32 0;
#X connect 32 0 33 0;
#X connect 33 0 13 0;
#X connect 33 1 7 0;
#X connect 34 0 35 0;
#X connect 35 0 36 0;
#X connect 38 0 6 0;
#X connect 39 0 41 0;
#X connect 40 0 39 0;
#X connect 42 0 43 0;
#X connect 43 0 22 0;
#X connect 43 1 24 0;
#X connect 43 2 21 0;
#X coords 0 -1 1 1 180 200 1 100 100;
