#N canvas 393 305 773 492 10;
#X obj 566 257 * 2;
#X obj 442 276 * 2;
#X obj 566 279 clip 0 1;
#X obj 442 298 clip 0 1;
#X obj 442 233 swap 1;
#X obj 442 255 -;
#X obj 614 16 inlet;
#X obj 366 154 inlet~;
#X obj 365 213 *~;
#X obj 236 154 inlet~;
#X obj 235 213 *~;
#X obj 306 271 outlet~;
#X obj 253 187 r~ \$0-leftlevel;
#X obj 383 187 r~ \$0-rightlevel;
#X obj 566 353 s~ \$0-rightlevel;
#X obj 442 373 s~ \$0-leftlevel;
#X obj 442 347 line~;
#X obj 566 325 line~;
#X msg 628 304 \$1 20;
#X msg 442 323 \$1 20;
#X obj 12 13 cnv 15 145 45 empty empty empty 20 12 0 14 #cef2f1 #404040
0;
#X obj 20 32 hsl 128 15 0 1 0 0 \$0-crr empty crossfader -2 -8 0 12
#9f9f9f #ffffff #000000 0 1;
#X obj 595 205 hsl 128 15 0 1 0 0 empty \$0-crr empty -2 -8 0 10 #fcfcfc
#000000 #000000 0 1;
#X floatatom 566 300 5 0 0 0 - - - 0;
#X floatatom 391 326 5 0 0 0 - - - 0;
#X obj 655 16 loadbang;
#X msg 655 40 0.5;
#X connect 0 0 2 0;
#X connect 1 0 3 0;
#X connect 2 0 18 0;
#X connect 2 0 23 0;
#X connect 3 0 19 0;
#X connect 3 0 24 0;
#X connect 4 0 5 0;
#X connect 4 1 5 1;
#X connect 5 0 1 0;
#X connect 6 0 21 0;
#X connect 7 0 8 0;
#X connect 8 0 11 0;
#X connect 9 0 10 0;
#X connect 10 0 11 0;
#X connect 12 0 10 1;
#X connect 13 0 8 1;
#X connect 16 0 15 0;
#X connect 17 0 14 0;
#X connect 18 0 17 0;
#X connect 19 0 16 0;
#X connect 22 0 0 0;
#X connect 22 0 4 0;
#X connect 25 0 26 0;
#X connect 26 0 21 0;
#X coords 0 -1 1 1 150 50 1 10 10;
