#N canvas 615 120 769 745 12;
#X obj 80 574 hip~ 3;
#X obj 80 622 /~ 2;
#X obj 160 364 delwrite~ \$0-delay 60000;
#X obj 78 323 +~;
#X text 158 386 1) Almacena la señal en el buffer del delay;
#X obj 213 200 delread4~ \$0-delay;
#X obj 212 249 *~ 0.9;
#X text 267 245 <- Feedback (0 a 1);
#X text 281 270 <- Tone;
#X obj 212 292 lop~ 4000;
#X obj 371 148 *~ 1;
#X obj 214 166 +~;
#X obj 371 125 osc~ 2;
#X text 372 99 // LFO;
#X text 407 149 <- modulacion tipo vibrato del delay;
#X floatatom 355 202 5 0 0 0 - \$0-Feedback - 0;
#X floatatom 314 51 5 0 0 0 - \$0-OSC - 0;
#X msg 213 40 60000 \$1;
#X obj 213 64 /;
#X floatatom 213 112 5 0 0 0 - - - 0;
#X obj 213 88 4;
#X floatatom 213 15 5 0 0 0 - \$0-BPM - 0;
#X obj 24 670 outlet~;
#X obj 79 670 outlet~;
#X obj 502 302 cnv 15 159 165 empty empty empty 20 12 0 14 #cbe6f5
#404040 0;
#X obj 513 365 hsl 128 15 0.01 10 0 0 \$0-OSC empty LFO -2 -8 0 12
#9f9f9f #ffffff #000000 0 1;
#X obj 514 402 hsl 128 15 0 1 0 0 \$0-Feedback empty Feedback -2 -8
0 12 #9f9f9f #ffffff #000000 0 1;
#X obj 514 440 hsl 128 15 200 20000 1 0 \$0-Eq empty LPF -2 -8 0 12
#9f9f9f #ffffff #000000 0 1;
#X obj 510 320 nbx 5 20 -1e+37 1e+37 0 0 \$0-BPM empty BPM 0 -8 0 12
#9f9f9f #ffffff #000000 0 256;
#X text 582 307 Fbk Delay;
#X obj 79 235 inlet~;
#X floatatom 350 270 5 0 0 0 - \$0-Eq - 0;
#X obj 314 105 line;
#X msg 314 76 \$1 6;
#X obj 213 137 sig~;
#X obj 510 225 loadbang;
#X msg 510 262 120;
#X obj 577 224 inlet;
#X obj 577 261 unpack f f f f;
#X msg 626 224 120 5 0.5 2000;
#X obj 626 195 loadbang;
#X obj 509 501 pack f f f f;
#X obj 512 535 outlet;
#X listbox 509 563 28 0 0 0 - - - 0;
#X obj 703 340 bng 15 250 50 0 empty empty empty 17 7 0 10 #fcfcfc
#000000 #000000;
#X obj 33 222 tgl 15 0 empty \$0-Onoff empty 17 7 0 10 #fcfcfc #000000
#000000 0 1;
#X obj 33 242 + 1;
#X obj 33 274 gate~ 2;
#X obj 80 598 clip~ -1 1;
#X obj 33 177 loadbang;
#X msg 33 199 0;
#X obj 596 331 tgl 20 0 \$0-Onoff empty On/Off 22 10 0 10 #9f9f9f #ffffff
#000000 0 1;
#X connect 0 0 48 0;
#X connect 1 0 22 0;
#X connect 1 0 23 0;
#X connect 3 0 2 0;
#X connect 3 0 0 0;
#X connect 5 0 6 0;
#X connect 6 0 9 0;
#X connect 9 0 3 1;
#X connect 10 0 11 1;
#X connect 11 0 5 0;
#X connect 12 0 10 0;
#X connect 15 0 6 1;
#X connect 16 0 33 0;
#X connect 17 0 18 0;
#X connect 18 0 20 0;
#X connect 19 0 34 0;
#X connect 20 0 19 0;
#X connect 21 0 17 0;
#X connect 25 0 41 1;
#X connect 25 0 44 0;
#X connect 26 0 41 2;
#X connect 26 0 44 0;
#X connect 27 0 41 3;
#X connect 27 0 44 0;
#X connect 28 0 41 0;
#X connect 30 0 47 1;
#X connect 31 0 9 1;
#X connect 32 0 12 0;
#X connect 33 0 32 0;
#X connect 34 0 11 0;
#X connect 35 0 36 0;
#X connect 36 0 28 0;
#X connect 37 0 38 0;
#X connect 38 0 28 0;
#X connect 38 1 25 0;
#X connect 38 2 26 0;
#X connect 38 3 27 0;
#X connect 39 0 38 0;
#X connect 40 0 39 0;
#X connect 41 0 42 0;
#X connect 41 0 43 0;
#X connect 44 0 41 0;
#X connect 45 0 46 0;
#X connect 46 0 47 0;
#X connect 47 0 0 0;
#X connect 47 1 3 0;
#X connect 48 0 1 0;
#X connect 49 0 50 0;
#X connect 50 0 45 0;
#X coords 0 -1 1 1 162 168 1 500 300;
