#N canvas -2 0 1920 997 8;
#X obj 27 128 looper;
#X obj 363 128 looper;
#X obj 813 129 looper;
#X obj 1394 129 looper;
#X msg 813 86 7 60 1;
#X msg 1394 90 1 100 1;
#X obj 94 11 bng 30 250 50 0 empty empty empty 17 7 0 10 #fcfcfc #000000
#000000;
#X obj 29 706 pan;
#X obj 363 803 pan;
#X obj 28 483 Chorus;
#X obj 226 485 metroBPM;
#X obj 29 755 reverb;
#X obj 362 502 FDelay;
#X obj 1610 695 4ChMixer;
#X obj 30 896 throw~ uno1;
#X obj 125 896 throw~ uno2;
#X obj 362 864 throw~ dos1;
#X obj 457 865 throw~ dos2;
#X obj 1609 658 catch~ uno1;
#X obj 1640 623 catch~ uno2;
#X obj 1674 593 catch~ dos1;
#X obj 1706 560 catch~ dos2;
#X obj 1611 916 dac~;
#X obj 363 723 crossfader_;
#X obj 536 504 FDelay;
#X obj 538 742 text define -k fdpreset;
#A set 120 5 0.5 2000 \; 1000 10 1 18000 \; 200 3 0.8 800 \;;
#X obj 691 482 text get fdpreset;
#X obj 691 462 hradio 15 1 0 8 empty empty empty 0 -8 0 10 #fcfcfc
#000000 #000000 0;
#X obj 517 481 text get fdpreset;
#X obj 517 461 hradio 15 1 0 8 empty empty empty 0 -8 0 10 #fcfcfc
#000000 #000000 0;
#X obj 814 438 Guitar_specdelay_;
#X obj 815 957 throw~ tres1;
#X obj 911 958 throw~ tres2;
#X obj 1736 660 catch~ tres1;
#X obj 1769 625 catch~ tres2;
#X obj 1394 439 combkarplus;
#X obj 1833 560 catch~ cuatro2;
#X obj 1800 595 catch~ cuatro1;
#X listbox 222 879 20 0 0 0 - - - 0;
#X obj 538 723 text define -k rvpreset;
#A set 400 100 -2 \;;
#X obj 222 716 hradio 15 1 0 8 empty empty empty 0 -8 0 10 #fcfcfc
#000000 #000000 0;
#X obj 222 737 text get rvpreset;
#X floatatom 285 573 5 0 0 0 - - - 0;
#X floatatom 286 602 5 0 0 0 - - - 0;
#X msg 363 84 2 80 2;
#X obj 226 558 random01;
#X obj 226 587 inverter01;
#X listbox 201 696 20 0 0 0 - - - 0;
#X obj 538 761 text define -k chpreset;
#A set 2 100 1 \;;
#X obj 201 437 hradio 15 1 0 8 empty empty empty 0 -8 0 10 #fcfcfc
#000000 #000000 0;
#X obj 201 458 text get chpreset;
#X listbox 517 687 20 0 0 0 - - - 0;
#X listbox 691 686 20 0 0 0 - - - 0;
#X obj 30 13 adc~;
#X obj 29 40 send~ inlet;
#X obj 320 104 receive~ inlet;
#X obj 656 104 receive~ inlet;
#X obj 1106 109 receive~ inlet;
#X obj 1686 106 receive~ inlet;
#X obj 94 41 s mbnag;
#X obj 735 726 metroBPM;
#X obj 734 779 random01;
#X obj 815 794 pan;
#X obj 815 829 reverb;
#X obj 1394 603 reverb;
#X obj 1395 555 pan;
#X obj 1395 737 throw~ cuatro1;
#X obj 1490 738 throw~ cuatro2;
#X obj 1553 439 metroBPM;
#X obj 1552 492 random01;
#X msg 27 89 16 80 4;
#N canvas 130 130 450 254 keycontrol 0;
#X obj 9 11 keyup;
#X obj 9 54 s mbnag1;
#X obj 108 54 s mbnag3;
#X obj 159 54 s mbnag4;
#X obj 60 54 s mbnag2;
#X floatatom 245 74 5 0 0 0 - - - 0;
#X obj 9 35 sel 106 107 108 241;
#X connect 0 0 5 0;
#X connect 0 0 6 0;
#X connect 6 0 1 0;
#X connect 6 1 4 0;
#X connect 6 2 2 0;
#X connect 6 3 3 0;
#X restore 139 42 pd keycontrol;
#X obj 813 67 r mbnag3;
#X obj 363 67 r mbnag2;
#X obj 27 70 r mbnag1;
#X obj 1394 72 r mbnag4;
#X obj 1552 529 line;
#X msg 1552 511 \$1 250;
#X obj 1261 136 random01;
#X obj 1261 74 metrobpm;
#X obj 1310 136 random01;
#X obj 1261 240 pack f f;
#X obj 1310 156 * 500;
#X obj 1261 176 - 2400;
#X obj 1261 156 * 4800;
#X msg 1261 196 \$1 100;
#X obj 1261 216 line;
#X msg 1310 177 \$1 100;
#X obj 1310 197 line;
#X connect 0 0 9 0;
#X connect 1 0 12 0;
#X connect 1 0 24 0;
#X connect 2 0 30 0;
#X connect 3 0 35 0;
#X connect 4 0 2 0;
#X connect 5 0 3 0;
#X connect 6 0 59 0;
#X connect 7 0 11 0;
#X connect 7 1 11 1;
#X connect 8 0 16 0;
#X connect 8 1 17 0;
#X connect 9 0 7 0;
#X connect 9 1 47 0;
#X connect 10 0 45 0;
#X connect 11 0 14 0;
#X connect 11 1 15 0;
#X connect 11 2 38 0;
#X connect 12 0 23 0;
#X connect 12 2 51 0;
#X connect 13 0 22 0;
#X connect 13 1 22 1;
#X connect 18 0 13 0;
#X connect 19 0 13 1;
#X connect 20 0 13 2;
#X connect 21 0 13 3;
#X connect 23 0 8 0;
#X connect 24 0 23 1;
#X connect 24 2 52 0;
#X connect 26 0 24 1;
#X connect 27 0 26 0;
#X connect 28 0 12 1;
#X connect 29 0 28 0;
#X connect 30 0 62 0;
#X connect 33 0 13 4;
#X connect 34 0 13 5;
#X connect 35 0 65 0;
#X connect 36 0 13 7;
#X connect 37 0 13 6;
#X connect 40 0 41 0;
#X connect 41 0 11 2;
#X connect 42 0 46 0;
#X connect 44 0 1 0;
#X connect 45 0 42 0;
#X connect 45 0 23 2;
#X connect 46 0 43 0;
#X connect 46 0 7 1;
#X connect 46 0 8 1;
#X connect 49 0 50 0;
#X connect 50 0 9 2;
#X connect 53 0 54 0;
#X connect 53 1 54 0;
#X connect 55 0 0 2;
#X connect 56 0 1 2;
#X connect 57 0 2 2;
#X connect 58 0 3 2;
#X connect 60 0 61 0;
#X connect 61 0 62 1;
#X connect 62 0 63 0;
#X connect 62 1 63 1;
#X connect 63 0 31 0;
#X connect 63 1 32 0;
#X connect 64 0 66 0;
#X connect 64 1 67 0;
#X connect 65 0 64 0;
#X connect 65 1 64 1;
#X connect 68 0 69 0;
#X connect 69 0 77 0;
#X connect 70 0 0 0;
#X connect 72 0 4 0;
#X connect 73 0 44 0;
#X connect 74 0 70 0;
#X connect 75 0 5 0;
#X connect 76 0 65 1;
#X connect 77 0 76 0;
#X connect 78 0 84 0;
#X connect 79 0 78 0;
#X connect 79 0 80 0;
#X connect 80 0 82 0;
#X connect 81 0 3 1;
#X connect 82 0 87 0;
#X connect 83 0 85 0;
#X connect 84 0 83 0;
#X connect 85 0 86 0;
#X connect 86 0 81 0;
#X connect 87 0 88 0;
#X connect 88 0 81 1;
