#N canvas 590 281 450 300 12;
#X msg 148 182 60000 \$1;
#X obj 148 206 /;
#X floatatom 148 254 5 0 0 0 - - - 0;
#X obj 148 230 4;
#X obj 107 284 metro;
#X obj 107 81 inlet;
#X obj 147 81 inlet;
#X obj 107 311 outlet;
#X obj 102 103 cnv 10 70 45 empty empty empty 20 12 0 14 #c6f7fb #404040
0;
#X obj 105 126 nbx 5 20 -1e+37 1e+37 0 0 empty empty empty 0 -8 0 12
#fcfcfc #000000 #000000 0 256;
#X obj 106 104 tgl 20 0 empty empty empty 17 7 0 10 #fcfcfc #000000
#000000 0 1;
#X text 127 104 BngBPM;
#X connect 0 0 1 0;
#X connect 1 0 3 0;
#X connect 2 0 4 1;
#X connect 3 0 2 0;
#X connect 4 0 7 0;
#X connect 5 0 10 0;
#X connect 6 0 9 0;
#X connect 9 0 0 0;
#X connect 10 0 4 0;
#X coords 0 -1 1 1 75 50 1 100 100;
