#N canvas 501 22 1419 1036 12;
#X obj 336 257 spectrograph~ 1024 1 1 300 140 100;
#X obj 336 209 loadbang;
#X msg 336 233 db 1 \, log 1;
#X obj 7 69 osc~ 440;
#X obj 257 132 tgl 15 0 empty empty empty 17 7 0 10 #fcfcfc #000000
#000000 0 1;
#X obj 257 152 metro 100;
#X obj 257 175 tabwrite~ \$0-scope;
#N canvas 0 22 450 278 (subpatch) 0;
#X array \$0-scope 441 float 0;
#X coords 0 1 440 -1 200 140 1;
#X restore 427 42 graph;
#X obj 116 339 dac~ 1 2;
#X obj 116 296 *~ 0.05;
#X obj 156 89 cos~;
#X text 164 66 Entrada: Audio;
#X obj 9 138 phasor~ 400;
#X obj 119 221 *~ 1;
#X text 193 90 <- waveshaper senoidal;
#X text 76 74 ==;
#X text 409 101 0;
#X text 400 168 -1;
#X text 405 31 1;
#X obj 9 161 *~ 2;
#X obj 9 184 -~ 1;
#X text 50 167 <- Normalizado;
#X obj 156 34 phasor~;
#X connect 1 0 2 0;
#X connect 2 0 0 0;
#X connect 4 0 5 0;
#X connect 5 0 6 0;
#X connect 9 0 8 0;
#X connect 9 0 8 1;
#X connect 12 0 19 0;
#X connect 13 0 6 0;
#X connect 13 0 0 0;
#X connect 13 0 9 0;
#X connect 19 0 20 0;
#X connect 22 0 10 0;
