#N canvas 0 22 1920 1036 12;
#X obj 436 309 loadbang;
#X msg 436 333 db 1 \, log 1;
#X obj 357 232 tgl 15 0 empty empty empty 17 7 0 10 #fcfcfc #000000
#000000 0 1;
#X obj 357 252 metro 100;
#X obj 357 275 tabwrite~ \$0-scope;
#N canvas 0 22 450 278 (subpatch) 0;
#X array \$0-scope 441 float 0;
#X coords 0 1 440 -1 200 140 1;
#X restore 627 142 graph;
#X obj 116 439 dac~ 1 2;
#X obj 116 396 *~ 0.05;
#X obj 119 321 *~ 1;
#X obj 436 356 spectrograph~ 1024 1 1 300 140 100;
#X obj 44 196 +~;
#X obj 104 156 /~ 2;
#X obj 174 156 /~ 3;
#X obj 244 156 /~ 4;
#X obj 314 156 /~ 5;
#X obj 384 156 /~ 6;
#X obj 454 156 /~ 7;
#X obj 524 156 /~ 8;
#X obj 44 219 /~ 3;
#X floatatom 79 6 5 0 0 0 - - - 0;
#X obj 79 28 mtof;
#X text 123 4 MIDI;
#X text 115 25 <- midi to frequency;
#X floatatom 79 51 5 0 0 0 - - - 0;
#X text 121 47 Hz;
#X obj 34 133 osc~;
#X obj 104 133 osc~;
#X obj 174 133 osc~;
#X obj 244 133 osc~;
#X obj 311 131 osc~;
#X obj 384 133 osc~;
#X obj 454 133 osc~;
#X obj 524 133 osc~;
#X obj 104 87 * 2;
#X floatatom 104 110 5 0 0 0 - - - 0;
#X floatatom 174 110 5 0 0 0 - - - 0;
#X floatatom 244 110 5 0 0 0 - - - 0;
#X floatatom 314 110 5 0 0 0 - - - 0;
#X floatatom 384 110 5 0 0 0 - - - 0;
#X floatatom 454 110 5 0 0 0 - - - 0;
#X floatatom 524 110 5 0 0 0 - - - 0;
#X obj 174 87 * 3;
#X obj 244 87 * 4;
#X obj 314 87 * 5;
#X obj 384 87 * 6;
#X obj 454 87 * 7;
#X obj 524 87 * 8;
#X connect 0 0 1 0;
#X connect 1 0 9 0;
#X connect 2 0 3 0;
#X connect 3 0 4 0;
#X connect 7 0 6 0;
#X connect 7 0 6 1;
#X connect 8 0 4 0;
#X connect 8 0 7 0;
#X connect 10 0 18 0;
#X connect 11 0 10 1;
#X connect 12 0 10 1;
#X connect 13 0 10 1;
#X connect 14 0 10 1;
#X connect 15 0 10 1;
#X connect 16 0 10 1;
#X connect 17 0 10 1;
#X connect 19 0 20 0;
#X connect 20 0 23 0;
#X connect 23 0 33 0;
#X connect 23 0 25 0;
#X connect 23 0 41 0;
#X connect 23 0 42 0;
#X connect 23 0 43 0;
#X connect 23 0 44 0;
#X connect 23 0 45 0;
#X connect 23 0 46 0;
#X connect 25 0 10 0;
#X connect 26 0 11 0;
#X connect 27 0 12 0;
#X connect 28 0 13 0;
#X connect 29 0 14 0;
#X connect 30 0 15 0;
#X connect 31 0 16 0;
#X connect 32 0 17 0;
#X connect 33 0 34 0;
#X connect 34 0 26 0;
#X connect 35 0 27 0;
#X connect 36 0 28 0;
#X connect 37 0 29 0;
#X connect 38 0 30 0;
#X connect 39 0 31 0;
#X connect 40 0 32 0;
#X connect 41 0 35 0;
#X connect 42 0 36 0;
#X connect 43 0 37 0;
#X connect 44 0 38 0;
#X connect 45 0 39 0;
#X connect 46 0 40 0;
