#N canvas 0 22 1920 1036 12;
#X obj 476 509 loadbang;
#X msg 476 533 db 1 \, log 1;
#X obj 514 338 tgl 15 0 empty empty empty 17 7 0 10 #fcfcfc #000000
#000000 0 1;
#X obj 514 358 metro 100;
#X obj 514 381 tabwrite~ \$0-scope;
#N canvas 0 22 450 278 (subpatch) 0;
#X array \$0-scope 441 float 0;
#X coords 0 1 440 -1 200 140 1;
#X restore 667 342 graph;
#X obj 116 639 dac~ 1 2;
#X obj 476 556 spectrograph~ 1024 1 1 300 140 100;
#X obj 94 345 osc~ 400;
#X obj 94 428 *~;
#X obj 504 230 bng 15 250 50 0 empty empty empty 17 7 0 10 #fcfcfc
#000000 #000000;
#X obj 504 273 line~;
#X text 545 272 <- envelope tipo Decay;
#X obj 202 307 bng 15 250 50 0 empty empty empty 17 7 0 10 #fcfcfc
#000000 #000000;
#X obj 202 430 vline~;
#X text 222 300 Note on;
#X obj 283 363 bng 15 250 50 0 empty empty empty 17 7 0 10 #fcfcfc
#000000 #000000;
#X text 303 356 Note off;
#X obj 323 276 sel 1 0;
#X obj 113 509 *~ 1;
#X obj 116 596 *~ 0.1;
#X obj 114 118 notein;
#X obj 114 171 poly 1 1;
#X floatatom 129 228 5 0 0 0 - - - 0;
#X obj 129 250 mtof;
#X floatatom 129 273 5 0 0 0 - - - 0;
#X obj 326 241 > 0;
#X floatatom 316 208 5 0 0 0 - - - 0;
#X msg 504 250 1 \, 0 10;
#X obj 202 453 pow~ 4;
#X msg 202 327 1 1 \, 0.7 100 1;
#X msg 283 383 0 5000;
#X text 249 452 <- curvear nuestros env. y que suenan mas naturales
;
#X connect 0 0 1 0;
#X connect 1 0 7 0;
#X connect 2 0 3 0;
#X connect 3 0 4 0;
#X connect 8 0 9 0;
#X connect 9 0 19 0;
#X connect 10 0 28 0;
#X connect 13 0 30 0;
#X connect 14 0 29 0;
#X connect 16 0 31 0;
#X connect 18 0 13 0;
#X connect 18 1 16 0;
#X connect 19 0 20 0;
#X connect 19 0 7 0;
#X connect 20 0 6 0;
#X connect 20 0 6 1;
#X connect 21 0 22 0;
#X connect 21 1 22 1;
#X connect 22 1 23 0;
#X connect 22 2 27 0;
#X connect 23 0 24 0;
#X connect 24 0 25 0;
#X connect 25 0 8 0;
#X connect 26 0 18 0;
#X connect 27 0 26 0;
#X connect 28 0 11 0;
#X connect 29 0 9 1;
#X connect 30 0 14 0;
#X connect 31 0 14 0;
