#N canvas 0 22 1920 1036 12;
#X obj 495 584 loadbang;
#X msg 495 608 db 1 \, log 1;
#X obj 416 507 tgl 15 0 empty empty empty 17 7 0 10 #fcfcfc #000000
#000000 0 1;
#X obj 416 527 metro 100;
#X obj 416 550 tabwrite~ \$0-scope;
#N canvas 0 22 450 278 (subpatch) 0;
#X array \$0-scope 441 float 0;
#X coords 0 1 440 -1 200 140 1;
#X restore 702 441 graph;
#X obj 236 639 dac~ 1 2;
#X obj 239 551 *~ 1;
#X obj 495 631 spectrograph~ 1024 1 1 300 140 100;
#X obj 225 356 /~ 2;
#X obj 294 356 /~ 3;
#X obj 434 356 /~ 5;
#X obj 574 356 /~ 7;
#X obj 644 356 /~ 8;
#X floatatom 199 206 5 0 0 0 - - - 0;
#X obj 199 228 mtof;
#X text 243 204 MIDI;
#X text 235 225 <- midi to frequency;
#X floatatom 199 251 5 0 0 0 - - - 0;
#X text 241 247 Hz;
#X obj 74 333 osc~;
#X obj 224 333 osc~;
#X obj 294 333 osc~;
#X obj 364 333 osc~;
#X obj 431 331 osc~;
#X obj 504 333 osc~;
#X obj 574 333 osc~;
#X obj 644 333 osc~;
#X floatatom 224 310 5 0 0 0 - - - 0;
#X floatatom 294 310 5 0 0 0 - - - 0;
#X floatatom 364 310 5 0 0 0 - - - 0;
#X floatatom 434 310 5 0 0 0 - - - 0;
#X floatatom 504 310 5 0 0 0 - - - 0;
#X floatatom 574 310 5 0 0 0 - - - 0;
#X floatatom 644 310 5 0 0 0 - - - 0;
#X obj 224 287 * 2.1;
#X obj 294 287 * 5;
#X obj 364 287 * 8;
#X obj 364 356 /~ 8;
#X obj 434 287 * 1.5;
#X obj 504 287 * 20;
#X obj 504 356 /~ 20;
#X obj 574 287 * 4.33;
#X obj 644 287 * 6;
#X obj 687 358 bng 15 250 50 0 empty empty empty 17 7 0 10 #fcfcfc
#000000 #000000;
#X obj 687 401 line~;
#X obj 401 64 notein;
#X floatatom 391 108 5 0 0 0 - - - 0;
#X floatatom 441 108 5 0 0 0 - - - 0;
#X text 352 106 MIDI;
#X text 482 106 Velocidad;
#X obj 391 130 poly 1 1;
#X obj 699 213 > 0;
#X obj 699 236 sel 1;
#X obj 74 477 *~;
#X obj 224 379 +~;
#X obj 364 379 +~;
#X obj 221 500 *~;
#X obj 364 442 *~;
#X obj 699 259 bng 15 250 50 0 empty empty empty 17 7 0 10 #fcfcfc
#000000 #000000;
#X obj 699 282 send \$0-trigger;
#X obj 686 334 r \$0-trigger;
#X msg 687 378 1 \, 0 50;
#X obj 268 415 bng 15 250 50 0 empty empty empty 17 7 0 10 #fcfcfc
#000000 #000000;
#X obj 268 458 line~;
#X obj 267 391 r \$0-trigger;
#X msg 268 435 1 \, 0 500;
#X obj 113 391 bng 15 250 50 0 empty empty empty 17 7 0 10 #fcfcfc
#000000 #000000;
#X obj 113 434 line~;
#X obj 112 367 r \$0-trigger;
#X msg 113 411 1 \, 0 5000;
#X obj 113 457 pow~ 4;
#X obj 268 481 pow~ 4;
#X obj 687 424 pow~ 4;
#X obj 174 537 +~;
#X obj 236 596 *~ 0.1;
#X connect 0 0 1 0;
#X connect 1 0 8 0;
#X connect 2 0 3 0;
#X connect 3 0 4 0;
#X connect 7 0 4 0;
#X connect 7 0 8 0;
#X connect 7 0 75 0;
#X connect 9 0 55 0;
#X connect 10 0 55 1;
#X connect 11 0 56 1;
#X connect 12 0 56 1;
#X connect 13 0 56 1;
#X connect 14 0 15 0;
#X connect 15 0 18 0;
#X connect 18 0 20 0;
#X connect 18 0 35 0;
#X connect 18 0 36 0;
#X connect 18 0 37 0;
#X connect 18 0 39 0;
#X connect 18 0 40 0;
#X connect 18 0 42 0;
#X connect 18 0 43 0;
#X connect 20 0 54 0;
#X connect 21 0 9 0;
#X connect 22 0 10 0;
#X connect 23 0 38 0;
#X connect 24 0 11 0;
#X connect 25 0 41 0;
#X connect 26 0 12 0;
#X connect 27 0 13 0;
#X connect 28 0 21 0;
#X connect 29 0 22 0;
#X connect 30 0 23 0;
#X connect 31 0 24 0;
#X connect 32 0 25 0;
#X connect 33 0 26 0;
#X connect 34 0 27 0;
#X connect 35 0 28 0;
#X connect 36 0 29 0;
#X connect 37 0 30 0;
#X connect 38 0 56 0;
#X connect 39 0 31 0;
#X connect 40 0 32 0;
#X connect 41 0 56 1;
#X connect 42 0 33 0;
#X connect 43 0 34 0;
#X connect 44 0 62 0;
#X connect 45 0 73 0;
#X connect 46 0 47 0;
#X connect 46 1 48 0;
#X connect 47 0 51 0;
#X connect 48 0 51 1;
#X connect 51 1 14 0;
#X connect 51 2 52 0;
#X connect 52 0 53 0;
#X connect 53 0 59 0;
#X connect 54 0 74 0;
#X connect 55 0 57 0;
#X connect 56 0 58 0;
#X connect 57 0 74 1;
#X connect 58 0 74 1;
#X connect 59 0 60 0;
#X connect 61 0 44 0;
#X connect 62 0 45 0;
#X connect 63 0 66 0;
#X connect 64 0 72 0;
#X connect 65 0 63 0;
#X connect 66 0 64 0;
#X connect 67 0 70 0;
#X connect 68 0 71 0;
#X connect 69 0 67 0;
#X connect 70 0 68 0;
#X connect 71 0 54 1;
#X connect 72 0 57 1;
#X connect 73 0 58 1;
#X connect 74 0 7 0;
#X connect 75 0 6 0;
#X connect 75 0 6 1;
