#N canvas 25 24 1920 1036 12;
#X obj 404 390 loadbang;
#X msg 404 414 db 1 \, log 1;
#X obj 325 313 tgl 15 0 empty empty empty 17 7 0 10 #fcfcfc #000000
#000000 0 1;
#X obj 325 333 metro 100;
#X obj 325 356 tabwrite~ \$0-scope;
#N canvas 0 22 450 278 (subpatch) 0;
#X array \$0-scope 441 float 0;
#X coords 0 1 440 -1 200 140 1;
#X restore 611 247 graph;
#X obj 145 445 dac~ 1 2;
#X obj 148 357 *~ 1;
#X obj 404 437 spectrograph~ 1024 1 1 300 140 100;
#X obj 145 402 *~ 0.1;
#X obj 176 190 cos~;
#X obj 236 190 cos~;
#X obj 296 190 cos~;
#X obj 366 190 cos~;
#X obj 236 139 *~ 2;
#X obj 296 139 *~ 3;
#X obj 366 139 *~ 4;
#X obj 236 213 /~ 2;
#X obj 296 213 /~ 3;
#X obj 366 213 /~ 4;
#X obj 176 243 +~;
#X obj 176 162 -~ 0.25;
#X obj 236 162 -~ 0.25;
#X obj 296 162 -~ 0.25;
#X obj 366 162 -~ 0.25;
#X obj 177 75 phasor~ 200;
#X obj 176 139 *~ 1;
#X text 439 109 Hacer armonicos con phasor y cos~ cuesta menos CPU
y por lo tanto es apto para diseño de instrumentos aditivos polifonicos
;
#X connect 0 0 1 0;
#X connect 1 0 8 0;
#X connect 2 0 3 0;
#X connect 3 0 4 0;
#X connect 7 0 4 0;
#X connect 7 0 8 0;
#X connect 7 0 9 0;
#X connect 9 0 6 0;
#X connect 9 0 6 1;
#X connect 10 0 20 0;
#X connect 11 0 17 0;
#X connect 12 0 18 0;
#X connect 13 0 19 0;
#X connect 14 0 22 0;
#X connect 15 0 23 0;
#X connect 16 0 24 0;
#X connect 17 0 20 1;
#X connect 18 0 20 1;
#X connect 19 0 20 1;
#X connect 21 0 10 0;
#X connect 22 0 11 0;
#X connect 23 0 12 0;
#X connect 24 0 13 0;
#X connect 25 0 14 0;
#X connect 25 0 16 0;
#X connect 25 0 15 0;
#X connect 25 0 26 0;
#X connect 26 0 21 0;
