#N canvas 0 22 1920 1036 12;
#X obj 162 51 unpack f f;
#X floatatom 530 84 5 0 0 0 - - - 0;
#X text 571 82 Velocidad;
#X obj 530 106 > 0;
#X obj 192 475 outlet~;
#X obj 162 23 inlet;
#X obj 184 435 +~;
#X obj 530 129 sel 1;
#X obj 530 152 s \$0-trigger;
#X floatatom 162 74 5 0 0 0 - - - 0;
#X obj 162 232 osc~;
#X obj 139 324 *~;
#X obj 232 232 osc~;
#X obj 282 232 osc~;
#X obj 232 295 +~;
#X obj 322 232 osc~;
#X obj 372 232 osc~;
#X obj 232 328 *~;
#X obj 232 265 *~ 0.5;
#X obj 267 379 *~ 0.2;
#X obj 375 257 r \$0-trigger;
#X msg 375 280 1 \, 0 160;
#X obj 375 303 line~;
#X obj 375 326 pow~ 4;
#X obj 64 226 r \$0-trigger;
#X obj 64 272 line~;
#X obj 64 295 pow~ 4;
#X msg 64 249 1 \, 0 1300;
#X obj 580 268 osc~;
#X obj 557 360 *~;
#X obj 482 262 r \$0-trigger;
#X obj 482 308 line~;
#X obj 482 331 pow~ 4;
#X obj 557 383 *~ 0.1;
#X obj 162 136 mtof~;
#X obj 162 209 *~ 1;
#X obj 232 209 *~ 2;
#X obj 282 209 *~ 3;
#X obj 322 209 *~ 3.5;
#X obj 372 209 *~ 4;
#X obj 580 245 *~ 5;
#X obj 162 96 sig~;
#X obj 259 111 osc~ 6;
#X obj 259 134 *~ 0.15;
#X msg 482 285 1 \, 0 500;
#X obj 645 347 osc~ 4;
#X obj 645 370 +~ 1;
#X obj 645 393 /~ 2;
#X obj 557 406 *~;
#X connect 0 0 9 0;
#X connect 0 1 1 0;
#X connect 1 0 3 0;
#X connect 3 0 7 0;
#X connect 5 0 0 0;
#X connect 6 0 4 0;
#X connect 7 0 8 0;
#X connect 9 0 41 0;
#X connect 10 0 11 1;
#X connect 11 0 6 0;
#X connect 12 0 18 0;
#X connect 13 0 18 0;
#X connect 14 0 17 0;
#X connect 15 0 18 0;
#X connect 16 0 14 1;
#X connect 17 0 19 0;
#X connect 18 0 14 0;
#X connect 19 0 48 0;
#X connect 20 0 21 0;
#X connect 21 0 22 0;
#X connect 22 0 23 0;
#X connect 23 0 17 1;
#X connect 24 0 27 0;
#X connect 25 0 26 0;
#X connect 26 0 11 0;
#X connect 27 0 25 0;
#X connect 28 0 29 1;
#X connect 29 0 33 0;
#X connect 30 0 44 0;
#X connect 31 0 32 0;
#X connect 32 0 29 0;
#X connect 33 0 48 0;
#X connect 34 0 35 0;
#X connect 34 0 36 0;
#X connect 34 0 37 0;
#X connect 34 0 38 0;
#X connect 34 0 39 0;
#X connect 34 0 40 0;
#X connect 35 0 10 0;
#X connect 36 0 12 0;
#X connect 37 0 13 0;
#X connect 38 0 15 0;
#X connect 39 0 16 0;
#X connect 40 0 28 0;
#X connect 41 0 34 0;
#X connect 42 0 43 0;
#X connect 44 0 31 0;
#X connect 45 0 46 0;
#X connect 46 0 47 0;
#X connect 47 0 48 1;
#X connect 48 0 6 1;
