#N canvas 9 27 1920 1036 10;
#X obj 332 51 hradio 20 1 1 4 \$0-wav-1 empty WAV-1 0 -8 0 16 #ffe3c6
#000000 #ffffff 0;
#X obj 472 51 hradio 20 1 1 4 \$0-wav-2 empty WAV-2 0 -8 0 16 #ffe3c6
#000000 #ffffff 1;
#X obj 334 96 hsl 128 15 0 1 0 1 \$0-lvl-1 empty lvl-1 -2 -8 0 16 #ffe3c6
#000000 #ffffff 12300 1;
#X obj 474 144 hsl 128 15 0 1 0 1 \$0-lvl-2 empty lvl-2 -2 -8 0 16
#ffe3c6 #000000 #ffffff 12750 1;
#N canvas 0 22 1920 1036 vcos 0;
#X obj 150 181 os.triangle~;
#X obj 150 262 *~;
#X obj 190 262 *~;
#X obj 230 262 *~;
#X obj 161 233 == 0;
#X obj 201 233 == 1;
#X obj 241 233 == 2;
#X obj 286 231 noise~;
#X obj 286 262 *~;
#X obj 331 233 == 3;
#X obj 150 313 +~;
#X obj 280 161 r \$0-wav-1;
#X floatatom 280 182 5 0 0 0 - - - 0;
#X obj 280 202 t f f f f;
#X obj 450 180 os.triangle~;
#X obj 450 262 *~;
#X obj 490 262 *~;
#X obj 530 262 *~;
#X obj 461 233 == 0;
#X obj 501 233 == 1;
#X obj 541 233 == 2;
#X obj 589 286 *~;
#X obj 631 233 == 3;
#X obj 450 313 +~;
#X floatatom 580 182 5 0 0 0 - - - 0;
#X obj 580 202 t f f f f;
#X obj 185 155 sig~ 0.5;
#X obj 580 161 r \$0-wav-2;
#X obj 589 256 *~;
#X obj 150 384 *~;
#X obj 225 326 r \$0-lvl-1;
#X obj 225 347 pack f 20;
#X obj 225 368 line~;
#X obj 450 384 *~;
#X obj 525 347 pack f 20;
#X obj 525 368 line~;
#X obj 525 326 r \$0-lvl-2;
#X obj 150 415 +~;
#X obj 149 467 outlet~;
#X obj 485 156 sig~ 0.5;
#X obj 151 73 inlet~;
#X obj 151 124 mtof~;
#X obj 449 99 +~;
#X obj 449 120 mtof~;
#X obj 464 31 r \$0-tune-2;
#X obj 464 52 pack f 20;
#X obj 464 73 line~;
#X text 148 50 (I1) Nota MIDI;
#X obj 150 436 /~ 2;
#X connect 0 0 1 0;
#X connect 0 1 2 0;
#X connect 0 2 3 0;
#X connect 1 0 10 0;
#X connect 2 0 10 1;
#X connect 3 0 10 1;
#X connect 4 0 1 1;
#X connect 5 0 2 1;
#X connect 6 0 3 1;
#X connect 7 0 8 0;
#X connect 8 0 10 1;
#X connect 9 0 8 1;
#X connect 10 0 28 0;
#X connect 10 0 29 0;
#X connect 11 0 12 0;
#X connect 12 0 13 0;
#X connect 13 0 4 0;
#X connect 13 1 5 0;
#X connect 13 2 6 0;
#X connect 13 3 9 0;
#X connect 14 0 15 0;
#X connect 14 1 16 0;
#X connect 14 1 28 1;
#X connect 14 2 17 0;
#X connect 15 0 23 0;
#X connect 16 0 23 1;
#X connect 17 0 23 1;
#X connect 18 0 15 1;
#X connect 19 0 16 1;
#X connect 20 0 17 1;
#X connect 21 0 23 1;
#X connect 22 0 21 1;
#X connect 23 0 33 0;
#X connect 24 0 25 0;
#X connect 25 0 18 0;
#X connect 25 1 19 0;
#X connect 25 2 20 0;
#X connect 25 3 22 0;
#X connect 26 0 0 1;
#X connect 27 0 24 0;
#X connect 28 0 21 0;
#X connect 29 0 37 0;
#X connect 30 0 31 0;
#X connect 31 0 32 0;
#X connect 32 0 29 1;
#X connect 33 0 37 1;
#X connect 34 0 35 0;
#X connect 35 0 33 1;
#X connect 36 0 34 0;
#X connect 37 0 48 0;
#X connect 39 0 14 1;
#X connect 40 0 41 0;
#X connect 40 0 42 0;
#X connect 41 0 0 0;
#X connect 42 0 43 0;
#X connect 43 0 14 0;
#X connect 44 0 45 0;
#X connect 45 0 46 0;
#X connect 46 0 42 1;
#X connect 48 0 38 0;
#X restore 56 228 pd vcos;
#X obj 66 21 notein;
#X obj 66 52 poly 1 1;
#X obj 112 74 > 0;
#X obj 112 95 s \$0-gate;
#X obj 774 64 hsl 128 15 20 14000 1 1 \$0-cutoff empty cutoff -2 -8
0 16 #ffe3c6 #000000 #ffffff 7050 1;
#X obj 774 104 hsl 128 15 1 7 1 1 \$0-peak empty peak -2 -8 0 16 #ffe3c6
#000000 #ffffff 11450 1;
#X obj 200 453 hip~ 3;
#X obj 200 474 clip~ -1 1;
#X obj 200 495 /~ 2;
#X obj 200 526 dac~ 1 2;
#X obj 566 386 tgl 15 0 empty empty empty 17 7 0 10 #fcfcfc #000000
#000000 0 1;
#X obj 566 406 metro 100;
#X obj 566 427 tabwrite~ \$0-scope;
#N canvas 0 22 450 278 (subpatch) 0;
#X array \$0-scope 441 float 0;
#X coords 0 1 440 -1 200 140 1;
#X restore 678 198 graph;
#X obj 474 94 hsl 128 15 -24 24 0 1 \$0-tune-2 empty tune-2 -2 -8 0
16 #ffe3c6 #000000 #ffffff 6400 1;
#X obj 192 393 *~;
#X obj 220 324 bng 16 250 50 0 empty empty empty 17 7 0 10 #fcfcfc
#000000 #000000;
#X obj 250 324 bng 16 250 50 0 empty empty empty 17 7 0 10 #fcfcfc
#000000 #000000;
#X obj 220 298 sel 1 0;
#X obj 279 184 vsl 17 127 1 1000 1 1 empty empty ATTACK 0 -9 0 10 #fcfcfc
#000000 #000000 5500 1;
#X floatatom 279 319 0 0 0 0 - - - 0;
#X obj 329 184 vsl 17 127 0.01 1 1 1 empty empty PEAK 0 -9 0 10 #fcfcfc
#000000 #000000 12650 1;
#X floatatom 329 319 0 0 0 0 - - - 0;
#X obj 389 184 vsl 17 127 1 2000 1 1 empty empty DECAY 0 -9 0 10 #fcfcfc
#000000 #000000 11900 1;
#X floatatom 389 319 0 0 0 0 - - - 0;
#X obj 439 184 vsl 17 127 0.01 1 1 1 empty empty SUSTAIN 0 -9 0 10
#fcfcfc #000000 #000000 7000 1;
#X floatatom 439 319 0 0 0 0 - - - 0;
#X obj 499 184 vsl 17 127 1 1000 1 1 empty empty RELEASE 0 -9 0 10
#fcfcfc #000000 #000000 9550 1;
#X floatatom 499 319 0 0 0 0 - - - 0;
#X obj 549 184 vsl 17 127 -3 3 0 1 empty empty CURVE 0 -9 0 10 #fcfcfc
#000000 #000000 0 1;
#X floatatom 549 319 0 0 0 0 - - - 0;
#X obj 220 345 en.adsr~ 1000 1 1000 0.5 1000 -3;
#X obj 220 277 r \$0-gate;
#X obj 624 64 hsl 128 15 20 14000 1 1 \$0-cutoff-h empty cutoff-h -2
-8 0 16 #ffe3c6 #000000 #ffffff 0 1;
#X obj 624 104 hsl 128 15 1 7 1 1 \$0-peak-h empty peak-h -2 -8 0 16
#ffe3c6 #000000 #ffffff 0 1;
#N canvas 0 22 1920 1036 filtros 0;
#X obj 289 438 fi.lowpass~;
#X obj 589 306 r \$0-peak;
#X obj 589 327 pack f 20;
#X obj 589 348 line~;
#X obj 298 232 pack f 20;
#X obj 298 253 line~;
#X obj 298 211 r \$0-cutoff;
#X obj 130 274 pack f 20;
#X obj 130 295 line~;
#X obj 75 75 pack f 20;
#X obj 75 96 line~;
#X obj 58 343 fi.highpass~;
#X obj 289 459 outlet~;
#X obj 30 146 inlet~;
#X obj 75 54 r \$0-cutoff-h;
#X obj 130 253 r \$0-peak-h;
#X obj 417 140 r~ \$0-env;
#X obj 457 207 pack f 20;
#X obj 457 228 line~;
#X obj 457 186 r \$0-env-amt;
#X text 455 165 ENVELOPE AMOUNT;
#X obj 417 251 *~;
#X obj 298 344 +~;
#X text 416 117 ENVELOPE SIGNAL;
#X obj 185 74 r~ \$0-env;
#X obj 225 141 pack f 20;
#X obj 225 162 line~;
#X text 223 99 ENVELOPE AMOUNT;
#X obj 185 185 *~;
#X text 184 51 ENVELOPE SIGNAL;
#X obj 225 120 r \$0-env-amt-h;
#X obj 91 217 +~;
#X connect 0 0 12 0;
#X connect 1 0 2 0;
#X connect 2 0 3 0;
#X connect 3 0 0 2;
#X connect 4 0 5 0;
#X connect 5 0 22 0;
#X connect 6 0 4 0;
#X connect 7 0 8 0;
#X connect 8 0 11 2;
#X connect 9 0 10 0;
#X connect 10 0 31 0;
#X connect 11 0 0 0;
#X connect 13 0 11 0;
#X connect 14 0 9 0;
#X connect 15 0 7 0;
#X connect 16 0 21 0;
#X connect 17 0 18 0;
#X connect 18 0 21 1;
#X connect 19 0 17 0;
#X connect 21 0 22 1;
#X connect 22 0 0 1;
#X connect 24 0 28 0;
#X connect 25 0 26 0;
#X connect 26 0 28 1;
#X connect 28 0 31 1;
#X connect 30 0 25 0;
#X connect 31 0 11 1;
#X restore 54 269 pd filtros;
#X obj 250 376 s~ \$0-env;
#X obj 624 144 hsl 128 15 20 14000 1 1 \$0-env-amt-h empty env-amt-h
-2 -8 0 16 #ffe3c6 #000000 #ffffff 0 1;
#X obj 774 144 hsl 128 15 20 14000 1 1 \$0-env-amt empty env-amt -2
-8 0 16 #ffe3c6 #000000 #ffffff 8600 1;
#X obj 200 432 /~ 4;
#X obj 95 167 line~;
#X obj 95 146 pack f 20;
#X connect 4 0 40 0;
#X connect 5 0 6 0;
#X connect 5 1 6 1;
#X connect 6 1 46 0;
#X connect 6 2 7 0;
#X connect 7 0 8 0;
#X connect 11 0 12 0;
#X connect 12 0 13 0;
#X connect 13 0 14 0;
#X connect 13 0 14 1;
#X connect 15 0 16 0;
#X connect 16 0 17 0;
#X connect 20 0 17 0;
#X connect 20 0 44 0;
#X connect 21 0 36 0;
#X connect 22 0 36 1;
#X connect 23 0 21 0;
#X connect 23 1 22 0;
#X connect 24 0 25 0;
#X connect 25 0 36 2;
#X connect 26 0 27 0;
#X connect 27 0 36 3;
#X connect 28 0 29 0;
#X connect 29 0 36 4;
#X connect 30 0 31 0;
#X connect 31 0 36 5;
#X connect 32 0 33 0;
#X connect 33 0 36 6;
#X connect 34 0 35 0;
#X connect 35 0 36 7;
#X connect 36 0 20 1;
#X connect 36 0 41 0;
#X connect 37 0 23 0;
#X connect 40 0 20 0;
#X connect 44 0 11 0;
#X connect 45 0 4 0;
#X connect 46 0 45 0;
