#N canvas 0 22 1920 1036 12;
#X obj 304 654 hip~ 3;
#X obj 304 678 clip~ -1 1;
#X obj 304 726 dac~ 1 2;
#X obj 485 540 loadbang;
#X obj 485 563 tgl 18 0 empty empty empty 17 7 0 10 #fcfcfc #000000
#000000 0 1;
#X obj 485 586 metro 100;
#X obj 485 610 tabwrite~ \$0-scope;
#N canvas 0 22 450 278 (subpatch) 0;
#X array \$0-scope 441 float 0;
#X coords 0 1 440 -1 200 140 1;
#X restore 984 470 graph;
#X obj 283 39 cnv 7 7 140 empty empty Allpass\\\ Delay\\\ Vanilla 12
8 0 16 #faff00 #faff00 0;
#X obj 304 591 *~ 1;
#N canvas 0 22 1920 1036 allpass.rev~ 0;
#X obj 12 31 inlet~;
#X obj 12 222 +~;
#X obj 71 179 *~;
#X obj 342 51 inlet;
#X obj 372 226 * -1;
#X obj 247 262 *~;
#X obj 232 294 +~;
#X obj 232 326 outlet~;
#X text 12 11 (I1) Audio Input;
#X text 232 346 (O1) Audio Output;
#X text 342 31 (I3) Allpass Gain;
#X text 206 12 (I2) Delay Time;
#X obj 342 85 t f f;
#X obj 206 32 inlet~;
#X obj 212 144 delread4~ \$0-ap;
#X obj 11 287 delwrite~ \$0-ap 1000;
#X connect 0 0 1 0;
#X connect 1 0 5 0;
#X connect 1 0 15 0;
#X connect 2 0 1 1;
#X connect 3 0 12 0;
#X connect 4 0 5 1;
#X connect 5 0 6 1;
#X connect 6 0 7 0;
#X connect 12 0 2 0;
#X connect 12 1 4 0;
#X connect 13 0 14 0;
#X connect 14 0 6 0;
#X connect 14 0 2 1;
#X restore 327 254 pd allpass.rev~;
#X obj 377 161 nbx 5 19 -1e+37 1e+37 0 0 empty empty Tiempo\\\ de\\\ Delay\\\ (ms)
0 -8 0 12 #faff00 #000000 #000000 0 256;
#X obj 428 224 nbx 5 19 -1 1 0 1 empty empty Coeficiente\\\ de\\\ Retroalimentacion
0 -8 0 12 #faff00 #000000 #000000 0.45 256;
#X obj 332 67 bng 15 250 50 0 empty empty empty 17 7 0 10 #fcfcfc #000000
#000000;
#X msg 332 87 1 \, 0 50;
#X obj 332 110 line~;
#X obj 332 133 *~;
#X obj 439 96 noise~;
#X obj 302 552 catch~ \$0-output;
#X obj 329 331 throw~ \$0-output;
#X msg 526 87 open ./guitar.wav \, start;
#X obj 526 110 readsf~;
#X obj 803 39 cnv 7 7 140 empty empty Algorithmic\ Reverb 12 8 0 16
#faff00 #faff00 0;
#X obj 852 67 bng 15 250 50 0 empty empty empty 17 7 0 10 #fcfcfc #000000
#000000;
#X msg 852 87 1 \, 0 50;
#X obj 852 110 line~;
#X obj 852 133 *~;
#X obj 959 96 noise~;
#X obj 818 494 throw~ \$0-output;
#X msg 1046 87 open ./guitar.wav \, start;
#X obj 1046 110 readsf~;
#X obj 503 277 else/allpass.rev~;
#X obj 941 285 allpass.del~ 36 -0.8;
#X obj 941 308 allpass.del~ 44 0.87;
#X obj 941 331 allpass.del~ 25 0.68;
#X obj 842 383 +~;
#X obj 892 419 delwrite~ \$0-delay 8000;
#X obj 940 233 lop~ 6000;
#X obj 940 261 hip~ 100;
#X obj 941 361 *~ 0.9;
#X text 1092 306 <- Difusion network;
#X obj 304 702 /~ 4;
#X obj 304 630 /~ 2;
#X obj 940 205 delread~ \$0-delay 50;
#X connect 0 0 1 0;
#X connect 1 0 41 0;
#X connect 3 0 4 0;
#X connect 4 0 5 0;
#X connect 5 0 6 0;
#X connect 9 0 6 0;
#X connect 9 0 42 0;
#X connect 10 0 19 0;
#X connect 11 0 10 1;
#X connect 12 0 10 2;
#X connect 13 0 14 0;
#X connect 14 0 15 0;
#X connect 15 0 16 0;
#X connect 16 0 10 0;
#X connect 17 0 16 1;
#X connect 18 0 9 0;
#X connect 20 0 21 0;
#X connect 23 0 24 0;
#X connect 24 0 25 0;
#X connect 25 0 26 0;
#X connect 26 0 35 0;
#X connect 27 0 26 1;
#X connect 29 0 30 0;
#X connect 32 0 33 0;
#X connect 33 0 34 0;
#X connect 34 0 39 0;
#X connect 35 0 36 0;
#X connect 35 0 28 0;
#X connect 37 0 38 0;
#X connect 38 0 32 0;
#X connect 39 0 35 1;
#X connect 41 0 2 0;
#X connect 41 0 2 1;
#X connect 42 0 0 0;
#X connect 43 0 37 0;
