#N canvas 1176 88 171 114 12;
#X obj 11 12 tgl 40 1 mT empty empty 17 7 0 10 #404040 #ffffff #000000
1 1;
#X obj 14 63 hsl 128 20 0.005 0.5 1 1 mV empty empty -2 -8 0 7 #404040
#ffffff #000000 11000 1;
#X obj 72 17 nbx 3 30 1 300 0 1 mB empty empty 0 -8 0 20 #404040 #ffffff
#000000 56 256;
#N canvas 947 428 246 406 metro 0;
#X obj 5 126 metro;
#X obj 5 282 *~;
#X obj 5 339 dac~;
#X obj 83 203 line~;
#X obj 5 312 *~;
#X obj 160 28 t b f;
#X msg 160 54 60000;
#X obj 160 81 /;
#X floatatom 160 108 5 0 0 0 - - - 0;
#X obj 82 227 r mV;
#X obj 160 5 r mB;
#X obj 5 100 r mT;
#X msg 137 173 0 20;
#X obj 137 145 del 40;
#X msg 5 157 523.25;
#X obj 82 273 line~;
#X msg 82 250 \$1 10;
#X obj 5 18 loadbang;
#X msg 5 42 \; pd dsp 1;
#X obj 5 187 phasor~;
#X obj 6 217 *~ 2;
#X obj 6 241 -~ 1;
#X msg 83 174 1;
#X connect 0 0 14 0;
#X connect 0 0 22 0;
#X connect 0 0 13 0;
#X connect 1 0 4 0;
#X connect 3 0 1 1;
#X connect 4 0 2 0;
#X connect 4 0 2 1;
#X connect 5 0 6 0;
#X connect 5 1 7 1;
#X connect 6 0 7 0;
#X connect 7 0 8 0;
#X connect 8 0 0 1;
#X connect 9 0 16 0;
#X connect 10 0 5 0;
#X connect 11 0 0 0;
#X connect 12 0 3 0;
#X connect 13 0 12 0;
#X connect 14 0 19 0;
#X connect 15 0 4 1;
#X connect 16 0 15 0;
#X connect 17 0 18 0;
#X connect 19 0 20 0;
#X connect 20 0 21 0;
#X connect 21 0 1 0;
#X connect 22 0 3 0;
#X restore 172 65 pd metro;
