#N canvas 484 246 1280 637 12;
#X obj 202 417 loadbang;
#X msg 202 441 db 1 \, log 1;
#X obj 201 334 tgl 15 0 empty empty empty 17 7 0 10 #fcfcfc #000000
#000000 0 1;
#X obj 201 354 metro 100;
#X obj 201 377 tabwrite~ \$0-scope;
#N canvas 0 22 450 278 (subpatch) 0;
#X array \$0-scope 441 float 0;
#X coords 0 1 440 -1 200 140 1;
#X restore 528 373 graph;
#X obj 53 446 dac~ 1 2;
#X obj 202 471 spectrograph~ 1024 1 1 300 140 100;
#X obj 53 15 notein;
#X floatatom 53 59 5 0 0 0 - - - 0;
#X text 144 59 Velocidad;
#X text 4 58 Nota;
#X text 127 90 Voz \, Nota \, Velocidad;
#X obj 53 113 pack f f f;
#X obj 324 30 vsl 15 128 0 1 0 0 ha-1 ha-1 ha-1 0 -9 0 10 #fcfcfc #000000
#000000 0 1;
#X obj 364 30 vsl 15 128 0 1 0 0 ha-2 ha-2 ha-2 0 -9 0 10 #fcfcfc #000000
#000000 0 1;
#X obj 404 30 vsl 15 128 0 1 0 0 ha-3 ha-3 ha-3 0 -9 0 10 #fcfcfc #000000
#000000 0 1;
#X obj 53 146 route 1 2 3 4 5 6;
#X obj 446 30 vsl 15 128 0 1 0 0 ha-4 ha-4 ha-4 0 -9 0 10 #fcfcfc #000000
#000000 0 1;
#X obj 486 30 vsl 15 128 0 1 0 0 ha-5 empty ha-5 0 -9 0 10 #fcfcfc
#000000 #000000 0 1;
#X obj 526 30 vsl 15 128 0 1 0 0 ha-6 empty ha-6 0 -9 0 10 #fcfcfc
#000000 #000000 0 1;
#X obj 571 32 vsl 15 128 0 1 0 0 ha-7 empty ha-7 0 -9 0 10 #fcfcfc
#000000 #000000 0 1;
#X obj 611 32 vsl 15 128 0 1 0 0 ha-8 empty ha-8 0 -9 0 10 #fcfcfc
#000000 #000000 0 1;
#X obj 201 307 loadbang;
#X msg 273 331 \; pd dsp 1;
#X obj 685 81 vsl 15 128 5 1000 0 1 at/dc empty at/dc 0 -9 0 10 #fcfcfc
#000000 #000000 0 1;
#X obj 466 275 osc~ 4;
#X obj 466 298 +~ 1;
#X obj 466 321 /~ 2;
#X floatatom 466 250 5 0 0 0 - - - 0;
#X obj 466 344 *~;
#X obj 530 190 vsl 15 128 0 1 0 0 empty empty Depth 0 -9 0 10 #fcfcfc
#000000 #000000 0 1;
#X floatatom 530 326 5 0 0 0 - - - 0;
#X obj 407 321 sig~ 1;
#X obj 407 362 -~;
#X obj 583 190 vsl 15 128 0 10 0 0 empty empty Rate 0 -9 0 10 #fcfcfc
#000000 #000000 0 1;
#X obj 53 312 *~;
#X obj 406 390 s~ T;
#X obj 71 289 r~ T;
#X obj 53 90 poly 6 1;
#X obj 109 16 r note;
#X obj 157 16 r vel;
#X floatatom 106 61 5 0 0 0 - - - 0;
#X obj 53 263 /~ 6;
#X obj 801 20 ctlin;
#X floatatom 748 180 5 0 0 0 - - ha-1 0;
#X obj 748 81 route 74 71 91 93;
#X obj 748 55 pack f f;
#X obj 748 106 scale 0 127 0 1;
#X obj 765 129 scale 0 127 0 1;
#X obj 787 153 scale 0 127 0 1;
#X obj 807 177 scale 0 127 0 1;
#X floatatom 765 204 5 0 0 0 - - ha-2 0;
#X floatatom 787 231 5 0 0 0 - - ha-3 0;
#X floatatom 807 255 5 0 0 0 - - ha-4 0;
#X obj 887 46 t b f;
#N canvas 26 26 840 634 voz-organo 0;
#X obj 162 51 unpack f f;
#X floatatom 82 94 5 0 0 0 - - - 0;
#X text 43 147 Nota;
#X obj 250 550 *~;
#X obj 250 577 outlet~;
#X obj 162 23 inlet;
#X obj 83 454 +~;
#X obj 207 420 *~;
#X obj 273 430 *~;
#X obj 339 430 *~;
#X obj 225 305 r ha-1;
#X obj 291 305 r ha-2;
#X obj 357 305 r ha-3;
#X msg 225 357 \$1 20;
#X obj 225 380 line~;
#X msg 291 357 \$1 20;
#X obj 291 380 line~;
#X msg 357 357 \$1 20;
#X obj 357 380 line~;
#X obj 82 116 sig~;
#X obj 82 149 mtof~;
#X obj 208 258 *~ 0.5;
#X obj 340 258 *~ 2;
#X obj 406 431 *~;
#X msg 424 358 \$1 20;
#X obj 424 381 line~;
#X obj 475 432 *~;
#X msg 493 359 \$1 20;
#X obj 493 382 line~;
#X obj 407 259 *~ 3;
#X obj 476 260 *~ 4;
#X obj 548 431 *~;
#X msg 566 358 \$1 20;
#X obj 566 381 line~;
#X obj 617 432 *~;
#X msg 635 359 \$1 20;
#X obj 635 382 line~;
#X obj 549 259 *~ 5;
#X obj 618 260 *~ 6;
#X obj 687 432 *~;
#X msg 705 359 \$1 20;
#X obj 705 382 line~;
#X obj 688 260 *~ 8;
#X obj 424 306 r ha-4;
#X obj 493 307 r ha-5;
#X obj 566 306 r ha-6;
#X obj 635 307 r ha-7;
#X obj 705 307 r ha-8;
#X obj 267 522 line~;
#X obj 229 185 pack \$1 \$2;
#X obj 304 132 r at/dc;
#X obj 705 334 pow 4;
#X obj 225 329 pow 4;
#X obj 291 329 pow 4;
#X obj 357 329 pow 4;
#X obj 424 330 pow 4;
#X obj 493 332 pow 4;
#X obj 566 330 pow 4;
#X obj 635 331 pow 4;
#X obj 229 210 s \$0v;
#X obj 267 498 r \$0v;
#X obj 208 281 cos~;
#X obj 274 281 cos~;
#X obj 340 281 cos~;
#X obj 407 282 cos~;
#X obj 476 283 cos~;
#X obj 549 282 cos~;
#X obj 618 283 cos~;
#X obj 688 283 cos~;
#X obj 82 176 phasor~;
#X obj 82 201 *~ 1;
#X obj 82 229 -~ 0.25;
#X obj 83 259 cos~;
#X floatatom 276 58 5 0 0 0 - - - 0;
#X obj 212 109 scale 0 127 0 1;
#X floatatom 235 159 5 0 0 0 - - - 0;
#X obj 274 258 *~ 1.5;
#X connect 0 0 1 0;
#X connect 0 1 73 0;
#X connect 0 1 74 0;
#X connect 1 0 19 0;
#X connect 3 0 4 0;
#X connect 5 0 0 0;
#X connect 6 0 3 0;
#X connect 7 0 6 1;
#X connect 8 0 6 1;
#X connect 9 0 6 1;
#X connect 10 0 52 0;
#X connect 11 0 53 0;
#X connect 12 0 54 0;
#X connect 13 0 14 0;
#X connect 14 0 7 1;
#X connect 15 0 16 0;
#X connect 16 0 8 1;
#X connect 17 0 18 0;
#X connect 18 0 9 1;
#X connect 19 0 20 0;
#X connect 20 0 69 0;
#X connect 21 0 61 0;
#X connect 22 0 63 0;
#X connect 23 0 6 1;
#X connect 24 0 25 0;
#X connect 25 0 23 1;
#X connect 26 0 6 1;
#X connect 27 0 28 0;
#X connect 28 0 26 1;
#X connect 29 0 64 0;
#X connect 30 0 65 0;
#X connect 31 0 6 1;
#X connect 32 0 33 0;
#X connect 33 0 31 1;
#X connect 34 0 6 1;
#X connect 35 0 36 0;
#X connect 36 0 34 1;
#X connect 37 0 66 0;
#X connect 38 0 67 0;
#X connect 39 0 6 1;
#X connect 40 0 41 0;
#X connect 41 0 39 1;
#X connect 42 0 68 0;
#X connect 43 0 55 0;
#X connect 44 0 56 0;
#X connect 45 0 57 0;
#X connect 46 0 58 0;
#X connect 47 0 51 0;
#X connect 48 0 3 1;
#X connect 49 0 59 0;
#X connect 50 0 49 1;
#X connect 51 0 40 0;
#X connect 52 0 13 0;
#X connect 53 0 15 0;
#X connect 54 0 17 0;
#X connect 55 0 24 0;
#X connect 56 0 27 0;
#X connect 57 0 32 0;
#X connect 58 0 35 0;
#X connect 60 0 48 0;
#X connect 61 0 7 0;
#X connect 62 0 8 0;
#X connect 63 0 9 0;
#X connect 64 0 23 0;
#X connect 65 0 26 0;
#X connect 66 0 31 0;
#X connect 67 0 34 0;
#X connect 68 0 39 0;
#X connect 69 0 70 0;
#X connect 70 0 71 0;
#X connect 71 0 72 0;
#X connect 71 0 42 0;
#X connect 71 0 38 0;
#X connect 71 0 37 0;
#X connect 71 0 30 0;
#X connect 71 0 29 0;
#X connect 71 0 22 0;
#X connect 71 0 21 0;
#X connect 71 0 76 0;
#X connect 72 0 6 0;
#X connect 74 0 49 0;
#X connect 74 0 75 0;
#X connect 76 0 62 0;
#X restore 53 187 pd voz-organo;
#N canvas 26 26 840 634 voz-organo 0;
#X obj 162 51 unpack f f;
#X floatatom 82 94 5 0 0 0 - - - 0;
#X text 43 147 Nota;
#X obj 250 550 *~;
#X obj 250 577 outlet~;
#X obj 162 23 inlet;
#X obj 83 454 +~;
#X obj 207 420 *~;
#X obj 273 430 *~;
#X obj 339 430 *~;
#X obj 225 305 r ha-1;
#X obj 291 305 r ha-2;
#X obj 357 305 r ha-3;
#X msg 225 357 \$1 20;
#X obj 225 380 line~;
#X msg 291 357 \$1 20;
#X obj 291 380 line~;
#X msg 357 357 \$1 20;
#X obj 357 380 line~;
#X obj 82 116 sig~;
#X obj 82 149 mtof~;
#X obj 208 258 *~ 0.5;
#X obj 340 258 *~ 2;
#X obj 406 431 *~;
#X msg 424 358 \$1 20;
#X obj 424 381 line~;
#X obj 475 432 *~;
#X msg 493 359 \$1 20;
#X obj 493 382 line~;
#X obj 407 259 *~ 3;
#X obj 476 260 *~ 4;
#X obj 548 431 *~;
#X msg 566 358 \$1 20;
#X obj 566 381 line~;
#X obj 617 432 *~;
#X msg 635 359 \$1 20;
#X obj 635 382 line~;
#X obj 549 259 *~ 5;
#X obj 618 260 *~ 6;
#X obj 687 432 *~;
#X msg 705 359 \$1 20;
#X obj 705 382 line~;
#X obj 688 260 *~ 8;
#X obj 424 306 r ha-4;
#X obj 493 307 r ha-5;
#X obj 566 306 r ha-6;
#X obj 635 307 r ha-7;
#X obj 705 307 r ha-8;
#X obj 267 522 line~;
#X obj 229 185 pack \$1 \$2;
#X obj 304 132 r at/dc;
#X obj 705 334 pow 4;
#X obj 225 329 pow 4;
#X obj 291 329 pow 4;
#X obj 357 329 pow 4;
#X obj 424 330 pow 4;
#X obj 493 332 pow 4;
#X obj 566 330 pow 4;
#X obj 635 331 pow 4;
#X obj 229 210 s \$0v;
#X obj 267 498 r \$0v;
#X obj 208 281 cos~;
#X obj 274 281 cos~;
#X obj 340 281 cos~;
#X obj 407 282 cos~;
#X obj 476 283 cos~;
#X obj 549 282 cos~;
#X obj 618 283 cos~;
#X obj 688 283 cos~;
#X obj 82 176 phasor~;
#X obj 82 201 *~ 1;
#X obj 82 229 -~ 0.25;
#X obj 83 259 cos~;
#X floatatom 276 58 5 0 0 0 - - - 0;
#X obj 212 109 scale 0 127 0 1;
#X floatatom 235 159 5 0 0 0 - - - 0;
#X obj 274 258 *~ 1.5;
#X connect 0 0 1 0;
#X connect 0 1 73 0;
#X connect 0 1 74 0;
#X connect 1 0 19 0;
#X connect 3 0 4 0;
#X connect 5 0 0 0;
#X connect 6 0 3 0;
#X connect 7 0 6 1;
#X connect 8 0 6 1;
#X connect 9 0 6 1;
#X connect 10 0 52 0;
#X connect 11 0 53 0;
#X connect 12 0 54 0;
#X connect 13 0 14 0;
#X connect 14 0 7 1;
#X connect 15 0 16 0;
#X connect 16 0 8 1;
#X connect 17 0 18 0;
#X connect 18 0 9 1;
#X connect 19 0 20 0;
#X connect 20 0 69 0;
#X connect 21 0 61 0;
#X connect 22 0 63 0;
#X connect 23 0 6 1;
#X connect 24 0 25 0;
#X connect 25 0 23 1;
#X connect 26 0 6 1;
#X connect 27 0 28 0;
#X connect 28 0 26 1;
#X connect 29 0 64 0;
#X connect 30 0 65 0;
#X connect 31 0 6 1;
#X connect 32 0 33 0;
#X connect 33 0 31 1;
#X connect 34 0 6 1;
#X connect 35 0 36 0;
#X connect 36 0 34 1;
#X connect 37 0 66 0;
#X connect 38 0 67 0;
#X connect 39 0 6 1;
#X connect 40 0 41 0;
#X connect 41 0 39 1;
#X connect 42 0 68 0;
#X connect 43 0 55 0;
#X connect 44 0 56 0;
#X connect 45 0 57 0;
#X connect 46 0 58 0;
#X connect 47 0 51 0;
#X connect 48 0 3 1;
#X connect 49 0 59 0;
#X connect 50 0 49 1;
#X connect 51 0 40 0;
#X connect 52 0 13 0;
#X connect 53 0 15 0;
#X connect 54 0 17 0;
#X connect 55 0 24 0;
#X connect 56 0 27 0;
#X connect 57 0 32 0;
#X connect 58 0 35 0;
#X connect 60 0 48 0;
#X connect 61 0 7 0;
#X connect 62 0 8 0;
#X connect 63 0 9 0;
#X connect 64 0 23 0;
#X connect 65 0 26 0;
#X connect 66 0 31 0;
#X connect 67 0 34 0;
#X connect 68 0 39 0;
#X connect 69 0 70 0;
#X connect 70 0 71 0;
#X connect 71 0 72 0;
#X connect 71 0 42 0;
#X connect 71 0 38 0;
#X connect 71 0 37 0;
#X connect 71 0 30 0;
#X connect 71 0 29 0;
#X connect 71 0 22 0;
#X connect 71 0 21 0;
#X connect 71 0 76 0;
#X connect 72 0 6 0;
#X connect 74 0 49 0;
#X connect 74 0 75 0;
#X connect 76 0 62 0;
#X restore 53 219 pd voz-organo;
#N canvas 26 26 840 634 voz-organo 0;
#X obj 162 51 unpack f f;
#X floatatom 82 94 5 0 0 0 - - - 0;
#X text 43 147 Nota;
#X obj 250 550 *~;
#X obj 250 577 outlet~;
#X obj 162 23 inlet;
#X obj 83 454 +~;
#X obj 207 420 *~;
#X obj 273 430 *~;
#X obj 339 430 *~;
#X obj 225 305 r ha-1;
#X obj 291 305 r ha-2;
#X obj 357 305 r ha-3;
#X msg 225 357 \$1 20;
#X obj 225 380 line~;
#X msg 291 357 \$1 20;
#X obj 291 380 line~;
#X msg 357 357 \$1 20;
#X obj 357 380 line~;
#X obj 82 116 sig~;
#X obj 82 149 mtof~;
#X obj 208 258 *~ 0.5;
#X obj 340 258 *~ 2;
#X obj 406 431 *~;
#X msg 424 358 \$1 20;
#X obj 424 381 line~;
#X obj 475 432 *~;
#X msg 493 359 \$1 20;
#X obj 493 382 line~;
#X obj 407 259 *~ 3;
#X obj 476 260 *~ 4;
#X obj 548 431 *~;
#X msg 566 358 \$1 20;
#X obj 566 381 line~;
#X obj 617 432 *~;
#X msg 635 359 \$1 20;
#X obj 635 382 line~;
#X obj 549 259 *~ 5;
#X obj 618 260 *~ 6;
#X obj 687 432 *~;
#X msg 705 359 \$1 20;
#X obj 705 382 line~;
#X obj 688 260 *~ 8;
#X obj 424 306 r ha-4;
#X obj 493 307 r ha-5;
#X obj 566 306 r ha-6;
#X obj 635 307 r ha-7;
#X obj 705 307 r ha-8;
#X obj 267 522 line~;
#X obj 229 185 pack \$1 \$2;
#X obj 304 132 r at/dc;
#X obj 705 334 pow 4;
#X obj 225 329 pow 4;
#X obj 291 329 pow 4;
#X obj 357 329 pow 4;
#X obj 424 330 pow 4;
#X obj 493 332 pow 4;
#X obj 566 330 pow 4;
#X obj 635 331 pow 4;
#X obj 229 210 s \$0v;
#X obj 267 498 r \$0v;
#X obj 208 281 cos~;
#X obj 274 281 cos~;
#X obj 340 281 cos~;
#X obj 407 282 cos~;
#X obj 476 283 cos~;
#X obj 549 282 cos~;
#X obj 618 283 cos~;
#X obj 688 283 cos~;
#X obj 82 176 phasor~;
#X obj 82 201 *~ 1;
#X obj 82 229 -~ 0.25;
#X obj 83 259 cos~;
#X floatatom 276 58 5 0 0 0 - - - 0;
#X obj 212 109 scale 0 127 0 1;
#X floatatom 235 159 5 0 0 0 - - - 0;
#X obj 274 258 *~ 1.5;
#X connect 0 0 1 0;
#X connect 0 1 73 0;
#X connect 0 1 74 0;
#X connect 1 0 19 0;
#X connect 3 0 4 0;
#X connect 5 0 0 0;
#X connect 6 0 3 0;
#X connect 7 0 6 1;
#X connect 8 0 6 1;
#X connect 9 0 6 1;
#X connect 10 0 52 0;
#X connect 11 0 53 0;
#X connect 12 0 54 0;
#X connect 13 0 14 0;
#X connect 14 0 7 1;
#X connect 15 0 16 0;
#X connect 16 0 8 1;
#X connect 17 0 18 0;
#X connect 18 0 9 1;
#X connect 19 0 20 0;
#X connect 20 0 69 0;
#X connect 21 0 61 0;
#X connect 22 0 63 0;
#X connect 23 0 6 1;
#X connect 24 0 25 0;
#X connect 25 0 23 1;
#X connect 26 0 6 1;
#X connect 27 0 28 0;
#X connect 28 0 26 1;
#X connect 29 0 64 0;
#X connect 30 0 65 0;
#X connect 31 0 6 1;
#X connect 32 0 33 0;
#X connect 33 0 31 1;
#X connect 34 0 6 1;
#X connect 35 0 36 0;
#X connect 36 0 34 1;
#X connect 37 0 66 0;
#X connect 38 0 67 0;
#X connect 39 0 6 1;
#X connect 40 0 41 0;
#X connect 41 0 39 1;
#X connect 42 0 68 0;
#X connect 43 0 55 0;
#X connect 44 0 56 0;
#X connect 45 0 57 0;
#X connect 46 0 58 0;
#X connect 47 0 51 0;
#X connect 48 0 3 1;
#X connect 49 0 59 0;
#X connect 50 0 49 1;
#X connect 51 0 40 0;
#X connect 52 0 13 0;
#X connect 53 0 15 0;
#X connect 54 0 17 0;
#X connect 55 0 24 0;
#X connect 56 0 27 0;
#X connect 57 0 32 0;
#X connect 58 0 35 0;
#X connect 60 0 48 0;
#X connect 61 0 7 0;
#X connect 62 0 8 0;
#X connect 63 0 9 0;
#X connect 64 0 23 0;
#X connect 65 0 26 0;
#X connect 66 0 31 0;
#X connect 67 0 34 0;
#X connect 68 0 39 0;
#X connect 69 0 70 0;
#X connect 70 0 71 0;
#X connect 71 0 72 0;
#X connect 71 0 42 0;
#X connect 71 0 38 0;
#X connect 71 0 37 0;
#X connect 71 0 30 0;
#X connect 71 0 29 0;
#X connect 71 0 22 0;
#X connect 71 0 21 0;
#X connect 71 0 76 0;
#X connect 72 0 6 0;
#X connect 74 0 49 0;
#X connect 74 0 75 0;
#X connect 76 0 62 0;
#X restore 157 187 pd voz-organo;
#N canvas 26 26 840 634 voz-organo 0;
#X obj 162 51 unpack f f;
#X floatatom 82 94 5 0 0 0 - - - 0;
#X text 43 147 Nota;
#X obj 250 550 *~;
#X obj 250 577 outlet~;
#X obj 162 23 inlet;
#X obj 83 454 +~;
#X obj 207 420 *~;
#X obj 273 430 *~;
#X obj 339 430 *~;
#X obj 225 305 r ha-1;
#X obj 291 305 r ha-2;
#X obj 357 305 r ha-3;
#X msg 225 357 \$1 20;
#X obj 225 380 line~;
#X msg 291 357 \$1 20;
#X obj 291 380 line~;
#X msg 357 357 \$1 20;
#X obj 357 380 line~;
#X obj 82 116 sig~;
#X obj 82 149 mtof~;
#X obj 208 258 *~ 0.5;
#X obj 340 258 *~ 2;
#X obj 406 431 *~;
#X msg 424 358 \$1 20;
#X obj 424 381 line~;
#X obj 475 432 *~;
#X msg 493 359 \$1 20;
#X obj 493 382 line~;
#X obj 407 259 *~ 3;
#X obj 476 260 *~ 4;
#X obj 548 431 *~;
#X msg 566 358 \$1 20;
#X obj 566 381 line~;
#X obj 617 432 *~;
#X msg 635 359 \$1 20;
#X obj 635 382 line~;
#X obj 549 259 *~ 5;
#X obj 618 260 *~ 6;
#X obj 687 432 *~;
#X msg 705 359 \$1 20;
#X obj 705 382 line~;
#X obj 688 260 *~ 8;
#X obj 424 306 r ha-4;
#X obj 493 307 r ha-5;
#X obj 566 306 r ha-6;
#X obj 635 307 r ha-7;
#X obj 705 307 r ha-8;
#X obj 267 522 line~;
#X obj 229 185 pack \$1 \$2;
#X obj 304 132 r at/dc;
#X obj 705 334 pow 4;
#X obj 225 329 pow 4;
#X obj 291 329 pow 4;
#X obj 357 329 pow 4;
#X obj 424 330 pow 4;
#X obj 493 332 pow 4;
#X obj 566 330 pow 4;
#X obj 635 331 pow 4;
#X obj 229 210 s \$0v;
#X obj 267 498 r \$0v;
#X obj 208 281 cos~;
#X obj 274 281 cos~;
#X obj 340 281 cos~;
#X obj 407 282 cos~;
#X obj 476 283 cos~;
#X obj 549 282 cos~;
#X obj 618 283 cos~;
#X obj 688 283 cos~;
#X obj 82 176 phasor~;
#X obj 82 201 *~ 1;
#X obj 82 229 -~ 0.25;
#X obj 83 259 cos~;
#X floatatom 276 58 5 0 0 0 - - - 0;
#X obj 212 109 scale 0 127 0 1;
#X floatatom 235 159 5 0 0 0 - - - 0;
#X obj 274 258 *~ 1.5;
#X connect 0 0 1 0;
#X connect 0 1 73 0;
#X connect 0 1 74 0;
#X connect 1 0 19 0;
#X connect 3 0 4 0;
#X connect 5 0 0 0;
#X connect 6 0 3 0;
#X connect 7 0 6 1;
#X connect 8 0 6 1;
#X connect 9 0 6 1;
#X connect 10 0 52 0;
#X connect 11 0 53 0;
#X connect 12 0 54 0;
#X connect 13 0 14 0;
#X connect 14 0 7 1;
#X connect 15 0 16 0;
#X connect 16 0 8 1;
#X connect 17 0 18 0;
#X connect 18 0 9 1;
#X connect 19 0 20 0;
#X connect 20 0 69 0;
#X connect 21 0 61 0;
#X connect 22 0 63 0;
#X connect 23 0 6 1;
#X connect 24 0 25 0;
#X connect 25 0 23 1;
#X connect 26 0 6 1;
#X connect 27 0 28 0;
#X connect 28 0 26 1;
#X connect 29 0 64 0;
#X connect 30 0 65 0;
#X connect 31 0 6 1;
#X connect 32 0 33 0;
#X connect 33 0 31 1;
#X connect 34 0 6 1;
#X connect 35 0 36 0;
#X connect 36 0 34 1;
#X connect 37 0 66 0;
#X connect 38 0 67 0;
#X connect 39 0 6 1;
#X connect 40 0 41 0;
#X connect 41 0 39 1;
#X connect 42 0 68 0;
#X connect 43 0 55 0;
#X connect 44 0 56 0;
#X connect 45 0 57 0;
#X connect 46 0 58 0;
#X connect 47 0 51 0;
#X connect 48 0 3 1;
#X connect 49 0 59 0;
#X connect 50 0 49 1;
#X connect 51 0 40 0;
#X connect 52 0 13 0;
#X connect 53 0 15 0;
#X connect 54 0 17 0;
#X connect 55 0 24 0;
#X connect 56 0 27 0;
#X connect 57 0 32 0;
#X connect 58 0 35 0;
#X connect 60 0 48 0;
#X connect 61 0 7 0;
#X connect 62 0 8 0;
#X connect 63 0 9 0;
#X connect 64 0 23 0;
#X connect 65 0 26 0;
#X connect 66 0 31 0;
#X connect 67 0 34 0;
#X connect 68 0 39 0;
#X connect 69 0 70 0;
#X connect 70 0 71 0;
#X connect 71 0 72 0;
#X connect 71 0 42 0;
#X connect 71 0 38 0;
#X connect 71 0 37 0;
#X connect 71 0 30 0;
#X connect 71 0 29 0;
#X connect 71 0 22 0;
#X connect 71 0 21 0;
#X connect 71 0 76 0;
#X connect 72 0 6 0;
#X connect 74 0 49 0;
#X connect 74 0 75 0;
#X connect 76 0 62 0;
#X restore 157 219 pd voz-organo;
#N canvas 26 26 840 634 voz-organo 0;
#X obj 162 51 unpack f f;
#X floatatom 82 94 5 0 0 0 - - - 0;
#X text 43 147 Nota;
#X obj 250 550 *~;
#X obj 250 577 outlet~;
#X obj 162 23 inlet;
#X obj 83 454 +~;
#X obj 207 420 *~;
#X obj 273 430 *~;
#X obj 339 430 *~;
#X obj 225 305 r ha-1;
#X obj 291 305 r ha-2;
#X obj 357 305 r ha-3;
#X msg 225 357 \$1 20;
#X obj 225 380 line~;
#X msg 291 357 \$1 20;
#X obj 291 380 line~;
#X msg 357 357 \$1 20;
#X obj 357 380 line~;
#X obj 82 116 sig~;
#X obj 82 149 mtof~;
#X obj 208 258 *~ 0.5;
#X obj 340 258 *~ 2;
#X obj 406 431 *~;
#X msg 424 358 \$1 20;
#X obj 424 381 line~;
#X obj 475 432 *~;
#X msg 493 359 \$1 20;
#X obj 493 382 line~;
#X obj 407 259 *~ 3;
#X obj 476 260 *~ 4;
#X obj 548 431 *~;
#X msg 566 358 \$1 20;
#X obj 566 381 line~;
#X obj 617 432 *~;
#X msg 635 359 \$1 20;
#X obj 635 382 line~;
#X obj 549 259 *~ 5;
#X obj 618 260 *~ 6;
#X obj 687 432 *~;
#X msg 705 359 \$1 20;
#X obj 705 382 line~;
#X obj 688 260 *~ 8;
#X obj 424 306 r ha-4;
#X obj 493 307 r ha-5;
#X obj 566 306 r ha-6;
#X obj 635 307 r ha-7;
#X obj 705 307 r ha-8;
#X obj 267 522 line~;
#X obj 229 185 pack \$1 \$2;
#X obj 304 132 r at/dc;
#X obj 705 334 pow 4;
#X obj 225 329 pow 4;
#X obj 291 329 pow 4;
#X obj 357 329 pow 4;
#X obj 424 330 pow 4;
#X obj 493 332 pow 4;
#X obj 566 330 pow 4;
#X obj 635 331 pow 4;
#X obj 229 210 s \$0v;
#X obj 267 498 r \$0v;
#X obj 208 281 cos~;
#X obj 274 281 cos~;
#X obj 340 281 cos~;
#X obj 407 282 cos~;
#X obj 476 283 cos~;
#X obj 549 282 cos~;
#X obj 618 283 cos~;
#X obj 688 283 cos~;
#X obj 82 176 phasor~;
#X obj 82 201 *~ 1;
#X obj 82 229 -~ 0.25;
#X obj 83 259 cos~;
#X floatatom 276 58 5 0 0 0 - - - 0;
#X obj 212 109 scale 0 127 0 1;
#X floatatom 235 159 5 0 0 0 - - - 0;
#X obj 274 258 *~ 1.5;
#X connect 0 0 1 0;
#X connect 0 1 73 0;
#X connect 0 1 74 0;
#X connect 1 0 19 0;
#X connect 3 0 4 0;
#X connect 5 0 0 0;
#X connect 6 0 3 0;
#X connect 7 0 6 1;
#X connect 8 0 6 1;
#X connect 9 0 6 1;
#X connect 10 0 52 0;
#X connect 11 0 53 0;
#X connect 12 0 54 0;
#X connect 13 0 14 0;
#X connect 14 0 7 1;
#X connect 15 0 16 0;
#X connect 16 0 8 1;
#X connect 17 0 18 0;
#X connect 18 0 9 1;
#X connect 19 0 20 0;
#X connect 20 0 69 0;
#X connect 21 0 61 0;
#X connect 22 0 63 0;
#X connect 23 0 6 1;
#X connect 24 0 25 0;
#X connect 25 0 23 1;
#X connect 26 0 6 1;
#X connect 27 0 28 0;
#X connect 28 0 26 1;
#X connect 29 0 64 0;
#X connect 30 0 65 0;
#X connect 31 0 6 1;
#X connect 32 0 33 0;
#X connect 33 0 31 1;
#X connect 34 0 6 1;
#X connect 35 0 36 0;
#X connect 36 0 34 1;
#X connect 37 0 66 0;
#X connect 38 0 67 0;
#X connect 39 0 6 1;
#X connect 40 0 41 0;
#X connect 41 0 39 1;
#X connect 42 0 68 0;
#X connect 43 0 55 0;
#X connect 44 0 56 0;
#X connect 45 0 57 0;
#X connect 46 0 58 0;
#X connect 47 0 51 0;
#X connect 48 0 3 1;
#X connect 49 0 59 0;
#X connect 50 0 49 1;
#X connect 51 0 40 0;
#X connect 52 0 13 0;
#X connect 53 0 15 0;
#X connect 54 0 17 0;
#X connect 55 0 24 0;
#X connect 56 0 27 0;
#X connect 57 0 32 0;
#X connect 58 0 35 0;
#X connect 60 0 48 0;
#X connect 61 0 7 0;
#X connect 62 0 8 0;
#X connect 63 0 9 0;
#X connect 64 0 23 0;
#X connect 65 0 26 0;
#X connect 66 0 31 0;
#X connect 67 0 34 0;
#X connect 68 0 39 0;
#X connect 69 0 70 0;
#X connect 70 0 71 0;
#X connect 71 0 72 0;
#X connect 71 0 42 0;
#X connect 71 0 38 0;
#X connect 71 0 37 0;
#X connect 71 0 30 0;
#X connect 71 0 29 0;
#X connect 71 0 22 0;
#X connect 71 0 21 0;
#X connect 71 0 76 0;
#X connect 72 0 6 0;
#X connect 74 0 49 0;
#X connect 74 0 75 0;
#X connect 76 0 62 0;
#X restore 262 186 pd voz-organo;
#N canvas 26 26 840 634 voz-organo 0;
#X obj 162 51 unpack f f;
#X floatatom 82 94 5 0 0 0 - - - 0;
#X text 43 147 Nota;
#X obj 250 550 *~;
#X obj 250 577 outlet~;
#X obj 162 23 inlet;
#X obj 83 454 +~;
#X obj 207 420 *~;
#X obj 273 430 *~;
#X obj 339 430 *~;
#X obj 225 305 r ha-1;
#X obj 291 305 r ha-2;
#X obj 357 305 r ha-3;
#X msg 225 357 \$1 20;
#X obj 225 380 line~;
#X msg 291 357 \$1 20;
#X obj 291 380 line~;
#X msg 357 357 \$1 20;
#X obj 357 380 line~;
#X obj 82 116 sig~;
#X obj 82 149 mtof~;
#X obj 208 258 *~ 0.5;
#X obj 340 258 *~ 2;
#X obj 406 431 *~;
#X msg 424 358 \$1 20;
#X obj 424 381 line~;
#X obj 475 432 *~;
#X msg 493 359 \$1 20;
#X obj 493 382 line~;
#X obj 407 259 *~ 3;
#X obj 476 260 *~ 4;
#X obj 548 431 *~;
#X msg 566 358 \$1 20;
#X obj 566 381 line~;
#X obj 617 432 *~;
#X msg 635 359 \$1 20;
#X obj 635 382 line~;
#X obj 549 259 *~ 5;
#X obj 618 260 *~ 6;
#X obj 687 432 *~;
#X msg 705 359 \$1 20;
#X obj 705 382 line~;
#X obj 688 260 *~ 8;
#X obj 424 306 r ha-4;
#X obj 493 307 r ha-5;
#X obj 566 306 r ha-6;
#X obj 635 307 r ha-7;
#X obj 705 307 r ha-8;
#X obj 267 522 line~;
#X obj 229 185 pack \$1 \$2;
#X obj 304 132 r at/dc;
#X obj 705 334 pow 4;
#X obj 225 329 pow 4;
#X obj 291 329 pow 4;
#X obj 357 329 pow 4;
#X obj 424 330 pow 4;
#X obj 493 332 pow 4;
#X obj 566 330 pow 4;
#X obj 635 331 pow 4;
#X obj 229 210 s \$0v;
#X obj 267 498 r \$0v;
#X obj 208 281 cos~;
#X obj 274 281 cos~;
#X obj 340 281 cos~;
#X obj 407 282 cos~;
#X obj 476 283 cos~;
#X obj 549 282 cos~;
#X obj 618 283 cos~;
#X obj 688 283 cos~;
#X obj 82 176 phasor~;
#X obj 82 201 *~ 1;
#X obj 82 229 -~ 0.25;
#X obj 83 259 cos~;
#X floatatom 276 58 5 0 0 0 - - - 0;
#X obj 212 109 scale 0 127 0 1;
#X floatatom 235 159 5 0 0 0 - - - 0;
#X obj 274 258 *~ 1.5;
#X connect 0 0 1 0;
#X connect 0 1 73 0;
#X connect 0 1 74 0;
#X connect 1 0 19 0;
#X connect 3 0 4 0;
#X connect 5 0 0 0;
#X connect 6 0 3 0;
#X connect 7 0 6 1;
#X connect 8 0 6 1;
#X connect 9 0 6 1;
#X connect 10 0 52 0;
#X connect 11 0 53 0;
#X connect 12 0 54 0;
#X connect 13 0 14 0;
#X connect 14 0 7 1;
#X connect 15 0 16 0;
#X connect 16 0 8 1;
#X connect 17 0 18 0;
#X connect 18 0 9 1;
#X connect 19 0 20 0;
#X connect 20 0 69 0;
#X connect 21 0 61 0;
#X connect 22 0 63 0;
#X connect 23 0 6 1;
#X connect 24 0 25 0;
#X connect 25 0 23 1;
#X connect 26 0 6 1;
#X connect 27 0 28 0;
#X connect 28 0 26 1;
#X connect 29 0 64 0;
#X connect 30 0 65 0;
#X connect 31 0 6 1;
#X connect 32 0 33 0;
#X connect 33 0 31 1;
#X connect 34 0 6 1;
#X connect 35 0 36 0;
#X connect 36 0 34 1;
#X connect 37 0 66 0;
#X connect 38 0 67 0;
#X connect 39 0 6 1;
#X connect 40 0 41 0;
#X connect 41 0 39 1;
#X connect 42 0 68 0;
#X connect 43 0 55 0;
#X connect 44 0 56 0;
#X connect 45 0 57 0;
#X connect 46 0 58 0;
#X connect 47 0 51 0;
#X connect 48 0 3 1;
#X connect 49 0 59 0;
#X connect 50 0 49 1;
#X connect 51 0 40 0;
#X connect 52 0 13 0;
#X connect 53 0 15 0;
#X connect 54 0 17 0;
#X connect 55 0 24 0;
#X connect 56 0 27 0;
#X connect 57 0 32 0;
#X connect 58 0 35 0;
#X connect 60 0 48 0;
#X connect 61 0 7 0;
#X connect 62 0 8 0;
#X connect 63 0 9 0;
#X connect 64 0 23 0;
#X connect 65 0 26 0;
#X connect 66 0 31 0;
#X connect 67 0 34 0;
#X connect 68 0 39 0;
#X connect 69 0 70 0;
#X connect 70 0 71 0;
#X connect 71 0 72 0;
#X connect 71 0 42 0;
#X connect 71 0 38 0;
#X connect 71 0 37 0;
#X connect 71 0 30 0;
#X connect 71 0 29 0;
#X connect 71 0 22 0;
#X connect 71 0 21 0;
#X connect 71 0 76 0;
#X connect 72 0 6 0;
#X connect 74 0 49 0;
#X connect 74 0 75 0;
#X connect 76 0 62 0;
#X restore 262 219 pd voz-organo;
#N canvas 52 52 450 300 limiter 0;
#X obj 62 191 *~;
#X obj 92 69 env~;
#X obj 92 91 dbtorms;
#X obj 92 135 -;
#X obj 92 157 lop~ 20;
#X obj 229 85 vsl 15 128 0 1 0 0 empty empty empty 0 -9 0 10 #fcfcfc
#000000 #000000 0 1;
#X msg 92 113 1 \$1;
#X obj 62 29 inlet~;
#X obj 62 253 outlet~;
#X connect 0 0 8 0;
#X connect 1 0 2 0;
#X connect 2 0 6 0;
#X connect 3 0 4 0;
#X connect 3 0 5 0;
#X connect 4 0 0 1;
#X connect 6 0 3 0;
#X connect 7 0 0 0;
#X connect 7 0 1 0;
#X restore 53 359 pd limiter;
#X connect 0 0 1 0;
#X connect 1 0 7 0;
#X connect 2 0 3 0;
#X connect 3 0 4 0;
#X connect 8 0 9 0;
#X connect 8 1 42 0;
#X connect 9 0 39 0;
#X connect 13 0 17 0;
#X connect 17 0 56 0;
#X connect 17 1 58 0;
#X connect 17 2 60 0;
#X connect 17 3 57 0;
#X connect 17 4 59 0;
#X connect 17 5 61 0;
#X connect 23 0 2 0;
#X connect 23 0 24 0;
#X connect 26 0 27 0;
#X connect 27 0 28 0;
#X connect 28 0 30 0;
#X connect 29 0 26 0;
#X connect 30 0 34 1;
#X connect 31 0 32 0;
#X connect 32 0 30 1;
#X connect 33 0 34 0;
#X connect 34 0 37 0;
#X connect 35 0 29 0;
#X connect 36 0 62 0;
#X connect 38 0 36 1;
#X connect 39 0 13 0;
#X connect 39 1 13 1;
#X connect 39 2 13 2;
#X connect 40 0 39 0;
#X connect 41 0 39 1;
#X connect 42 0 39 1;
#X connect 43 0 36 0;
#X connect 44 0 55 0;
#X connect 44 1 47 0;
#X connect 46 0 48 0;
#X connect 46 1 49 0;
#X connect 46 2 50 0;
#X connect 46 3 51 0;
#X connect 47 0 46 0;
#X connect 48 0 45 0;
#X connect 49 0 52 0;
#X connect 50 0 53 0;
#X connect 51 0 54 0;
#X connect 55 0 47 1;
#X connect 55 1 47 1;
#X connect 56 0 43 0;
#X connect 57 0 43 0;
#X connect 58 0 43 0;
#X connect 59 0 43 0;
#X connect 60 0 43 0;
#X connect 61 0 43 0;
#X connect 62 0 6 0;
#X connect 62 0 6 1;
#X connect 62 0 7 0;
#X connect 62 0 4 0;
