#N canvas 5 21 1280 637 12;
#X obj 162 51 unpack f f;
#X floatatom 82 94 5 0 0 0 - - - 0;
#X text 43 147 Nota;
#X obj 250 550 *~;
#X obj 250 577 outlet~;
#X obj 162 23 inlet;
#X obj 83 454 +~;
#X obj 207 420 *~;
#X obj 273 430 *~;
#X obj 339 430 *~;
#X obj 225 305 r ha-1;
#X obj 291 305 r ha-2;
#X obj 357 305 r ha-3;
#X msg 225 357 \$1 20;
#X obj 225 380 line~;
#X msg 291 357 \$1 20;
#X obj 291 380 line~;
#X msg 357 357 \$1 20;
#X obj 357 380 line~;
#X obj 82 116 sig~;
#X obj 82 149 mtof~;
#X obj 208 258 *~ 0.5;
#X obj 340 258 *~ 2;
#X obj 406 431 *~;
#X msg 424 358 \$1 20;
#X obj 424 381 line~;
#X obj 475 432 *~;
#X msg 493 359 \$1 20;
#X obj 493 382 line~;
#X obj 407 259 *~ 3;
#X obj 476 260 *~ 4;
#X obj 548 431 *~;
#X msg 566 358 \$1 20;
#X obj 566 381 line~;
#X obj 617 432 *~;
#X msg 635 359 \$1 20;
#X obj 635 382 line~;
#X obj 549 259 *~ 5;
#X obj 618 260 *~ 6;
#X obj 687 432 *~;
#X msg 705 359 \$1 20;
#X obj 705 382 line~;
#X obj 688 260 *~ 8;
#X obj 424 306 r ha-4;
#X obj 493 307 r ha-5;
#X obj 566 306 r ha-6;
#X obj 635 307 r ha-7;
#X obj 705 307 r ha-8;
#X obj 267 522 line~;
#X obj 229 185 pack \$1 \$2;
#X obj 304 132 r at/dc;
#X obj 705 334 pow 4;
#X obj 225 329 pow 4;
#X obj 291 329 pow 4;
#X obj 357 329 pow 4;
#X obj 424 330 pow 4;
#X obj 493 332 pow 4;
#X obj 566 330 pow 4;
#X obj 635 331 pow 4;
#X obj 229 210 s \$0v;
#X obj 267 498 r \$0v;
#X obj 208 281 cos~;
#X obj 274 281 cos~;
#X obj 340 281 cos~;
#X obj 407 282 cos~;
#X obj 476 283 cos~;
#X obj 549 282 cos~;
#X obj 618 283 cos~;
#X obj 688 283 cos~;
#X obj 82 176 phasor~;
#X obj 82 201 *~ 1;
#X obj 82 229 -~ 0.25;
#X obj 83 259 cos~;
#X floatatom 276 58 5 0 0 0 - - - 0;
#X obj 212 109 scale 0 127 0 1;
#X floatatom 235 159 5 0 0 0 - - - 0;
#X obj 274 258 *~ 1.5;
#X connect 0 0 1 0;
#X connect 0 1 73 0;
#X connect 0 1 74 0;
#X connect 1 0 19 0;
#X connect 3 0 4 0;
#X connect 5 0 0 0;
#X connect 6 0 3 0;
#X connect 7 0 6 1;
#X connect 8 0 6 1;
#X connect 9 0 6 1;
#X connect 10 0 52 0;
#X connect 11 0 53 0;
#X connect 12 0 54 0;
#X connect 13 0 14 0;
#X connect 14 0 7 1;
#X connect 15 0 16 0;
#X connect 16 0 8 1;
#X connect 17 0 18 0;
#X connect 18 0 9 1;
#X connect 19 0 20 0;
#X connect 20 0 69 0;
#X connect 21 0 61 0;
#X connect 22 0 63 0;
#X connect 23 0 6 1;
#X connect 24 0 25 0;
#X connect 25 0 23 1;
#X connect 26 0 6 1;
#X connect 27 0 28 0;
#X connect 28 0 26 1;
#X connect 29 0 64 0;
#X connect 30 0 65 0;
#X connect 31 0 6 1;
#X connect 32 0 33 0;
#X connect 33 0 31 1;
#X connect 34 0 6 1;
#X connect 35 0 36 0;
#X connect 36 0 34 1;
#X connect 37 0 66 0;
#X connect 38 0 67 0;
#X connect 39 0 6 1;
#X connect 40 0 41 0;
#X connect 41 0 39 1;
#X connect 42 0 68 0;
#X connect 43 0 55 0;
#X connect 44 0 56 0;
#X connect 45 0 57 0;
#X connect 46 0 58 0;
#X connect 47 0 51 0;
#X connect 48 0 3 1;
#X connect 49 0 59 0;
#X connect 50 0 49 1;
#X connect 51 0 40 0;
#X connect 52 0 13 0;
#X connect 53 0 15 0;
#X connect 54 0 17 0;
#X connect 55 0 24 0;
#X connect 56 0 27 0;
#X connect 57 0 32 0;
#X connect 58 0 35 0;
#X connect 60 0 48 0;
#X connect 61 0 7 0;
#X connect 62 0 8 0;
#X connect 63 0 9 0;
#X connect 64 0 23 0;
#X connect 65 0 26 0;
#X connect 66 0 31 0;
#X connect 67 0 34 0;
#X connect 68 0 39 0;
#X connect 69 0 70 0;
#X connect 70 0 71 0;
#X connect 71 0 72 0;
#X connect 71 0 42 0;
#X connect 71 0 38 0;
#X connect 71 0 37 0;
#X connect 71 0 30 0;
#X connect 71 0 29 0;
#X connect 71 0 22 0;
#X connect 71 0 21 0;
#X connect 71 0 76 0;
#X connect 72 0 6 0;
#X connect 74 0 49 0;
#X connect 74 0 75 0;
#X connect 76 0 62 0;
