#N canvas 0 22 1920 1036 12;
#X obj 307 651 /~ 4;
#X obj 307 675 hip~ 3;
#X obj 307 699 clip~ -1 1;
#X obj 307 723 /~ 2;
#X obj 307 747 dac~ 1 2;
#X obj 485 540 loadbang;
#X obj 485 563 tgl 18 0 empty empty empty 17 7 0 10 #fcfcfc #000000
#000000 0 1;
#X obj 485 586 metro 100;
#X obj 485 610 tabwrite~ \$0-scope;
#N canvas 0 22 450 278 (subpatch) 0;
#X array \$0-scope 441 float 0;
#X coords 0 1 440 -1 200 140 1;
#X restore 486 660 graph;
#N canvas 0 22 450 278 (subpatch) 0;
#X array array1 88200 float 0;
#X coords 0 1 88199 -1 200 140 1;
#X restore 63 389 graph;
#X obj 355 450 tabread4~ array1;
#X text 396 152 Hz;
#X obj 61 165 adc~ 1;
#X obj 71 235 tabwrite~ array1;
#X obj 150 144 bng 15 250 50 0 empty empty empty 17 7 0 10 #fcfcfc
#000000 #000000;
#X floatatom 437 55 5 0 0 0 - - - 0;
#X obj 527 210 * 44.1;
#X floatatom 527 233 0 0 0 0 - - - 0;
#X text 484 55 ms;
#X obj 357 359 *~;
#X obj 437 77 t f f;
#X msg 349 108 1000 \$1;
#X obj 349 131 /;
#X floatatom 350 154 5 0 0 0 - - - 0;
#X obj 373 252 phasor~;
#X text 437 34 Duracion;
#X floatatom 646 337 5 0 0 0 - - - 0;
#X text 689 383 ms;
#X obj 646 359 * 44.1;
#X floatatom 646 382 5 0 0 0 - - - 0;
#X obj 356 399 +~;
#X obj 360 209 *~;
#X obj 466 147 hsl 128 15 0.5 2 0 1 empty empty Velocidad -2 -8 0 10
#fcfcfc #000000 #000000 20320 1;
#X floatatom 463 167 5 0 0 0 - - - 0;
#X obj 527 327 samphold~;
#X obj 527 255 sig~;
#X obj 803 111 tgl 15 0 empty empty empty 17 7 0 10 #fcfcfc #000000
#000000 0 1;
#X obj 803 131 metro 250;
#X obj 669 172 + 10;
#X obj 669 148 random 500;
#X obj 770 190 random 101;
#X obj 770 214 / 100;
#X obj 770 238 * 1.5;
#X obj 770 262 + 0.5;
#X obj 886 302 + 10;
#X obj 886 278 random 500;
#X obj 306 542 *~ 3;
#X connect 0 0 1 0;
#X connect 1 0 2 0;
#X connect 2 0 3 0;
#X connect 3 0 4 0;
#X connect 3 0 4 1;
#X connect 5 0 6 0;
#X connect 6 0 7 0;
#X connect 7 0 8 0;
#X connect 11 0 47 0;
#X connect 13 0 14 0;
#X connect 15 0 14 0;
#X connect 16 0 21 0;
#X connect 17 0 18 0;
#X connect 18 0 36 0;
#X connect 20 0 31 0;
#X connect 21 0 22 0;
#X connect 21 1 17 0;
#X connect 22 0 23 0;
#X connect 23 0 24 0;
#X connect 24 0 32 0;
#X connect 25 0 20 0;
#X connect 25 0 35 1;
#X connect 27 0 29 0;
#X connect 29 0 30 0;
#X connect 30 0 31 1;
#X connect 31 0 11 0;
#X connect 32 0 25 0;
#X connect 33 0 34 0;
#X connect 34 0 32 1;
#X connect 35 0 20 1;
#X connect 36 0 35 0;
#X connect 37 0 38 0;
#X connect 38 0 40 0;
#X connect 38 0 41 0;
#X connect 38 0 46 0;
#X connect 39 0 16 0;
#X connect 40 0 39 0;
#X connect 41 0 42 0;
#X connect 42 0 43 0;
#X connect 43 0 44 0;
#X connect 44 0 33 0;
#X connect 45 0 27 0;
#X connect 46 0 45 0;
#X connect 47 0 0 0;
#X connect 47 0 8 0;
