#N canvas 0 22 1920 1036 12;
#X obj 307 675 hip~ 3;
#X obj 307 699 clip~ -1 1;
#X obj 307 723 /~ 2;
#X obj 307 747 dac~ 1 2;
#X obj 561 556 loadbang;
#X obj 561 579 tgl 18 0 empty empty empty 17 7 0 10 #fcfcfc #000000
#000000 0 1;
#X obj 561 602 metro 100;
#X obj 561 626 tabwrite~ \$0-scope;
#N canvas 0 22 450 278 (subpatch) 0;
#X array \$0-scope 441 float 0;
#X coords 0 1 440 -1 200 140 1;
#X restore 691 374 graph;
#X obj 243 415 noise~;
#X obj 287 475 samphold~;
#X text 244 387 Sample signal;
#X text 425 399 Control signal or clock;
#X obj 361 432 phasor~ 3;
#X obj 287 518 *~ 10000;
#X obj 287 561 osc~;
#X floatatom 366 406 5 0 0 0 - - - 0;
#X obj 199 364 cnv 7 7 140 empty empty tabwrite~ 12 8 0 16 #faff00
#faff00 0;
#X obj 287 589 *~ 1;
#X obj 307 651 /~ 20;
#X text 365 360 AUDIO SIGNALS ONLY!;
#X text 255 330 Uso comun de sample and hold;
#X connect 0 0 1 0;
#X connect 1 0 2 0;
#X connect 2 0 3 0;
#X connect 2 0 3 1;
#X connect 4 0 5 0;
#X connect 5 0 6 0;
#X connect 6 0 7 0;
#X connect 9 0 10 0;
#X connect 10 0 14 0;
#X connect 13 0 10 1;
#X connect 14 0 15 0;
#X connect 15 0 18 0;
#X connect 16 0 13 0;
#X connect 19 0 0 0;
