#N canvas 0 22 1920 1036 12;
#X obj 307 651 /~ 4;
#X obj 307 675 hip~ 3;
#X obj 307 699 clip~ -1 1;
#X obj 307 723 /~ 2;
#X obj 307 747 dac~ 1 2;
#X obj 307 542 *~ 1;
#X obj 485 540 loadbang;
#X obj 485 563 tgl 18 0 empty empty empty 17 7 0 10 #fcfcfc #000000
#000000 0 1;
#X obj 485 586 metro 100;
#X obj 485 610 tabwrite~ \$0-scope;
#N canvas 0 22 450 278 (subpatch) 0;
#X array \$0-scope 441 float 0;
#X coords 0 1 440 -1 200 140 1;
#X restore 486 660 graph;
#X obj 175 224 cnv 7 7 140 empty empty Tap\ Delay 12 8 0 16 #faff00
#faff00 0;
#X obj 335 117 tgl 15 0 empty empty empty 17 7 0 10 #fcfcfc #000000
#000000 0 1;
#X obj 335 137 metro 1000;
#X obj 335 161 bng 15 250 50 0 empty empty empty 17 7 0 10 #fcfcfc
#000000 #000000;
#N canvas 0 22 1920 1036 synth 0;
#X obj 300 145 random 48;
#X obj 300 169 + 24;
#X obj 300 193 mtof;
#X obj 300 217 phasor~;
#X obj 300 241 *~ 2;
#X obj 300 265 -~ 1;
#X obj 370 309 bob~;
#X obj 447 346 *~;
#X msg 538 194 1 \, 0 250;
#X obj 538 218 line~;
#X obj 538 242 pow~ 2;
#X obj 407 270 *~ 14000;
#X obj 413 87 inlet;
#X obj 413 110 t b b, f 18;
#X obj 447 369 outlet~;
#X connect 0 0 1 0;
#X connect 1 0 2 0;
#X connect 2 0 3 0;
#X connect 3 0 4 0;
#X connect 4 0 5 0;
#X connect 5 0 6 0;
#X connect 6 0 7 0;
#X connect 7 0 14 0;
#X connect 8 0 9 0;
#X connect 9 0 10 0;
#X connect 10 0 11 0;
#X connect 10 0 7 1;
#X connect 11 0 6 1;
#X connect 12 0 13 0;
#X connect 13 0 0 0;
#X connect 13 1 8 0;
#X restore 335 191 pd synth;
#X text 164 156 Tap Delay –––––;
#X obj 379 343 delread~ \$0-delay 1000;
#X obj 335 249 delwrite~ \$0-delay 60000;
#X obj 549 343 delread~ \$0-delay 134;
#X obj 199 343 delread~ \$0-delay 300;
#X text 215 321 300 ms de delay;
#X text 388 321 1000 ms de delay;
#X obj 879 343 delread~ \$0-delay 420;
#X obj 709 343 delread~ \$0-delay 1300;
#X obj 348 445 +~;
#X obj 199 366 lop~ 1000;
#X obj 379 366 hip~ 1000;
#X obj 549 366 bp~ 1000 1.4;
#X obj 709 406 *~;
#X obj 728 370 osc~ 1456;
#X obj 879 366 /~ 2;
#X obj 549 389 *~ 2;
#X obj 348 468 /~ 5;
#X text 336 87 Play;
#X connect 0 0 1 0;
#X connect 1 0 2 0;
#X connect 2 0 3 0;
#X connect 3 0 4 0;
#X connect 3 0 4 1;
#X connect 5 0 0 0;
#X connect 5 0 9 0;
#X connect 6 0 7 0;
#X connect 7 0 8 0;
#X connect 8 0 9 0;
#X connect 12 0 13 0;
#X connect 13 0 14 0;
#X connect 14 0 15 0;
#X connect 15 0 18 0;
#X connect 17 0 27 0;
#X connect 19 0 28 0;
#X connect 20 0 26 0;
#X connect 23 0 31 0;
#X connect 24 0 29 0;
#X connect 25 0 33 0;
#X connect 26 0 25 0;
#X connect 27 0 25 1;
#X connect 28 0 32 0;
#X connect 29 0 25 1;
#X connect 30 0 29 1;
#X connect 31 0 25 1;
#X connect 32 0 25 1;
