#N canvas 0 22 1920 1036 12;
#X obj 307 651 /~ 4;
#X obj 307 675 hip~ 3;
#X obj 307 699 clip~ -1 1;
#X obj 307 723 /~ 2;
#X obj 307 747 dac~ 1 2;
#X obj 324 551 *~ 1;
#X obj 485 540 loadbang;
#X obj 485 563 tgl 18 0 empty empty empty 17 7 0 10 #fcfcfc #000000
#000000 0 1;
#X obj 485 586 metro 100;
#X obj 485 610 tabwrite~ \$0-scope;
#N canvas 0 22 450 278 (subpatch) 0;
#X array \$0-scope 441 float 0;
#X coords 0 1 440 -1 200 140 1;
#X restore 486 660 graph;
#X obj 204 278 cnv 7 7 140 empty empty Vibrato 12 8 0 16 #faff00 #faff00
0;
#X obj 344 154 tgl 15 0 empty empty empty 17 7 0 10 #fcfcfc #000000
#000000 0 1;
#X obj 344 174 metro 1000;
#X obj 344 198 bng 15 250 50 0 empty empty empty 17 7 0 10 #fcfcfc
#000000 #000000;
#N canvas 0 22 1920 1036 synth 0;
#X obj 300 145 random 48;
#X obj 300 169 + 24;
#X obj 300 193 mtof;
#X obj 300 217 phasor~;
#X obj 300 241 *~ 2;
#X obj 300 265 -~ 1;
#X obj 370 309 bob~;
#X obj 447 346 *~;
#X obj 538 218 line~;
#X obj 538 242 pow~ 2;
#X obj 407 270 *~ 14000;
#X obj 413 87 inlet;
#X obj 413 110 t b b, f 18;
#X obj 447 369 outlet~;
#X msg 538 194 1 \, 0 1000;
#X connect 0 0 1 0;
#X connect 1 0 2 0;
#X connect 2 0 3 0;
#X connect 3 0 4 0;
#X connect 4 0 5 0;
#X connect 5 0 6 0;
#X connect 6 0 7 0;
#X connect 7 0 13 0;
#X connect 8 0 9 0;
#X connect 9 0 10 0;
#X connect 9 0 7 1;
#X connect 10 0 6 1;
#X connect 11 0 12 0;
#X connect 12 0 0 0;
#X connect 12 1 14 0;
#X connect 14 0 8 0;
#X restore 344 228 pd synth;
#X obj 344 258 delwrite~ \$0-delay 60000;
#X text 345 124 Play;
#X obj 325 509 delread4~ \$0-delay;
#X obj 333 350 +~ 1;
#X obj 333 373 /~ 2;
#X obj 333 469 +~ 4;
#X obj 333 426 *~ 6;
#X obj 334 327 osc~ 5;
#X text 371 357 <- Unipolar;
#X text 369 425 <- Cantidad de Modulacion;
#X text 367 466 <- Costante de delay;
#X floatatom 482 368 5 0 0 0 - - - 0;
#X text 387 321 <- LFO;
#X connect 0 0 1 0;
#X connect 1 0 2 0;
#X connect 2 0 3 0;
#X connect 3 0 4 0;
#X connect 3 0 4 1;
#X connect 5 0 0 0;
#X connect 5 0 9 0;
#X connect 6 0 7 0;
#X connect 7 0 8 0;
#X connect 8 0 9 0;
#X connect 12 0 13 0;
#X connect 13 0 14 0;
#X connect 14 0 15 0;
#X connect 15 0 16 0;
#X connect 18 0 5 0;
#X connect 19 0 20 0;
#X connect 20 0 22 0;
#X connect 21 0 18 0;
#X connect 22 0 21 0;
#X connect 23 0 19 0;
#X connect 27 0 22 1;
