#N canvas 0 22 1920 1036 12;
#X obj 307 651 /~ 4;
#X obj 307 675 hip~ 3;
#X obj 307 699 clip~ -1 1;
#X obj 307 723 /~ 2;
#X obj 307 747 dac~ 1 2;
#X obj 324 551 *~ 1;
#X obj 485 540 loadbang;
#X obj 485 563 tgl 18 0 empty empty empty 17 7 0 10 #fcfcfc #000000
#000000 0 1;
#X obj 485 586 metro 100;
#X obj 485 610 tabwrite~ \$0-scope;
#N canvas 0 22 450 278 (subpatch) 0;
#X array \$0-scope 441 float 0;
#X coords 0 1 440 -1 200 140 1;
#X restore 486 660 graph;
#X obj 204 278 cnv 7 7 140 empty empty Granular 12 8 0 16 #faff00 #faff00
0;
#X obj 220 94 tgl 15 0 empty empty empty 17 7 0 10 #fcfcfc #000000
#000000 0 1;
#X obj 220 114 metro 1000;
#X obj 220 138 bng 15 250 50 0 empty empty empty 17 7 0 10 #fcfcfc
#000000 #000000;
#N canvas 0 22 1920 1036 synth 0;
#X obj 300 145 random 48;
#X obj 300 169 + 24;
#X obj 300 193 mtof;
#X obj 300 217 phasor~;
#X obj 300 241 *~ 2;
#X obj 300 265 -~ 1;
#X obj 370 309 bob~;
#X obj 447 346 *~;
#X obj 538 218 line~;
#X obj 538 242 pow~ 2;
#X obj 407 270 *~ 14000;
#X obj 413 87 inlet;
#X obj 413 110 t b b, f 18;
#X obj 447 369 outlet~;
#X msg 538 194 1 \, 0 1000;
#X connect 0 0 1 0;
#X connect 1 0 2 0;
#X connect 2 0 3 0;
#X connect 3 0 4 0;
#X connect 4 0 5 0;
#X connect 5 0 6 0;
#X connect 6 0 7 0;
#X connect 7 0 13 0;
#X connect 8 0 9 0;
#X connect 9 0 10 0;
#X connect 9 0 7 1;
#X connect 10 0 6 1;
#X connect 11 0 12 0;
#X connect 12 0 0 0;
#X connect 12 1 14 0;
#X connect 14 0 8 0;
#X restore 220 168 pd synth;
#X obj 220 198 delwrite~ \$0-delay 60000;
#X text 221 64 Play;
#X obj 495 348 delread4~ \$0-delay;
#X obj 449 186 noise~;
#X obj 492 224 samphold~;
#X obj 492 247 +~ 1;
#X obj 492 270 /~ 2;
#X text 533 253 <- unipolar (0 a 1);
#X obj 552 193 phasor~ 10;
#X obj 331 476 catch~ \$0-master;
#X text 470 469 s~ y r~ = muchos receives pero solo un send;
#X text 470 489 throw~ y catch~ = muchos throws~ pero solo un catch~
;
#X obj 493 400 throw~ \$0-master;
#X obj 764 329 delread4~ \$0-delay;
#X obj 724 179 noise~;
#X obj 767 217 samphold~;
#X obj 767 240 +~ 1;
#X obj 767 263 /~ 2;
#X text 808 246 <- unipolar (0 a 1);
#X text 830 159 Clock;
#X obj 764 352 throw~ \$0-master;
#X obj 827 186 phasor~ 3;
#X obj 988 324 delread4~ \$0-delay;
#X obj 948 174 noise~;
#X obj 991 212 samphold~;
#X obj 991 235 +~ 1;
#X obj 991 258 /~ 2;
#X text 1032 241 <- unipolar (0 a 1);
#X text 1054 154 Clock;
#X obj 991 281 *~ 5000;
#X obj 988 347 throw~ \$0-master;
#X obj 1213 327 delread4~ \$0-delay;
#X obj 1173 177 noise~;
#X obj 1216 215 samphold~;
#X obj 1216 238 +~ 1;
#X obj 1216 261 /~ 2;
#X text 1257 244 <- unipolar (0 a 1);
#X text 1279 157 Clock;
#X obj 1213 350 throw~ \$0-master;
#X obj 1051 181 phasor~ 2;
#X obj 1276 184 phasor~ 1.4;
#X obj 1443 327 delread4~ \$0-delay;
#X obj 1403 177 noise~;
#X obj 1446 215 samphold~;
#X obj 1446 238 +~ 1;
#X obj 1446 261 /~ 2;
#X text 1487 244 <- unipolar (0 a 1);
#X text 1509 157 Clock;
#X obj 1446 284 *~ 5000;
#X obj 1443 350 throw~ \$0-master;
#X obj 330 496 /~ 1;
#X obj 1506 184 phasor~ 6;
#X text 548 291 <- tiempo maximo de retraso;
#X obj 492 293 *~ 10000;
#X obj 767 286 *~ 10000;
#X obj 1216 284 *~ 10000;
#X text 516 323 0 a 10 \, 0 ms de retraso;
#X text 555 166 Clock a 10 Hz;
#X obj 481 22 tgl 15 0 empty empty empty 17 7 0 10 #fcfcfc #000000
#000000 0 1;
#X obj 481 42 metro 100;
#X obj 481 65 random 10000;
#X obj 481 88 delread4~ \$0-delay;
#X obj 481 111 throw~ \$0-master;
#X connect 0 0 1 0;
#X connect 1 0 2 0;
#X connect 2 0 3 0;
#X connect 3 0 4 0;
#X connect 3 0 4 1;
#X connect 5 0 0 0;
#X connect 5 0 9 0;
#X connect 6 0 7 0;
#X connect 7 0 8 0;
#X connect 8 0 9 0;
#X connect 12 0 13 0;
#X connect 13 0 14 0;
#X connect 14 0 15 0;
#X connect 18 0 28 0;
#X connect 19 0 20 0;
#X connect 20 0 21 0;
#X connect 21 0 22 0;
#X connect 22 0 69 0;
#X connect 24 0 20 1;
#X connect 25 0 66 0;
#X connect 29 0 36 0;
#X connect 30 0 31 0;
#X connect 31 0 32 0;
#X connect 32 0 33 0;
#X connect 33 0 70 0;
#X connect 37 0 31 1;
#X connect 38 0 46 0;
#X connect 39 0 40 0;
#X connect 40 0 41 0;
#X connect 41 0 42 0;
#X connect 42 0 45 0;
#X connect 45 0 38 0;
#X connect 47 0 54 0;
#X connect 48 0 49 0;
#X connect 49 0 50 0;
#X connect 50 0 51 0;
#X connect 51 0 71 0;
#X connect 55 0 40 1;
#X connect 56 0 49 1;
#X connect 57 0 65 0;
#X connect 58 0 59 0;
#X connect 59 0 60 0;
#X connect 60 0 61 0;
#X connect 61 0 64 0;
#X connect 64 0 57 0;
#X connect 67 0 59 1;
#X connect 69 0 18 0;
#X connect 70 0 29 0;
#X connect 71 0 47 0;
#X connect 74 0 75 0;
#X connect 75 0 76 0;
#X connect 76 0 77 0;
#X connect 77 0 78 0;
