#N canvas 0 22 1920 1036 12;
#X obj 23 330 hip~ 3;
#X obj 23 354 clip~ -1 1;
#X obj 23 378 /~ 2;
#X obj 23 402 dac~ 1 2;
#X obj 159 210 loadbang;
#X obj 159 233 tgl 18 0 empty empty empty 17 7 0 10 #fcfcfc #000000
#000000 0 1;
#X obj 159 256 metro 100;
#X obj 159 280 tabwrite~ \$0-scope;
#X obj 23 232 catch~ \$0-output;
#X obj 23 261 *~ 1;
#N canvas 0 22 450 278 (subpatch) 0;
#X array \$0-scope 441 float 0;
#X coords 0 1 440 -1 200 140 1;
#X restore 309 210 graph;
#X obj 23 306 /~ 4;
#X obj 716 29 nbx 3 19 30 300 0 1 empty empty BPM 0 -8 0 12 #00ff04
#000000 #000000 120 256;
#X msg 716 53 60000 \$1;
#X obj 716 77 /;
#X obj 716 101 / 4;
#X obj 674 119 tgl 19 0 empty empty empty 17 7 0 10 #00ff04 #000000
#000000 0 1;
#X obj 674 153 metro;
#X floatatom 716 125 5 0 0 0 - - - 0;
#X obj 674 177 bng 19 250 50 0 empty empty empty 17 7 0 10 #faff00
#000000 #000000;
#X obj 739 610 bng 19 250 50 0 empty empty empty 17 7 0 10 #faff00
#000000 #000000;
#X msg 739 634 open ./BD.wav \, 1;
#X obj 739 658 readsf~;
#X obj 558 87 cnv 7 7 140 empty empty euclidean 12 8 0 16 #faff00 #faff00
0;
#X obj 674 207 i;
#X obj 714 207 + 1;
#X obj 674 306 change -1;
#X obj 749 230 nbx 3 19 1 100 0 1 empty empty DIV 0 -8 0 12 #00ff04
#000000 #000000 1 256;
#X obj 674 259 div;
#X text 583 207 Contador ->;
#X floatatom 674 231 5 0 0 0 - - - 0;
#X floatatom 674 283 5 0 0 0 - - - 0;
#X text 593 262 Divisor ->;
#X obj 739 682 throw~ \$0-output;
#X obj 674 440 +;
#X obj 674 524 % 16;
#X obj 739 582 sel 1;
#X text 9 10 Ritmos Euclideanos ––––––;
#X text 19 28 Algoritmo;
#X obj 725 417 nbx 3 19 0 32 0 1 empty empty HIT 0 -8 0 12 #00ff04
#000000 #000000 4 256;
#X obj 725 441 t f f;
#X obj 739 558 < 4;
#X obj 674 480 * 4;
#X obj 711 499 nbx 3 19 1 32 0 1 empty empty LEN 0 -8 0 12 #00ff04
#000000 #000000 16 256;
#X obj 692 378 nbx 3 19 0 32 0 1 empty empty OFF 0 -8 0 12 #00ff04
#000000 #000000 0 256;
#X obj 949 610 bng 19 250 50 0 empty empty empty 17 7 0 10 #faff00
#000000 #000000;
#X obj 949 658 readsf~;
#X obj 949 682 throw~ \$0-output;
#X obj 884 440 +;
#X obj 884 524 % 16;
#X obj 949 582 sel 1;
#X obj 935 417 nbx 3 19 0 32 0 1 empty empty HIT 0 -8 0 12 #00ff04
#000000 #000000 5 256;
#X obj 935 441 t f f;
#X obj 949 558 < 4;
#X obj 884 480 * 4;
#X obj 921 499 nbx 3 19 1 32 0 1 empty empty LEN 0 -8 0 12 #00ff04
#000000 #000000 12 256;
#X obj 902 378 nbx 3 19 0 32 0 1 empty empty OFF 0 -8 0 12 #00ff04
#000000 #000000 2 256;
#X msg 949 634 open ./SD.wav \, 1;
#X obj 1159 610 bng 19 250 50 0 empty empty empty 17 7 0 10 #faff00
#000000 #000000;
#X obj 1159 658 readsf~;
#X obj 1159 682 throw~ \$0-output;
#X obj 1094 440 +;
#X obj 1094 524 % 16;
#X obj 1159 582 sel 1;
#X obj 1145 417 nbx 3 19 0 32 0 1 empty empty HIT 0 -8 0 12 #00ff04
#000000 #000000 8 256;
#X obj 1145 441 t f f;
#X obj 1159 558 < 4;
#X obj 1094 480 * 4;
#X obj 1131 499 nbx 3 19 1 32 0 1 empty empty LEN 0 -8 0 12 #00ff04
#000000 #000000 13 256;
#X obj 1112 378 nbx 3 19 0 32 0 1 empty empty OFF 0 -8 0 12 #00ff04
#000000 #000000 0 256;
#X obj 674 330 t f f f;
#X msg 1159 634 open ./HH.wav \, 1;
#X connect 0 0 1 0;
#X connect 1 0 2 0;
#X connect 2 0 3 0;
#X connect 2 0 3 1;
#X connect 4 0 5 0;
#X connect 5 0 6 0;
#X connect 6 0 7 0;
#X connect 8 0 9 0;
#X connect 9 0 7 0;
#X connect 9 0 11 0;
#X connect 11 0 0 0;
#X connect 12 0 13 0;
#X connect 13 0 14 0;
#X connect 14 0 15 0;
#X connect 15 0 18 0;
#X connect 16 0 17 0;
#X connect 17 0 19 0;
#X connect 18 0 17 1;
#X connect 19 0 24 0;
#X connect 20 0 21 0;
#X connect 21 0 22 0;
#X connect 22 0 33 0;
#X connect 24 0 25 0;
#X connect 24 0 30 0;
#X connect 25 0 24 1;
#X connect 26 0 70 0;
#X connect 27 0 28 1;
#X connect 28 0 31 0;
#X connect 30 0 28 0;
#X connect 31 0 26 0;
#X connect 34 0 42 0;
#X connect 35 0 41 0;
#X connect 36 0 20 0;
#X connect 39 0 40 0;
#X connect 40 0 42 1;
#X connect 40 1 41 1;
#X connect 41 0 36 0;
#X connect 42 0 35 0;
#X connect 43 0 35 1;
#X connect 44 0 34 1;
#X connect 45 0 57 0;
#X connect 46 0 47 0;
#X connect 48 0 54 0;
#X connect 49 0 53 0;
#X connect 50 0 45 0;
#X connect 51 0 52 0;
#X connect 52 0 54 1;
#X connect 52 1 53 1;
#X connect 53 0 50 0;
#X connect 54 0 49 0;
#X connect 55 0 49 1;
#X connect 56 0 48 1;
#X connect 57 0 46 0;
#X connect 58 0 71 0;
#X connect 59 0 60 0;
#X connect 61 0 67 0;
#X connect 62 0 66 0;
#X connect 63 0 58 0;
#X connect 64 0 65 0;
#X connect 65 0 67 1;
#X connect 65 1 66 1;
#X connect 66 0 63 0;
#X connect 67 0 62 0;
#X connect 68 0 62 1;
#X connect 69 0 61 1;
#X connect 70 0 34 0;
#X connect 70 1 48 0;
#X connect 70 2 61 0;
#X connect 71 0 59 0;
