#N canvas 0 22 1920 1036 12;
#X obj 23 370 hip~ 3;
#X obj 23 394 clip~ -1 1;
#X obj 23 418 /~ 2;
#X obj 23 442 dac~ 1 2;
#X obj 159 250 loadbang;
#X obj 159 273 tgl 18 0 empty empty empty 17 7 0 10 #fcfcfc #000000
#000000 0 1;
#X obj 159 296 metro 100;
#X obj 159 320 tabwrite~ \$0-scope;
#X obj 23 272 catch~ \$0-output;
#X obj 23 301 *~ 1;
#N canvas 0 22 450 278 (subpatch) 0;
#X array \$0-scope 441 float 0;
#X coords 0 1 440 -1 200 140 1;
#X restore 309 250 graph;
#X obj 23 346 /~ 4;
#X msg 29 159 0 2 4 5 7 9 11;
#X obj 29 183 array set \$0-scale;
#X obj 29 107 array define -k \$0-scale 7;
#A 0 0 2 4 5 7 9 11;
#X text 29 87 Crea array de 7 pasos y guarda sus contenidos (-k);
#X text 29 139 Escala de Do mayor en intervalos tomando Do como referencia.
;
#X obj 600 53 nbx 3 19 30 300 0 1 empty empty BPM 0 -8 0 12 #00ff04
#000000 #000000 120 256;
#X msg 600 77 60000 \$1;
#X obj 600 101 /;
#X obj 600 125 / 4;
#X obj 558 143 tgl 19 0 empty empty empty 17 7 0 10 #00ff04 #000000
#000000 0 1;
#X obj 558 177 metro;
#X floatatom 600 149 5 0 0 0 - - - 0;
#X obj 558 201 bng 19 250 50 0 empty empty empty 17 7 0 10 #faff00
#000000 #000000;
#X obj 558 225 i;
#X obj 598 225 + 1;
#X obj 558 273 t b f;
#X obj 827 286 random 21;
#X obj 809 364 t f f;
#X obj 809 398 % 7;
#X obj 809 422 tabread \$0-scale;
#X obj 921 466 +;
#X obj 939 398 div 7;
#X obj 939 422 * 12;
#X floatatom 921 490 5 0 0 0 - - - 0;
#X obj 921 513 + 48;
#X obj 951 537 makenote 127 250;
#X obj 951 585 pack f f f;
#X obj 951 657 throw~ \$0-output;
#X obj 610 302 sel 0;
#X obj 558 319 t b b;
#X obj 809 315 f;
#X msg 1300 579 all \$1;
#X obj 1328 521 + 1;
#X obj 1005 340 + 1;
#X floatatom 1005 364 5 0 0 0 - - - 0;
#X obj 951 633 /~ 1;
#X obj 1300 550 f;
#X obj 951 561 poly 1 1;
#X obj 951 609 clone -s 1 fm-synth~ 1 \$0;
#X text 19 28 Implementado los metodos de probablidad ritmicos y a
otros parametros podemos generar melodias mas complejas.;
#X text 9 10 Melodia Compleja ––––––;
#X obj 1080 496 /;
#X obj 610 326 bng 19 250 50 0 empty empty empty 17 7 0 10 #00faff
#000000 #000000;
#X obj 610 350 s \$0-reset;
#X obj 558 471 random 100;
#X obj 558 519 sel 1;
#X obj 558 543 bng 19 250 50 0 empty empty empty 17 7 0 10 #faff00
#000000 #000000;
#X obj 558 567 s \$0-trigger;
#X obj 590 379 s \$0-clock;
#X obj 809 175 r \$0-trigger;
#X obj 578 408 r \$0-reset;
#X obj 827 204 r \$0-clock;
#X obj 857 233 r \$0-reset;
#X obj 1005 229 r \$0-clock;
#X obj 1035 258 r \$0-reset;
#X obj 1005 311 random 127;
#X obj 1080 366 r \$0-clock;
#X obj 1110 395 r \$0-reset;
#X obj 1080 448 random 16;
#X obj 1328 415 r \$0-clock;
#X obj 1358 444 r \$0-reset;
#X obj 1328 497 random 16;
#X obj 1300 386 r \$0-trigger;
#X text 1300 362 Cambia ratio del FM;
#X text 1009 205 Secuencia Velocidad;
#X text 1077 342 Secuencia Duracion de la nota;
#X text 812 149 Secuencia Notas;
#X obj 558 495 < 40;
#X text 636 492 <- Probabilidad;
#X text 639 324 <- Reiniciar semilla;
#X msg 578 432 seed 54;
#X msg 857 257 seed 51671;
#X msg 1035 282 seed 51670;
#X msg 1358 468 seed 518542;
#X msg 1080 472 500 \$1;
#X msg 1110 419 seed 51617;
#X obj 558 249 % 32;
#X connect 0 0 1 0;
#X connect 1 0 2 0;
#X connect 2 0 3 0;
#X connect 2 0 3 1;
#X connect 4 0 5 0;
#X connect 5 0 6 0;
#X connect 6 0 7 0;
#X connect 8 0 9 0;
#X connect 9 0 7 0;
#X connect 9 0 11 0;
#X connect 11 0 0 0;
#X connect 12 0 13 0;
#X connect 17 0 18 0;
#X connect 18 0 19 0;
#X connect 19 0 20 0;
#X connect 20 0 23 0;
#X connect 21 0 22 0;
#X connect 22 0 24 0;
#X connect 23 0 22 1;
#X connect 24 0 25 0;
#X connect 25 0 26 0;
#X connect 25 0 88 0;
#X connect 26 0 25 1;
#X connect 27 0 41 0;
#X connect 27 1 40 0;
#X connect 28 0 42 1;
#X connect 29 0 30 0;
#X connect 29 1 33 0;
#X connect 30 0 31 0;
#X connect 31 0 32 0;
#X connect 32 0 35 0;
#X connect 33 0 34 0;
#X connect 34 0 32 1;
#X connect 35 0 36 0;
#X connect 36 0 37 0;
#X connect 37 0 49 0;
#X connect 37 1 49 1;
#X connect 38 0 50 0;
#X connect 40 0 54 0;
#X connect 41 0 56 0;
#X connect 41 1 60 0;
#X connect 42 0 29 0;
#X connect 43 0 50 1;
#X connect 44 0 48 1;
#X connect 45 0 46 0;
#X connect 46 0 37 1;
#X connect 47 0 39 0;
#X connect 48 0 43 0;
#X connect 49 0 38 0;
#X connect 49 1 38 1;
#X connect 49 2 38 2;
#X connect 50 0 47 0;
#X connect 53 0 37 2;
#X connect 54 0 55 0;
#X connect 56 0 79 0;
#X connect 57 0 58 0;
#X connect 58 0 59 0;
#X connect 61 0 42 0;
#X connect 62 0 82 0;
#X connect 63 0 28 0;
#X connect 64 0 83 0;
#X connect 65 0 67 0;
#X connect 66 0 84 0;
#X connect 67 0 45 0;
#X connect 68 0 70 0;
#X connect 69 0 87 0;
#X connect 70 0 86 0;
#X connect 71 0 73 0;
#X connect 72 0 85 0;
#X connect 73 0 44 0;
#X connect 74 0 48 0;
#X connect 79 0 57 0;
#X connect 82 0 56 0;
#X connect 83 0 28 0;
#X connect 84 0 67 0;
#X connect 85 0 73 0;
#X connect 86 0 53 0;
#X connect 87 0 70 0;
#X connect 88 0 27 0;
