#N canvas 0 22 1920 1036 12;
#X obj 23 370 hip~ 3;
#X obj 23 394 clip~ -1 1;
#X obj 23 418 /~ 2;
#X obj 23 442 dac~ 1 2;
#X obj 159 250 loadbang;
#X obj 159 273 tgl 18 0 empty empty empty 17 7 0 10 #fcfcfc #000000
#000000 0 1;
#X obj 159 296 metro 100;
#X obj 159 320 tabwrite~ \$0-scope;
#X obj 23 272 catch~ \$0-output;
#X obj 23 301 *~ 1;
#N canvas 0 22 450 278 (subpatch) 0;
#X array \$0-scope 441 float 0;
#X coords 0 1 440 -1 200 140 1;
#X restore 309 250 graph;
#X obj 23 346 /~ 4;
#X msg 29 159 0 2 4 5 7 9 11;
#X obj 29 183 array set \$0-scale;
#X obj 29 107 array define -k \$0-scale 7;
#A 0 0 2 4 5 7 9 11;
#X text 29 87 Crea array de 7 pasos y guarda sus contenidos (-k);
#X text 29 139 Escala de Do mayor en intervalos tomando Do como referencia.
;
#X obj 600 53 nbx 3 19 30 300 0 1 empty empty BPM 0 -8 0 12 #00ff04
#000000 #000000 120 256;
#X msg 600 77 60000 \$1;
#X obj 600 101 /;
#X obj 600 125 / 4;
#X obj 558 143 tgl 19 0 empty empty empty 17 7 0 10 #00ff04 #000000
#000000 0 1;
#X obj 558 177 metro;
#X floatatom 600 149 5 0 0 0 - - - 0;
#X obj 558 201 bng 19 250 50 0 empty empty empty 17 7 0 10 #faff00
#000000 #000000;
#X obj 558 225 i;
#X obj 598 225 + 1;
#X obj 558 273 change -1;
#X obj 558 297 t b f;
#X obj 620 329 % 4;
#X obj 620 353 sel 0;
#X obj 558 391 bng 19 250 50 0 empty empty empty 17 7 0 10 #fcfcfc
#000000 #000000;
#X obj 558 415 t b b;
#X obj 558 463 until;
#X obj 604 437 s \$0-new;
#X obj 558 487 t b b;
#X obj 558 603 i;
#X obj 593 602 +;
#X obj 576 539 r \$0-new;
#X msg 576 563 0;
#X obj 576 632 r \$0-new;
#X obj 558 751 +;
#X obj 971 399 poly 6 1;
#X obj 971 423 pack f f f;
#X obj 971 471 /~ 4;
#X obj 971 495 throw~ \$0-output;
#X obj 859 185 t f f;
#X obj 859 219 % 7;
#X obj 859 243 tabread \$0-scale;
#X obj 971 287 +;
#X obj 989 219 div 7;
#X obj 989 243 * 12;
#X obj 620 378 bng 19 250 50 0 empty empty empty 17 7 0 10 #fcfcfc
#000000 #000000;
#X obj 620 402 s \$0-reset;
#X obj 673 471 r \$0-reset;
#X obj 616 661 r \$0-reset;
#X msg 558 439 4;
#X obj 576 722 random 14;
#X obj 971 364 makenote 127 2000;
#X obj 558 249 div 16;
#X msg 616 685 seed 17686;
#X obj 971 447 clone -s 1 moog-synth~ 6;
#X obj 558 775 s \$0-notes;
#X obj 859 156 r \$0-notes;
#X text 656 721 <- Genera nota base;
#X text 371 530 Reinicia el contador ->;
#X text 727 529 <- Genera intervalos;
#X obj 656 526 random 3;
#X obj 971 335 + 40;
#X obj 655 550 + 3;
#X msg 673 495 seed 11636;
#X text 689 550 <- intervalo minimo;
#X text 666 437 <- Genera nuevo acorde;
#X text 701 398 <- reinicia semillas;
#X text 857 131 Recibe Acorde;
#X text 9 10 Generacion de acordes ––––––;
#X text 19 28 Usando el objeto until con contadores y numeros aleatorios
podemos generar una serie de numeros con intervalos para crear acordes.
;
#X connect 0 0 1 0;
#X connect 1 0 2 0;
#X connect 2 0 3 0;
#X connect 2 0 3 1;
#X connect 4 0 5 0;
#X connect 5 0 6 0;
#X connect 6 0 7 0;
#X connect 8 0 9 0;
#X connect 9 0 7 0;
#X connect 9 0 11 0;
#X connect 11 0 0 0;
#X connect 12 0 13 0;
#X connect 17 0 18 0;
#X connect 18 0 19 0;
#X connect 19 0 20 0;
#X connect 20 0 23 0;
#X connect 21 0 22 0;
#X connect 22 0 24 0;
#X connect 23 0 22 1;
#X connect 24 0 25 0;
#X connect 25 0 26 0;
#X connect 25 0 59 0;
#X connect 26 0 25 1;
#X connect 27 0 28 0;
#X connect 28 0 31 0;
#X connect 28 1 29 0;
#X connect 29 0 30 0;
#X connect 30 0 52 0;
#X connect 31 0 32 0;
#X connect 32 0 56 0;
#X connect 32 1 34 0;
#X connect 33 0 35 0;
#X connect 35 0 36 0;
#X connect 35 1 67 0;
#X connect 36 0 37 0;
#X connect 36 0 41 0;
#X connect 37 0 36 1;
#X connect 38 0 39 0;
#X connect 39 0 36 1;
#X connect 40 0 57 0;
#X connect 41 0 62 0;
#X connect 42 0 43 0;
#X connect 42 1 43 1;
#X connect 42 2 43 2;
#X connect 43 0 61 0;
#X connect 44 0 45 0;
#X connect 46 0 47 0;
#X connect 46 1 50 0;
#X connect 47 0 48 0;
#X connect 48 0 49 0;
#X connect 49 0 68 0;
#X connect 50 0 51 0;
#X connect 51 0 49 1;
#X connect 52 0 53 0;
#X connect 54 0 70 0;
#X connect 55 0 60 0;
#X connect 56 0 33 0;
#X connect 57 0 41 1;
#X connect 58 0 42 0;
#X connect 58 1 42 1;
#X connect 59 0 27 0;
#X connect 60 0 57 0;
#X connect 61 0 44 0;
#X connect 63 0 46 0;
#X connect 67 0 69 0;
#X connect 68 0 58 0;
#X connect 69 0 37 1;
#X connect 70 0 67 0;
