#N canvas 0 22 1920 1036 12;
#X obj 304 654 hip~ 3;
#X obj 304 678 clip~ -1 1;
#X obj 304 702 /~ 2;
#X obj 304 726 dac~ 1 2;
#X obj 485 540 loadbang;
#X obj 485 563 tgl 18 0 empty empty empty 17 7 0 10 #fcfcfc #000000
#000000 0 1;
#X obj 485 586 metro 100;
#X obj 485 610 tabwrite~ \$0-scope;
#N canvas 0 22 450 278 (subpatch) 0;
#X array \$0-scope 441 float 0;
#X coords 0 1 440 -1 200 140 1;
#X restore 21 490 graph;
#X obj 133 17 cnv 7 7 140 empty empty Vanilla\\\ Phaser 12 8 0 16 #faff00
#faff00 0;
#X obj 304 630 /~ 8;
#X obj 304 591 *~ 1;
#X msg 180 49 open ./guitar.wav \, start;
#X obj 180 72 readsf~;
#X obj 304 539 catch~ \$0-output;
#X obj 180 398 throw~ \$0-output;
#X obj 180 360 +~;
#X obj 326 162 rpole~;
#X obj 326 137 rzero_rev~;
#X obj 326 211 rpole~;
#X obj 326 186 rzero_rev~;
#X obj 326 259 rpole~;
#X obj 326 234 rzero_rev~;
#X obj 326 308 rpole~;
#X obj 326 283 rzero_rev~;
#X obj 394 35 phasor~ 0.3;
#X obj 394 58 -~ 0.5;
#X obj 394 81 abs~;
#X obj 394 104 *~ 2;
#X obj 549 59 cnv 7 7 140 empty empty External\\\ Phaser 12 8 0 16
#faff00 #faff00 0;
#X msg 596 91 open ./guitar.wav \, start;
#X obj 596 114 readsf~;
#X obj 731 201 else/allpass.2nd~;
#X obj 731 231 else/allpass.2nd~;
#X obj 819 -12 phasor~ 0.3;
#X obj 819 11 -~ 0.5;
#X obj 819 34 abs~;
#X obj 819 57 *~ 2;
#X obj 819 100 *~ 60;
#X obj 819 146 mtof~;
#X obj 819 123 +~ 30;
#X text 853 39 Triangulo 0 a 1;
#X obj 593 264 +~;
#X obj 593 307 throw~ \$0-output;
#X obj 850 173 sig~ 1.4;
#X connect 0 0 1 0;
#X connect 1 0 2 0;
#X connect 2 0 3 0;
#X connect 2 0 3 1;
#X connect 4 0 5 0;
#X connect 5 0 6 0;
#X connect 6 0 7 0;
#X connect 10 0 0 0;
#X connect 11 0 7 0;
#X connect 11 0 10 0;
#X connect 12 0 13 0;
#X connect 13 0 18 0;
#X connect 13 0 16 0;
#X connect 14 0 11 0;
#X connect 16 0 15 0;
#X connect 17 0 20 0;
#X connect 18 0 17 0;
#X connect 19 0 22 0;
#X connect 20 0 19 0;
#X connect 21 0 24 0;
#X connect 22 0 21 0;
#X connect 23 0 16 1;
#X connect 24 0 23 0;
#X connect 25 0 26 0;
#X connect 26 0 27 0;
#X connect 27 0 28 0;
#X connect 28 0 18 1;
#X connect 28 0 24 1;
#X connect 28 0 23 1;
#X connect 28 0 22 1;
#X connect 28 0 21 1;
#X connect 28 0 20 1;
#X connect 28 0 19 1;
#X connect 28 0 17 1;
#X connect 30 0 31 0;
#X connect 31 0 42 0;
#X connect 31 0 32 0;
#X connect 32 0 33 0;
#X connect 33 0 42 1;
#X connect 34 0 35 0;
#X connect 35 0 36 0;
#X connect 36 0 37 0;
#X connect 37 0 38 0;
#X connect 38 0 40 0;
#X connect 39 0 32 1;
#X connect 39 0 33 1;
#X connect 40 0 39 0;
#X connect 42 0 43 0;
#X connect 44 0 32 2;
#X connect 44 0 33 2;
