#N canvas 0 22 1920 1036 12;
#X obj 278 869 hip~ 3;
#X obj 278 893 clip~ -1 1;
#X obj 278 917 /~ 2;
#X obj 278 941 dac~ 1 2;
#X obj 459 755 loadbang;
#X obj 459 778 tgl 18 0 empty empty empty 17 7 0 10 #fcfcfc #000000
#000000 0 1;
#X obj 459 801 metro 100;
#X obj 459 825 tabwrite~ \$0-scope;
#N canvas 0 22 450 278 (subpatch) 0;
#X array \$0-scope 441 float 0;
#X coords 0 1 440 -1 200 140 1;
#X restore 767 312 graph;
#X obj 278 806 *~ 1;
#X obj 230 -47 cnv 7 7 140 empty empty Allpass\\\ Delay\\\ Vanilla
12 8 0 16 #faff00 #faff00 0;
#X obj 279 -19 bng 15 250 50 0 empty empty empty 17 7 0 10 #fcfcfc
#000000 #000000;
#X msg 279 1 1 \, 0 50;
#X obj 279 24 line~;
#X obj 279 47 *~;
#X obj 386 10 noise~;
#X obj 297 696 throw~ \$0-output;
#X msg 473 1 open ./guitar.wav \, start;
#X obj 463 30 readsf~;
#X obj 289 377 +~;
#X obj 339 413 delwrite~ \$0-delay 8000;
#X obj 487 225 hip~ 100;
#X text 639 270 <- Difusion network;
#X obj 284 743 catch~ \$0-output;
#X obj 1001 178 bng 15 250 50 0 empty empty empty 17 7 0 10 #fcfcfc
#000000 #000000;
#X obj 1001 198 random 100;
#X floatatom 1001 221 5 0 0 0 - - - 0;
#X obj 1113 174 bng 15 250 50 0 empty empty empty 17 7 0 10 #fcfcfc
#000000 #000000;
#X obj 1113 194 random 201;
#X obj 1113 217 / 100;
#X obj 1113 240 - 1;
#X floatatom 1113 263 5 0 0 0 - - - 0;
#X obj 487 197 lop~ 4000;
#X obj 488 338 lop~ 4000;
#X obj 488 364 *~ 0.9;
#X obj 492 137 +~;
#X obj 621 108 osc~ 1;
#X obj 487 169 delread4~ \$0-delay;
#X text 492 72 Delay time (ms);
#X text 620 87 LFO -> Delay time;
#X text 522 147 33 + (-1 a 1) = 32 a 34 ms;
#X obj 397 480 delread~ \$0-delay 50;
#X obj 301 529 -~;
#X obj 397 503 *~ 0.5;
#X obj 420 535 delread~ \$0-delay 11;
#X obj 301 582 +~;
#X obj 420 558 *~ 0.25;
#X text 401 454 Multitap Delay ––––––––––;
#X text 560 206 <- Damper;
#X text 561 335 <- Damper;
#X text 536 361 <- Reverb Time;
#X obj 488 295 allpass.del~ 95 0.5;
#X obj 488 272 allpass.del~ 74 0.5;
#X obj 488 249 allpass.del~ 56 -0.5;
#X obj 494 93 sig~ 73;
#X obj 293 232 allpass.del~ 55 -0.5;
#X obj 293 186 allpass.del~ 83 -0.5;
#X obj 293 209 allpass.del~ 41 0.5;
#X obj 278 845 /~ 4;
#X text 111 197 Early reflections ->;
#X text 996 145 Generadores random;
#X obj 635 486 hsl 128 15 0 1 0 1 empty empty Mix\ (0\ a\ 1) -2 -8
0 10 #faff00 #000000 #000000 2350 1;
#X floatatom 632 506 5 0 0 0 - - - 0;
#X obj 307 103 s~ \$0-input-rev;
#X obj 304 140 r~ \$0-input-rev;
#X obj 491 606 r~ \$0-input-rev;
#X obj 493 646 *~;
#X obj 303 650 *~;
#X msg 632 528 \$1 20;
#X obj 630 551 line~;
#X obj 613 598 sig~ 1;
#X obj 613 621 -~;
#X obj 491 681 throw~ \$0-output;
#X text 312 77 Entrada del Reverb;
#X connect 0 0 1 0;
#X connect 1 0 2 0;
#X connect 2 0 3 0;
#X connect 2 0 3 1;
#X connect 4 0 5 0;
#X connect 5 0 6 0;
#X connect 6 0 7 0;
#X connect 9 0 7 0;
#X connect 9 0 58 0;
#X connect 11 0 12 0;
#X connect 12 0 13 0;
#X connect 13 0 14 0;
#X connect 15 0 14 1;
#X connect 17 0 18 0;
#X connect 19 0 20 0;
#X connect 19 0 42 0;
#X connect 21 0 53 0;
#X connect 23 0 9 0;
#X connect 24 0 25 0;
#X connect 25 0 26 0;
#X connect 27 0 28 0;
#X connect 28 0 29 0;
#X connect 29 0 30 0;
#X connect 30 0 31 0;
#X connect 32 0 21 0;
#X connect 33 0 34 0;
#X connect 34 0 19 1;
#X connect 35 0 37 0;
#X connect 36 0 35 1;
#X connect 37 0 32 0;
#X connect 41 0 43 0;
#X connect 42 0 45 0;
#X connect 43 0 42 1;
#X connect 44 0 46 0;
#X connect 45 0 67 0;
#X connect 46 0 45 1;
#X connect 51 0 33 0;
#X connect 52 0 51 0;
#X connect 53 0 52 0;
#X connect 54 0 35 0;
#X connect 55 0 19 0;
#X connect 56 0 57 0;
#X connect 57 0 55 0;
#X connect 58 0 0 0;
#X connect 61 0 62 0;
#X connect 62 0 68 0;
#X connect 64 0 56 0;
#X connect 65 0 66 0;
#X connect 66 0 72 0;
#X connect 67 0 16 0;
#X connect 68 0 69 0;
#X connect 69 0 71 1;
#X connect 69 0 67 1;
#X connect 70 0 71 0;
#X connect 71 0 66 1;
