#N canvas 1 22 1920 1036 12;
#X obj 134 410 line~;
#X floatatom 265 261 5 0 0 0 - - - 0;
#X obj 133 358 f;
#X obj 272 479 *~;
#X obj 265 283 t f f;
#X obj 256 419 * 44.1;
#X text 310 421 <- ms a samples;
#X obj 272 502 +~;
#X obj 467 459 * 44.1;
#X floatatom 466 422 5 0 0 0 - - - 0;
#X obj 395 197 mtof;
#X obj 395 220 / 440;
#X obj 344 330 *;
#X obj 395 295 t b f;
#X floatatom 218 348 5 0 0 0 - - - 0;
#X msg 395 243 1 \$1;
#X obj 395 266 /;
#X obj 107 101 loadbang;
#X msg 107 124 1;
#X obj 122 211 t b b;
#X obj 225 124 t f f;
#X obj 205 552 *~;
#X text 447 247 <-f req a ratio;
#X text 437 194 <- midi a freq;
#X text -4 496 window ->;
#X text 275 241 duration;
#X text 378 327 <- vel. de reproduccion;
#X obj 397 170 r \$0-midi;
#X obj 212 789 outlet~;
#X text 470 374 // offset / start;
#X obj 210 698 /~ 1;
#X obj 225 101 + 100;
#X obj 107 147 metro 100;
#X msg 135 386 0 \, 1 \$1;
#X obj 466 399 random 1000;
#X obj 106 448 *~ 1024;
#X obj 106 471 +~ 1;
#X obj 272 525 +~ 1;
#X obj 122 234 bng 15 250 50 0 empty empty empty 17 7 0 10 #fcfcfc
#000000 #000000;
#X obj 679 415 line~;
#X floatatom 810 266 5 0 0 0 - - - 0;
#X obj 678 363 f;
#X obj 817 484 *~;
#X obj 810 288 t f f;
#X obj 801 424 * 44.1;
#X text 855 426 <- ms a samples;
#X obj 817 507 +~;
#X obj 1012 464 * 44.1;
#X floatatom 1011 427 5 0 0 0 - - - 0;
#X obj 940 202 mtof;
#X obj 940 225 / 440;
#X obj 889 335 *;
#X obj 940 300 t b f;
#X floatatom 763 353 5 0 0 0 - - - 0;
#X msg 940 248 1 \$1;
#X obj 940 271 /;
#X obj 652 106 loadbang;
#X msg 652 129 1;
#X obj 667 216 t b b;
#X obj 770 129 t f f;
#X obj 750 557 *~;
#X text 992 252 <-f req a ratio;
#X text 982 199 <- midi a freq;
#X text 820 246 duration;
#X text 923 332 <- vel. de reproduccion;
#X obj 942 175 r \$0-midi;
#X text 1015 379 // offset / start;
#X obj 770 106 + 100;
#X obj 652 152 metro 100;
#X msg 680 391 0 \, 1 \$1;
#X obj 1011 404 random 1000;
#X obj 651 453 *~ 1024;
#X obj 651 476 +~ 1;
#X obj 817 530 +~ 1;
#X obj 667 239 bng 15 250 50 0 empty empty empty 17 7 0 10 #fcfcfc
#000000 #000000;
#X obj 1218 409 line~;
#X floatatom 1349 260 5 0 0 0 - - - 0;
#X obj 1217 357 f;
#X obj 1356 478 *~;
#X obj 1349 282 t f f;
#X obj 1340 418 * 44.1;
#X text 1394 420 <- ms a samples;
#X obj 1356 501 +~;
#X obj 1551 458 * 44.1;
#X floatatom 1550 421 5 0 0 0 - - - 0;
#X obj 1479 196 mtof;
#X obj 1479 219 / 440;
#X obj 1428 329 *;
#X obj 1479 294 t b f;
#X floatatom 1302 347 5 0 0 0 - - - 0;
#X msg 1479 242 1 \$1;
#X obj 1479 265 /;
#X obj 1191 100 loadbang;
#X msg 1191 123 1;
#X obj 1206 210 t b b;
#X obj 1309 123 t f f;
#X obj 1289 551 *~;
#X text 1531 246 <-f req a ratio;
#X text 1521 193 <- midi a freq;
#X text 1359 240 duration;
#X text 1462 326 <- vel. de reproduccion;
#X obj 1481 169 r \$0-midi;
#X text 1554 373 // offset / start;
#X obj 1309 100 + 100;
#X obj 1191 146 metro 100;
#X msg 1219 385 0 \, 1 \$1;
#X obj 1550 398 random 1000;
#X obj 1190 447 *~ 1024;
#X obj 1190 470 +~ 1;
#X obj 1356 524 +~ 1;
#X obj 1206 233 bng 15 250 50 0 empty empty empty 17 7 0 10 #fcfcfc
#000000 #000000;
#X obj 225 78 random 200;
#X obj 770 83 random 200;
#X obj 1309 77 random 200;
#X obj 989 39 inlet;
#X obj 989 63 unpack f f;
#X obj 989 87 s \$0-midi;
#X obj 1085 95 s \$0-velocity;
#X obj 1180 654 r \$0-velocity;
#X obj 1180 677 > 0;
#X obj 1180 700 sel 0 1;
#X msg 1180 723 0 2000;
#X msg 1240 723 1 1000;
#X obj 1217 760 vline~;
#X obj 1217 783 pow~ 2;
#X obj 210 722 *~;
#X obj 651 499 tabread4~ \$2-window;
#X obj 850 565 tabread4~ \$2-rec;
#X obj 305 560 tabread4~ \$2-rec;
#X obj 106 494 tabread4~ \$2-window;
#X obj 1190 493 tabread4~ \$2-window;
#X obj 1389 559 tabread4~ \$2-rec;
#X connect 0 0 3 0;
#X connect 0 0 35 0;
#X connect 1 0 4 0;
#X connect 2 0 33 0;
#X connect 3 0 7 0;
#X connect 4 0 12 0;
#X connect 4 1 5 0;
#X connect 5 0 3 1;
#X connect 7 0 37 0;
#X connect 8 0 7 1;
#X connect 9 0 8 0;
#X connect 10 0 11 0;
#X connect 11 0 15 0;
#X connect 12 0 14 0;
#X connect 13 0 12 0;
#X connect 13 1 12 1;
#X connect 14 0 2 1;
#X connect 14 0 32 1;
#X connect 15 0 16 0;
#X connect 16 0 13 0;
#X connect 17 0 18 0;
#X connect 18 0 32 0;
#X connect 19 0 38 0;
#X connect 19 1 111 0;
#X connect 20 1 1 0;
#X connect 21 0 30 0;
#X connect 27 0 10 0;
#X connect 30 0 125 0;
#X connect 31 0 20 0;
#X connect 32 0 19 0;
#X connect 33 0 0 0;
#X connect 34 0 9 0;
#X connect 35 0 36 0;
#X connect 36 0 129 0;
#X connect 37 0 128 0;
#X connect 38 0 2 0;
#X connect 38 0 34 0;
#X connect 39 0 42 0;
#X connect 39 0 71 0;
#X connect 40 0 43 0;
#X connect 41 0 69 0;
#X connect 42 0 46 0;
#X connect 43 0 51 0;
#X connect 43 1 44 0;
#X connect 44 0 42 1;
#X connect 46 0 73 0;
#X connect 47 0 46 1;
#X connect 48 0 47 0;
#X connect 49 0 50 0;
#X connect 50 0 54 0;
#X connect 51 0 53 0;
#X connect 52 0 51 0;
#X connect 52 1 51 1;
#X connect 53 0 41 1;
#X connect 53 0 68 1;
#X connect 54 0 55 0;
#X connect 55 0 52 0;
#X connect 56 0 57 0;
#X connect 57 0 68 0;
#X connect 58 0 74 0;
#X connect 58 1 112 0;
#X connect 59 1 40 0;
#X connect 60 0 30 0;
#X connect 65 0 49 0;
#X connect 67 0 59 0;
#X connect 68 0 58 0;
#X connect 69 0 39 0;
#X connect 70 0 48 0;
#X connect 71 0 72 0;
#X connect 72 0 126 0;
#X connect 73 0 127 0;
#X connect 74 0 41 0;
#X connect 74 0 70 0;
#X connect 75 0 78 0;
#X connect 75 0 107 0;
#X connect 76 0 79 0;
#X connect 77 0 105 0;
#X connect 78 0 82 0;
#X connect 79 0 87 0;
#X connect 79 1 80 0;
#X connect 80 0 78 1;
#X connect 82 0 109 0;
#X connect 83 0 82 1;
#X connect 84 0 83 0;
#X connect 85 0 86 0;
#X connect 86 0 90 0;
#X connect 87 0 89 0;
#X connect 88 0 87 0;
#X connect 88 1 87 1;
#X connect 89 0 77 1;
#X connect 89 0 104 1;
#X connect 90 0 91 0;
#X connect 91 0 88 0;
#X connect 92 0 93 0;
#X connect 93 0 104 0;
#X connect 94 0 110 0;
#X connect 94 1 113 0;
#X connect 95 1 76 0;
#X connect 96 0 30 0;
#X connect 101 0 85 0;
#X connect 103 0 95 0;
#X connect 104 0 94 0;
#X connect 105 0 75 0;
#X connect 106 0 84 0;
#X connect 107 0 108 0;
#X connect 108 0 130 0;
#X connect 109 0 131 0;
#X connect 110 0 77 0;
#X connect 110 0 106 0;
#X connect 111 0 31 0;
#X connect 112 0 67 0;
#X connect 113 0 103 0;
#X connect 114 0 115 0;
#X connect 115 0 116 0;
#X connect 115 1 117 0;
#X connect 118 0 119 0;
#X connect 119 0 120 0;
#X connect 120 0 121 0;
#X connect 120 1 122 0;
#X connect 121 0 123 0;
#X connect 122 0 123 0;
#X connect 123 0 124 0;
#X connect 124 0 125 1;
#X connect 125 0 28 0;
#X connect 126 0 60 0;
#X connect 127 0 60 1;
#X connect 128 0 21 1;
#X connect 129 0 21 0;
#X connect 130 0 96 0;
#X connect 131 0 96 1;
