#N canvas 0 22 1920 1036 12;
#X obj 260 109 inlet;
#X obj 260 132 unpack f f;
#X floatatom 260 155 5 0 0 0 - - - 0;
#X text 218 157 MIDI;
#X obj 260 177 mtof;
#X floatatom 260 200 5 0 0 0 - - - 0;
#X obj 313 330 *~;
#X floatatom 569 179 5 0 0 0 - - - 0;
#X obj 569 201 > 0;
#X text 600 205 GAte;
#X text 611 181 Velocity;
#X floatatom 569 224 5 0 0 0 - - - 0;
#X obj 313 353 outlet~;
#X obj 431 51 loadbang;
#X obj 431 74 f \$0;
#X floatatom 431 97 5 0 0 0 - - - 0;
#X obj 442 28 bng 15 250 50 0 empty empty empty 17 7 0 10 #fcfcfc #000000
#000000;
#X obj 550 56 loadbang;
#X floatatom 550 107 5 0 0 0 - - - 0;
#X obj 561 33 bng 15 250 50 0 empty empty empty 17 7 0 10 #fcfcfc #000000
#000000;
#X obj 550 79 f \$1;
#X obj 658 51 loadbang;
#X floatatom 658 102 5 0 0 0 - - - 0;
#X obj 669 28 bng 15 250 50 0 empty empty empty 17 7 0 10 #fcfcfc #000000
#000000;
#X obj 659 74 f \$2;
#X obj 260 222 tabosc4~ \$2-wavetable;
#X connect 0 0 1 0;
#X connect 1 0 2 0;
#X connect 1 1 7 0;
#X connect 2 0 4 0;
#X connect 4 0 5 0;
#X connect 5 0 25 0;
#X connect 6 0 12 0;
#X connect 7 0 8 0;
#X connect 8 0 11 0;
#X connect 11 0 6 1;
#X connect 13 0 14 0;
#X connect 14 0 15 0;
#X connect 16 0 14 0;
#X connect 17 0 20 0;
#X connect 19 0 20 0;
#X connect 20 0 18 0;
#X connect 21 0 24 0;
#X connect 23 0 24 0;
#X connect 24 0 22 0;
#X connect 25 0 6 0;
