#N canvas 972 142 677 608 12;
#X obj 18 37 notein;
#N canvas 0 50 450 250 (subpatch) 0;
#X array scope 100 float 3;
#A 0 0.0512345 0.0507861 0.0504498 0.0501135 0.0496651 0.0492166 0.0488803
0.048544 0.0480956 0.0477593 0.0474229 0.0469745 0.0466382 0.0463019
0.0458534 0.0455171 0.0451808 0.0448445 0.0443961 0.0439476 0.0436113
0.0431629 0.0428266 0.0424902 0.0421539 0.0417055 0.0413692 0.0410328
0.0406965 0.0402481 0.0399118 0.0395754 0.0392391 0.0387907 0.0383422
0.0380059 0.0376696 0.0372212 0.0368848 0.0365485 0.0362122 0.0357638
0.0354274 0.0350911 0.0347548 0.0344185 0.03397 0.0336337 0.0331853
0.032961 0.0326247 0.0325126 0.0324005 0.0322884 0.0321763 0.0319521
0.03184 0.0317279 0.0316158 0.0315037 0.0312795 0.0311674 0.0310553
0.0309432 0.030831 0.0306068 0.0304947 0.0303826 0.0302705 0.0301583
0.0299341 0.029822 0.0297099 0.0295978 0.0294856 0.0293735 0.0291493
0.0290372 0.0289251 0.028813 0.0287008 0.0284766 0.0283645 0.0282524
0.0281403 0.0280281 0.027916 0.0276918 0.0274676 0.0273555 0.0272433
0.0271312 0.026907 0.0267949 0.0266828 0.0265706 0.0264585 0.0263464
0.0261222 0.0260101;
#X coords 0 1 100 -1 200 150 1 0 0;
#X restore 275 379 graph;
#X obj 501 395 vsl 15 128 1 1000 0 1 A empty A 0 -9 0 10 #fcfcfc #000000
#000000 7600 1;
#X obj 542 395 vsl 15 128 1 1000 0 1 D empty D 0 -9 0 10 #fcfcfc #000000
#000000 7600 1;
#X obj 580 396 vsl 15 128 0 1 0 1 S empty S 0 -9 0 10 #fcfcfc #000000
#000000 3600 1;
#X obj 624 394 vsl 15 128 0 1000 0 0 R empty R 0 -9 0 10 #fcfcfc #000000
#000000 0 1;
#X obj 275 172 vsl 15 128 1 1000 0 1 ENV\\\ ATT empty ENV\\\ ATT 0
-9 0 10 #fcfcfc #000000 #000000 0 1;
#X obj 326 173 vsl 15 128 1 1000 0 1 ENV\\\ DEC empty ENV\\\ DEC 0
-9 0 10 #fcfcfc #000000 #000000 3900 1;
#X obj 375 173 vsl 15 128 0 1 0 1 ENV\\\ SUS empty ENV\\\ SUS 0 -9
0 10 #fcfcfc #000000 #000000 6700 1;
#X obj 430 172 vsl 15 128 0 1000 0 0 ENV\\\ REL empty ENV\\\ REL 0
-9 0 10 #fcfcfc #000000 #000000 0 1;
#X obj 76 468 hsl 128 15 20 20000 1 1 CUTOFF empty CUTOFF -2 -8 0 10
#fcfcfc #000000 #000000 12700 1;
#X obj 335 338 hsl 128 15 20 20000 1 1 ENV\\\ AMOUNT empty ENV\\\ AMOUNT
-2 -8 0 10 #fcfcfc #000000 #000000 9900 1;
#X obj 510 267 hsl 128 15 20 20000 1 1 LFO\\\ AMOUNT empty LFO\\\ AMOUNT
-2 -8 0 10 #fcfcfc #000000 #000000 0 1;
#X obj 509 233 hsl 128 15 0.08 8 0 1 LFO\\\ FREQ empty LFO\\\ FREQ
-2 -8 0 10 #fcfcfc #000000 #000000 9700 1;
#X obj 507 196 hradio 15 1 0 2 LFO\\\ WAVEFORM empty LFO\\\ WAVEFORM
0 -8 0 10 #fcfcfc #000000 #000000 0;
#X obj 117 326 hradio 15 1 1 3 osc2WF empty osc2WF 0 -8 0 10 #fcfcfc
#000000 #000000 2;
#X obj 68 326 hradio 15 1 1 3 osc1WF empty osc1WF 0 -8 0 10 #fcfcfc
#000000 #000000 2;
#X obj 167 326 hradio 15 1 1 3 osc3WF empty osc3WF 0 -8 0 10 #fcfcfc
#000000 #000000 2;
#X floatatom 70 398 5 0 0 0 - - osc2Rel 0;
#X floatatom 120 420 5 0 0 0 - - osc3Rel 0;
#X obj 278 335 hradio 15 1 1 2 ENV\\\ SEL empty ENV\\\ SEL 0 -8 0 10
#fcfcfc #000000 #000000 1;
#X obj 77 35 tgl 15 0 empty empty empty 17 7 0 10 #fcfcfc #000000 #000000
0 1;
#X obj 76 510 hsl 128 15 0.1 3 1 1 RES empty RES -2 -8 0 10 #fcfcfc
#000000 #000000 0 1;
#X obj 123 397 hsl 128 15 -24 24 0 1 osc3Rel osc3Rel osc3Rel -2 -8
0 10 #fcfcfc #000000 #000000 8600 1;
#X obj 73 367 hsl 128 15 -24 24 0 1 osc2Rel osc2Rel osc2Rel -2 -8 0
10 #fcfcfc #000000 #000000 2400 1;
#X obj 154 35 hsl 128 15 10 1000 0 1 empty empty empty -2 -8 0 10 #fcfcfc
#000000 #000000 6000 1;
#X obj 83 172 vsl 15 128 0 1 0 1 osc1Vol empty osc1Vol 0 -9 0 10 #fcfcfc
#000000 #000000 12700 1;
#X obj 130 171 vsl 15 128 0 1 0 1 osc2Vol empty osc2Vol 0 -9 0 10 #fcfcfc
#000000 #000000 0 1;
#X obj 177 171 vsl 15 128 0 1 0 1 osc3Vol empty osc3Vol 0 -9 0 10 #fcfcfc
#000000 #000000 0 1;
#N canvas 1148 431 450 407 NotesARP 0;
#X obj 103 255 makenote 100 200;
#X obj 99 99 metro 200;
#X obj 99 152 sel 0 1 2 3 4 5 6 7 8 9;
#X msg 99 182 40;
#X msg 131 182 43;
#X msg 162 182 45;
#X msg 195 182 47;
#X msg 228 182 50;
#X msg 109 214 52;
#X msg 141 214 55;
#X floatatom 189 130 5 0 0 0 - - - 0;
#X obj 100 69 inlet;
#X obj 98 302 outlet;
#X obj 198 300 outlet;
#X obj 99 123 urn 10;
#X msg 179 103 clear \, bang;
#X obj 212 71 inlet;
#X msg 177 214 57;
#X msg 209 215 59;
#X msg 241 215 62;
#X connect 0 0 12 0;
#X connect 0 1 13 0;
#X connect 1 0 14 0;
#X connect 2 0 3 0;
#X connect 2 1 4 0;
#X connect 2 2 5 0;
#X connect 2 3 6 0;
#X connect 2 4 7 0;
#X connect 2 5 8 0;
#X connect 2 6 9 0;
#X connect 2 7 17 0;
#X connect 2 8 18 0;
#X connect 2 9 19 0;
#X connect 3 0 0 0;
#X connect 4 0 0 0;
#X connect 5 0 0 0;
#X connect 6 0 0 0;
#X connect 7 0 0 0;
#X connect 8 0 0 0;
#X connect 9 0 0 0;
#X connect 11 0 1 0;
#X connect 14 0 2 0;
#X connect 14 0 10 0;
#X connect 14 1 15 0;
#X connect 15 0 14 0;
#X connect 16 0 1 1;
#X connect 16 0 0 2;
#X connect 17 0 0 0;
#X connect 18 0 0 0;
#X connect 19 0 0 0;
#X restore 77 54 pd NotesARP;
#N canvas 1408 226 450 655 synth 0;
#X obj 8 103 pack f f f;
#X obj 97 510 tgl 15 0 empty empty empty 17 7 0 10 #fcfcfc #000000
#000000 0 1;
#X obj 9 612 dac~ 1 2;
#N canvas 93 35 1341 975 osc 0;
#X obj 346 4 inlet;
#X obj 247 228 phasor~;
#X obj 83 307 *~ 2;
#X obj 83 331 -~ 1;
#X obj 83 355 *~;
#X obj 158 305 -~ 0.5;
#X obj 158 329 *~ 1000;
#X obj 158 353 clip~ -1 1;
#X obj 158 377 *~;
#X obj 273 306 *~ -1;
#X obj 273 330 +~ 1;
#X obj 247 391 *~ 4;
#X obj 247 415 -~ 1;
#X obj 247 367 min~;
#X obj 247 439 *~;
#X obj 118 332 == 0;
#X obj 214 329 == 1;
#X obj 284 416 == 2;
#X obj 308 230 hradio 15 1 1 3 empty osc1WF WAVEFORM 0 -8 0 10 #fcfcfc
#000000 #000000 2;
#X obj 308 250 t f f f;
#X obj 524 234 phasor~;
#X obj 360 313 *~ 2;
#X obj 360 337 -~ 1;
#X obj 360 361 *~;
#X obj 435 311 -~ 0.5;
#X obj 435 335 *~ 1000;
#X obj 435 359 clip~ -1 1;
#X obj 435 383 *~;
#X obj 550 312 *~ -1;
#X obj 550 336 +~ 1;
#X obj 524 397 *~ 4;
#X obj 524 421 -~ 1;
#X obj 524 373 min~;
#X obj 524 445 *~;
#X obj 395 338 == 0;
#X obj 491 335 == 1;
#X obj 561 422 == 2;
#X obj 585 236 hradio 15 1 1 3 empty osc2WF WAVEFORM 0 -8 0 10 #fcfcfc
#000000 #000000 2;
#X obj 585 256 t f f f;
#X obj 247 197 mtof;
#X obj 524 200 mtof;
#X obj 524 126 t b f;
#X obj 524 162 +;
#X obj 801 234 phasor~;
#X obj 637 313 *~ 2;
#X obj 637 337 -~ 1;
#X obj 637 361 *~;
#X obj 712 311 -~ 0.5;
#X obj 712 335 *~ 1000;
#X obj 712 359 clip~ -1 1;
#X obj 712 383 *~;
#X obj 827 312 *~ -1;
#X obj 827 336 +~ 1;
#X obj 801 397 *~ 4;
#X obj 801 421 -~ 1;
#X obj 801 373 min~;
#X obj 801 445 *~;
#X obj 672 338 == 0;
#X obj 768 335 == 1;
#X obj 838 422 == 2;
#X obj 862 236 hradio 15 1 1 3 empty osc3WF WAVEFORM 0 -8 0 10 #fcfcfc
#000000 #000000 2;
#X obj 862 256 t f f f;
#X obj 801 200 mtof;
#X obj 714 145 t b f;
#X obj 714 181 +;
#X obj 84 459 +~;
#X obj 361 465 +~;
#X obj 638 465 +~;
#X obj 121 504 pack f 20;
#X obj 121 528 line~;
#X obj 83 548 *~;
#X obj 677 499 pack f 20;
#X obj 677 523 line~;
#X obj 639 543 *~;
#X obj 395 493 pack f 20;
#X obj 395 517 line~;
#X obj 360 535 *~;
#X obj 84 596 +~;
#X obj 84 629 /~ 3;
#X obj 677 474 r osc3Vol;
#X obj 395 469 r osc2Vol;
#X obj 121 474 r osc1Vol;
#X obj 308 110 r osc1WF;
#X obj 585 152 r osc2WF;
#X obj 862 188 r osc3WF;
#X obj 524 91 r osc2Rel;
#X obj 714 94 r osc3Rel;
#X obj 346 31 unpack f f;
#X obj 81 1003 else/lowpass~;
#X obj 81 979 -~ 1;
#X obj 413 70 > 0;
#X obj 646 1046 else/adsr~ 20 150 0.5 200 -log;
#X obj 375 1066 *~;
#X obj 728 903 vsl 15 128 1 1000 0 1 empty A empty 0 -9 0 10 #fcfcfc
#000000 #000000 7600 1;
#X obj 752 902 vsl 15 128 1 1000 0 1 empty D empty 0 -9 0 10 #fcfcfc
#000000 #000000 7600 1;
#X obj 777 903 vsl 15 128 0 1 0 1 empty S empty 0 -9 0 10 #fcfcfc #000000
#000000 3600 1;
#X obj 801 902 vsl 15 128 0 1000 0 0 empty R empty 0 -9 0 10 #fcfcfc
#000000 #000000 0 1;
#X obj 413 95 s \$0-gate;
#X obj 646 1018 r \$0-gate;
#X obj 382 749 else/adsr~ 20 150 0.5 200 -log;
#X obj 464 606 vsl 15 128 1 1000 0 1 empty ENV\\\ ATT empty 0 -9 0
10 #fcfcfc #000000 #000000 0 1;
#X obj 488 605 vsl 15 128 1 1000 0 1 empty ENV\\\ DEC empty 0 -9 0
10 #fcfcfc #000000 #000000 3900 1;
#X obj 513 605 vsl 15 128 0 1 0 1 empty ENV\\\ SUS empty 0 -9 0 10
#fcfcfc #000000 #000000 6700 1;
#X obj 537 605 vsl 15 128 0 1000 0 0 empty ENV\\\ REL empty 0 -9 0
10 #fcfcfc #000000 #000000 0 1;
#X obj 382 721 r \$0-gate;
#X obj 129 866 hsl 128 15 20 20000 1 1 empty CUTOFF CUTOFF -2 -8 0
10 #fcfcfc #000000 #000000 12700 1;
#X obj 126 887 sig~;
#X obj 126 921 +~;
#X obj 405 795 hsl 128 15 20 20000 1 1 empty ENV\\\ AMOUNT ENV\\\ AMOUNT
-2 -8 0 10 #fcfcfc #000000 #000000 9900 1;
#X obj 402 815 sig~;
#X obj 383 842 *~;
#X obj 168 978 sig~ 3;
#X obj 125 957 clip~ 0 20000;
#X obj 616 732 *~;
#X obj 668 803 sig~;
#X obj 671 782 hsl 128 15 20 20000 1 1 empty LFO\\\ AMOUNT LFO\\\ AMOUNT
-2 -8 0 10 #fcfcfc #000000 #000000 0 1;
#X obj 619 626 hsl 128 15 0.08 8 0 1 empty LFO\\\ FREQ LFO\\\ FREQ
-2 -8 0 10 #fcfcfc #000000 #000000 9700 1;
#X obj 616 675 *~ -1;
#X obj 616 699 +~ 1;
#X obj 698 655 -~ 0.5;
#X obj 698 679 *~ 1000;
#X obj 698 703 clip~ 0 1;
#X obj 698 727 *~;
#X obj 617 772 +~;
#X obj 617 821 *~;
#X obj 657 701 == 0;
#X obj 801 703 == 1;
#X obj 769 626 hradio 15 1 0 2 empty LFO\\\ WAVEFORM LFO\\\ WAVEFORM
0 -8 0 10 #fcfcfc #000000 #000000 0;
#X obj 769 653 t f f;
#X obj 382 876 *~;
#X obj 617 884 *~;
#X obj 413 843 == 0;
#X obj 635 843 == 1;
#X obj 544 804 hradio 15 1 1 2 empty ENV\\\ SEL empty 0 -8 0 10 #fcfcfc
#000000 #000000 1;
#X obj 544 824 t f f;
#X obj 616 651 phasor~;
#X obj 170 937 hsl 128 15 0.1 3 1 1 empty RES RES -2 -8 0 10 #fcfcfc
#000000 #000000 0 1;
#X obj 381 903 +~;
#X obj 375 1117 outlet~;
#X connect 0 0 87 0;
#X connect 1 0 2 0;
#X connect 1 0 5 0;
#X connect 1 0 9 0;
#X connect 1 0 13 0;
#X connect 2 0 3 0;
#X connect 3 0 4 0;
#X connect 4 0 65 0;
#X connect 5 0 6 0;
#X connect 6 0 7 0;
#X connect 7 0 8 0;
#X connect 8 0 65 1;
#X connect 9 0 10 0;
#X connect 10 0 13 1;
#X connect 11 0 12 0;
#X connect 12 0 14 0;
#X connect 13 0 11 0;
#X connect 14 0 65 1;
#X connect 15 0 4 1;
#X connect 16 0 8 1;
#X connect 17 0 14 1;
#X connect 18 0 19 0;
#X connect 19 0 15 0;
#X connect 19 1 16 0;
#X connect 19 2 17 0;
#X connect 20 0 21 0;
#X connect 20 0 24 0;
#X connect 20 0 28 0;
#X connect 20 0 32 0;
#X connect 21 0 22 0;
#X connect 22 0 23 0;
#X connect 23 0 66 0;
#X connect 24 0 25 0;
#X connect 25 0 26 0;
#X connect 26 0 27 0;
#X connect 27 0 66 1;
#X connect 28 0 29 0;
#X connect 29 0 32 1;
#X connect 30 0 31 0;
#X connect 31 0 33 0;
#X connect 32 0 30 0;
#X connect 33 0 66 1;
#X connect 34 0 23 1;
#X connect 35 0 27 1;
#X connect 36 0 33 1;
#X connect 37 0 38 0;
#X connect 38 0 34 0;
#X connect 38 1 35 0;
#X connect 38 2 36 0;
#X connect 39 0 1 0;
#X connect 39 0 42 0;
#X connect 39 0 64 0;
#X connect 40 0 20 0;
#X connect 41 0 42 0;
#X connect 41 1 42 1;
#X connect 42 0 40 0;
#X connect 43 0 44 0;
#X connect 43 0 47 0;
#X connect 43 0 51 0;
#X connect 43 0 55 0;
#X connect 44 0 45 0;
#X connect 45 0 46 0;
#X connect 46 0 67 0;
#X connect 47 0 48 0;
#X connect 48 0 49 0;
#X connect 49 0 50 0;
#X connect 50 0 67 1;
#X connect 51 0 52 0;
#X connect 52 0 55 1;
#X connect 53 0 54 0;
#X connect 54 0 56 0;
#X connect 55 0 53 0;
#X connect 56 0 67 1;
#X connect 57 0 46 1;
#X connect 58 0 50 1;
#X connect 59 0 56 1;
#X connect 60 0 61 0;
#X connect 61 0 57 0;
#X connect 61 1 58 0;
#X connect 61 2 59 0;
#X connect 62 0 43 0;
#X connect 63 0 64 0;
#X connect 63 1 64 1;
#X connect 64 0 62 0;
#X connect 65 0 70 0;
#X connect 66 0 76 0;
#X connect 67 0 73 0;
#X connect 68 0 69 0;
#X connect 69 0 70 1;
#X connect 70 0 77 0;
#X connect 71 0 72 0;
#X connect 72 0 73 1;
#X connect 73 0 77 1;
#X connect 74 0 75 0;
#X connect 75 0 76 1;
#X connect 76 0 77 1;
#X connect 77 0 78 0;
#X connect 78 0 89 0;
#X connect 79 0 71 0;
#X connect 80 0 74 0;
#X connect 81 0 68 0;
#X connect 82 0 18 0;
#X connect 83 0 37 0;
#X connect 84 0 60 0;
#X connect 85 0 41 0;
#X connect 86 0 63 0;
#X connect 87 0 39 0;
#X connect 87 1 90 0;
#X connect 88 0 92 0;
#X connect 89 0 88 0;
#X connect 90 0 97 0;
#X connect 91 0 92 1;
#X connect 92 0 138 0;
#X connect 93 0 91 1;
#X connect 94 0 91 2;
#X connect 95 0 91 3;
#X connect 96 0 91 4;
#X connect 98 0 91 0;
#X connect 99 0 110 0;
#X connect 100 0 99 1;
#X connect 101 0 99 2;
#X connect 102 0 99 3;
#X connect 103 0 99 4;
#X connect 104 0 99 0;
#X connect 105 0 106 0;
#X connect 106 0 107 0;
#X connect 107 0 112 0;
#X connect 108 0 109 0;
#X connect 109 0 110 1;
#X connect 110 0 129 0;
#X connect 111 0 88 2;
#X connect 112 0 88 1;
#X connect 113 0 123 0;
#X connect 114 0 124 1;
#X connect 115 0 114 0;
#X connect 116 0 135 0;
#X connect 117 0 118 0;
#X connect 118 0 113 0;
#X connect 119 0 120 0;
#X connect 120 0 121 0;
#X connect 121 0 122 0;
#X connect 122 0 123 1;
#X connect 123 0 124 0;
#X connect 124 0 130 0;
#X connect 125 0 113 1;
#X connect 126 0 122 1;
#X connect 127 0 128 0;
#X connect 128 0 125 0;
#X connect 128 1 126 0;
#X connect 129 0 137 0;
#X connect 130 0 137 1;
#X connect 131 0 129 1;
#X connect 132 0 130 1;
#X connect 133 0 134 0;
#X connect 134 0 131 0;
#X connect 134 1 132 0;
#X connect 135 0 117 0;
#X connect 135 0 119 0;
#X connect 136 0 111 0;
#X connect 137 0 107 1;
#X restore 8 239 pd osc;
#X obj 97 530 metro 100;
#X obj 7 314 hip~ 5;
#X obj 8 50 pack 0 0;
#X obj 8 127 route 1 2 3 4 5 6;
#N canvas 268 48 1341 959 osc 0;
#X obj 346 4 inlet;
#X obj 247 228 phasor~;
#X obj 83 307 *~ 2;
#X obj 83 331 -~ 1;
#X obj 83 355 *~;
#X obj 158 305 -~ 0.5;
#X obj 158 329 *~ 1000;
#X obj 158 353 clip~ -1 1;
#X obj 158 377 *~;
#X obj 273 306 *~ -1;
#X obj 273 330 +~ 1;
#X obj 247 391 *~ 4;
#X obj 247 415 -~ 1;
#X obj 247 367 min~;
#X obj 247 439 *~;
#X obj 118 332 == 0;
#X obj 214 329 == 1;
#X obj 284 416 == 2;
#X obj 308 230 hradio 15 1 1 3 empty osc1WF WAVEFORM 0 -8 0 10 #fcfcfc
#000000 #000000 2;
#X obj 308 250 t f f f;
#X obj 524 234 phasor~;
#X obj 360 313 *~ 2;
#X obj 360 337 -~ 1;
#X obj 360 361 *~;
#X obj 435 311 -~ 0.5;
#X obj 435 335 *~ 1000;
#X obj 435 359 clip~ -1 1;
#X obj 435 383 *~;
#X obj 550 312 *~ -1;
#X obj 550 336 +~ 1;
#X obj 524 397 *~ 4;
#X obj 524 421 -~ 1;
#X obj 524 373 min~;
#X obj 524 445 *~;
#X obj 395 338 == 0;
#X obj 491 335 == 1;
#X obj 561 422 == 2;
#X obj 585 236 hradio 15 1 1 3 empty osc2WF WAVEFORM 0 -8 0 10 #fcfcfc
#000000 #000000 2;
#X obj 585 256 t f f f;
#X obj 247 197 mtof;
#X obj 524 200 mtof;
#X obj 524 126 t b f;
#X obj 524 162 +;
#X obj 801 234 phasor~;
#X obj 637 313 *~ 2;
#X obj 637 337 -~ 1;
#X obj 637 361 *~;
#X obj 712 311 -~ 0.5;
#X obj 712 335 *~ 1000;
#X obj 712 359 clip~ -1 1;
#X obj 712 383 *~;
#X obj 827 312 *~ -1;
#X obj 827 336 +~ 1;
#X obj 801 397 *~ 4;
#X obj 801 421 -~ 1;
#X obj 801 373 min~;
#X obj 801 445 *~;
#X obj 672 338 == 0;
#X obj 768 335 == 1;
#X obj 838 422 == 2;
#X obj 862 236 hradio 15 1 1 3 empty osc3WF WAVEFORM 0 -8 0 10 #fcfcfc
#000000 #000000 2;
#X obj 862 256 t f f f;
#X obj 801 200 mtof;
#X obj 714 145 t b f;
#X obj 714 181 +;
#X obj 84 459 +~;
#X obj 361 465 +~;
#X obj 638 465 +~;
#X obj 121 504 pack f 20;
#X obj 121 528 line~;
#X obj 83 548 *~;
#X obj 677 499 pack f 20;
#X obj 677 523 line~;
#X obj 639 543 *~;
#X obj 395 493 pack f 20;
#X obj 395 517 line~;
#X obj 360 535 *~;
#X obj 84 596 +~;
#X obj 84 629 /~ 3;
#X obj 677 474 r osc3Vol;
#X obj 395 469 r osc2Vol;
#X obj 121 474 r osc1Vol;
#X obj 308 110 r osc1WF;
#X obj 585 152 r osc2WF;
#X obj 862 188 r osc3WF;
#X obj 524 91 r osc2Rel;
#X obj 714 94 r osc3Rel;
#X obj 346 31 unpack f f;
#X obj 81 1003 else/lowpass~;
#X obj 81 979 -~ 1;
#X obj 413 70 > 0;
#X obj 646 1046 else/adsr~ 20 150 0.5 200 -log;
#X obj 375 1066 *~;
#X obj 728 903 vsl 15 128 1 1000 0 1 empty A empty 0 -9 0 10 #fcfcfc
#000000 #000000 7600 1;
#X obj 752 902 vsl 15 128 1 1000 0 1 empty D empty 0 -9 0 10 #fcfcfc
#000000 #000000 7600 1;
#X obj 777 903 vsl 15 128 0 1 0 1 empty S empty 0 -9 0 10 #fcfcfc #000000
#000000 3600 1;
#X obj 801 902 vsl 15 128 0 1000 0 0 empty R empty 0 -9 0 10 #fcfcfc
#000000 #000000 0 1;
#X obj 382 749 else/adsr~ 20 150 0.5 200 -log;
#X obj 464 606 vsl 15 128 1 1000 0 1 empty ENV\\\ ATT empty 0 -9 0
10 #fcfcfc #000000 #000000 0 1;
#X obj 488 605 vsl 15 128 1 1000 0 1 empty ENV\\\ DEC empty 0 -9 0
10 #fcfcfc #000000 #000000 3900 1;
#X obj 513 605 vsl 15 128 0 1 0 1 empty ENV\\\ SUS empty 0 -9 0 10
#fcfcfc #000000 #000000 6700 1;
#X obj 537 605 vsl 15 128 0 1000 0 0 empty ENV\\\ REL empty 0 -9 0
10 #fcfcfc #000000 #000000 0 1;
#X obj 129 866 hsl 128 15 20 20000 1 1 empty CUTOFF CUTOFF -2 -8 0
10 #fcfcfc #000000 #000000 12700 1;
#X obj 126 887 sig~;
#X obj 126 921 +~;
#X obj 405 795 hsl 128 15 20 20000 1 1 empty ENV\\\ AMOUNT ENV\\\ AMOUNT
-2 -8 0 10 #fcfcfc #000000 #000000 9900 1;
#X obj 402 815 sig~;
#X obj 383 842 *~;
#X obj 168 978 sig~ 3;
#X obj 125 957 clip~ 0 20000;
#X obj 616 732 *~;
#X obj 668 803 sig~;
#X obj 671 782 hsl 128 15 20 20000 1 1 empty LFO\\\ AMOUNT LFO\\\ AMOUNT
-2 -8 0 10 #fcfcfc #000000 #000000 0 1;
#X obj 619 626 hsl 128 15 0.08 8 0 1 empty LFO\\\ FREQ LFO\\\ FREQ
-2 -8 0 10 #fcfcfc #000000 #000000 9700 1;
#X obj 616 675 *~ -1;
#X obj 616 699 +~ 1;
#X obj 698 655 -~ 0.5;
#X obj 698 679 *~ 1000;
#X obj 698 703 clip~ 0 1;
#X obj 698 727 *~;
#X obj 617 772 +~;
#X obj 617 821 *~;
#X obj 657 701 == 0;
#X obj 801 703 == 1;
#X obj 769 626 hradio 15 1 0 2 empty LFO\\\ WAVEFORM LFO\\\ WAVEFORM
0 -8 0 10 #fcfcfc #000000 #000000 0;
#X obj 769 653 t f f;
#X obj 382 876 *~;
#X obj 617 884 *~;
#X obj 413 843 == 0;
#X obj 635 843 == 1;
#X obj 544 804 hradio 15 1 1 2 empty ENV\\\ SEL empty 0 -8 0 10 #fcfcfc
#000000 #000000 1;
#X obj 544 824 t f f;
#X obj 616 651 phasor~;
#X obj 170 937 hsl 128 15 0.1 3 1 1 empty RES RES -2 -8 0 10 #fcfcfc
#000000 #000000 0 1;
#X obj 381 903 +~;
#X obj 375 1117 outlet~;
#X obj 413 95 s \$1-gate;
#X obj 382 721 r \$1-gate;
#X obj 646 1018 r \$1-gate;
#X connect 0 0 87 0;
#X connect 1 0 2 0;
#X connect 1 0 5 0;
#X connect 1 0 9 0;
#X connect 1 0 13 0;
#X connect 2 0 3 0;
#X connect 3 0 4 0;
#X connect 4 0 65 0;
#X connect 5 0 6 0;
#X connect 6 0 7 0;
#X connect 7 0 8 0;
#X connect 8 0 65 1;
#X connect 9 0 10 0;
#X connect 10 0 13 1;
#X connect 11 0 12 0;
#X connect 12 0 14 0;
#X connect 13 0 11 0;
#X connect 14 0 65 1;
#X connect 15 0 4 1;
#X connect 16 0 8 1;
#X connect 17 0 14 1;
#X connect 18 0 19 0;
#X connect 19 0 15 0;
#X connect 19 1 16 0;
#X connect 19 2 17 0;
#X connect 20 0 21 0;
#X connect 20 0 24 0;
#X connect 20 0 28 0;
#X connect 20 0 32 0;
#X connect 21 0 22 0;
#X connect 22 0 23 0;
#X connect 23 0 66 0;
#X connect 24 0 25 0;
#X connect 25 0 26 0;
#X connect 26 0 27 0;
#X connect 27 0 66 1;
#X connect 28 0 29 0;
#X connect 29 0 32 1;
#X connect 30 0 31 0;
#X connect 31 0 33 0;
#X connect 32 0 30 0;
#X connect 33 0 66 1;
#X connect 34 0 23 1;
#X connect 35 0 27 1;
#X connect 36 0 33 1;
#X connect 37 0 38 0;
#X connect 38 0 34 0;
#X connect 38 1 35 0;
#X connect 38 2 36 0;
#X connect 39 0 1 0;
#X connect 39 0 42 0;
#X connect 39 0 64 0;
#X connect 40 0 20 0;
#X connect 41 0 42 0;
#X connect 41 1 42 1;
#X connect 42 0 40 0;
#X connect 43 0 44 0;
#X connect 43 0 47 0;
#X connect 43 0 51 0;
#X connect 43 0 55 0;
#X connect 44 0 45 0;
#X connect 45 0 46 0;
#X connect 46 0 67 0;
#X connect 47 0 48 0;
#X connect 48 0 49 0;
#X connect 49 0 50 0;
#X connect 50 0 67 1;
#X connect 51 0 52 0;
#X connect 52 0 55 1;
#X connect 53 0 54 0;
#X connect 54 0 56 0;
#X connect 55 0 53 0;
#X connect 56 0 67 1;
#X connect 57 0 46 1;
#X connect 58 0 50 1;
#X connect 59 0 56 1;
#X connect 60 0 61 0;
#X connect 61 0 57 0;
#X connect 61 1 58 0;
#X connect 61 2 59 0;
#X connect 62 0 43 0;
#X connect 63 0 64 0;
#X connect 63 1 64 1;
#X connect 64 0 62 0;
#X connect 65 0 70 0;
#X connect 66 0 76 0;
#X connect 67 0 73 0;
#X connect 68 0 69 0;
#X connect 69 0 70 1;
#X connect 70 0 77 0;
#X connect 71 0 72 0;
#X connect 72 0 73 1;
#X connect 73 0 77 1;
#X connect 74 0 75 0;
#X connect 75 0 76 1;
#X connect 76 0 77 1;
#X connect 77 0 78 0;
#X connect 78 0 89 0;
#X connect 79 0 71 0;
#X connect 80 0 74 0;
#X connect 81 0 68 0;
#X connect 82 0 18 0;
#X connect 83 0 37 0;
#X connect 84 0 60 0;
#X connect 85 0 41 0;
#X connect 86 0 63 0;
#X connect 87 0 39 0;
#X connect 87 1 90 0;
#X connect 88 0 92 0;
#X connect 89 0 88 0;
#X connect 90 0 136 0;
#X connect 91 0 92 1;
#X connect 92 0 135 0;
#X connect 93 0 91 1;
#X connect 94 0 91 2;
#X connect 95 0 91 3;
#X connect 96 0 91 4;
#X connect 97 0 107 0;
#X connect 98 0 97 1;
#X connect 99 0 97 2;
#X connect 100 0 97 3;
#X connect 101 0 97 4;
#X connect 102 0 103 0;
#X connect 103 0 104 0;
#X connect 104 0 109 0;
#X connect 105 0 106 0;
#X connect 106 0 107 1;
#X connect 107 0 126 0;
#X connect 108 0 88 2;
#X connect 109 0 88 1;
#X connect 110 0 120 0;
#X connect 111 0 121 1;
#X connect 112 0 111 0;
#X connect 113 0 132 0;
#X connect 114 0 115 0;
#X connect 115 0 110 0;
#X connect 116 0 117 0;
#X connect 117 0 118 0;
#X connect 118 0 119 0;
#X connect 119 0 120 1;
#X connect 120 0 121 0;
#X connect 121 0 127 0;
#X connect 122 0 110 1;
#X connect 123 0 119 1;
#X connect 124 0 125 0;
#X connect 125 0 122 0;
#X connect 125 1 123 0;
#X connect 126 0 134 0;
#X connect 127 0 134 1;
#X connect 128 0 126 1;
#X connect 129 0 127 1;
#X connect 130 0 131 0;
#X connect 131 0 128 0;
#X connect 131 1 129 0;
#X connect 132 0 114 0;
#X connect 132 0 116 0;
#X connect 133 0 108 0;
#X connect 134 0 104 1;
#X connect 137 0 97 0;
#X connect 138 0 91 0;
#X restore 58 240 pd osc;
#N canvas 271 31 1341 959 osc 0;
#X obj 346 4 inlet;
#X obj 247 228 phasor~;
#X obj 83 307 *~ 2;
#X obj 83 331 -~ 1;
#X obj 83 355 *~;
#X obj 158 305 -~ 0.5;
#X obj 158 329 *~ 1000;
#X obj 158 353 clip~ -1 1;
#X obj 158 377 *~;
#X obj 273 306 *~ -1;
#X obj 273 330 +~ 1;
#X obj 247 391 *~ 4;
#X obj 247 415 -~ 1;
#X obj 247 367 min~;
#X obj 247 439 *~;
#X obj 118 332 == 0;
#X obj 214 329 == 1;
#X obj 284 416 == 2;
#X obj 308 230 hradio 15 1 1 3 empty osc1WF WAVEFORM 0 -8 0 10 #fcfcfc
#000000 #000000 2;
#X obj 308 250 t f f f;
#X obj 524 234 phasor~;
#X obj 360 313 *~ 2;
#X obj 360 337 -~ 1;
#X obj 360 361 *~;
#X obj 435 311 -~ 0.5;
#X obj 435 335 *~ 1000;
#X obj 435 359 clip~ -1 1;
#X obj 435 383 *~;
#X obj 550 312 *~ -1;
#X obj 550 336 +~ 1;
#X obj 524 397 *~ 4;
#X obj 524 421 -~ 1;
#X obj 524 373 min~;
#X obj 524 445 *~;
#X obj 395 338 == 0;
#X obj 491 335 == 1;
#X obj 561 422 == 2;
#X obj 585 236 hradio 15 1 1 3 empty osc2WF WAVEFORM 0 -8 0 10 #fcfcfc
#000000 #000000 2;
#X obj 585 256 t f f f;
#X obj 247 197 mtof;
#X obj 524 200 mtof;
#X obj 524 126 t b f;
#X obj 524 162 +;
#X obj 801 234 phasor~;
#X obj 637 313 *~ 2;
#X obj 637 337 -~ 1;
#X obj 637 361 *~;
#X obj 712 311 -~ 0.5;
#X obj 712 335 *~ 1000;
#X obj 712 359 clip~ -1 1;
#X obj 712 383 *~;
#X obj 827 312 *~ -1;
#X obj 827 336 +~ 1;
#X obj 801 397 *~ 4;
#X obj 801 421 -~ 1;
#X obj 801 373 min~;
#X obj 801 445 *~;
#X obj 672 338 == 0;
#X obj 768 335 == 1;
#X obj 838 422 == 2;
#X obj 862 236 hradio 15 1 1 3 empty osc3WF WAVEFORM 0 -8 0 10 #fcfcfc
#000000 #000000 2;
#X obj 862 256 t f f f;
#X obj 801 200 mtof;
#X obj 714 145 t b f;
#X obj 714 181 +;
#X obj 84 459 +~;
#X obj 361 465 +~;
#X obj 638 465 +~;
#X obj 121 504 pack f 20;
#X obj 121 528 line~;
#X obj 83 548 *~;
#X obj 677 499 pack f 20;
#X obj 677 523 line~;
#X obj 639 543 *~;
#X obj 395 493 pack f 20;
#X obj 395 517 line~;
#X obj 360 535 *~;
#X obj 84 596 +~;
#X obj 84 629 /~ 3;
#X obj 677 474 r osc3Vol;
#X obj 395 469 r osc2Vol;
#X obj 121 474 r osc1Vol;
#X obj 308 110 r osc1WF;
#X obj 585 152 r osc2WF;
#X obj 862 188 r osc3WF;
#X obj 524 91 r osc2Rel;
#X obj 714 94 r osc3Rel;
#X obj 346 31 unpack f f;
#X obj 81 1003 else/lowpass~;
#X obj 81 979 -~ 1;
#X obj 413 70 > 0;
#X obj 646 1046 else/adsr~ 20 150 0.5 200 -log;
#X obj 375 1066 *~;
#X obj 728 903 vsl 15 128 1 1000 0 1 empty A empty 0 -9 0 10 #fcfcfc
#000000 #000000 7600 1;
#X obj 752 902 vsl 15 128 1 1000 0 1 empty D empty 0 -9 0 10 #fcfcfc
#000000 #000000 7600 1;
#X obj 777 903 vsl 15 128 0 1 0 1 empty S empty 0 -9 0 10 #fcfcfc #000000
#000000 3600 1;
#X obj 801 902 vsl 15 128 0 1000 0 0 empty R empty 0 -9 0 10 #fcfcfc
#000000 #000000 0 1;
#X obj 382 749 else/adsr~ 20 150 0.5 200 -log;
#X obj 464 606 vsl 15 128 1 1000 0 1 empty ENV\\\ ATT empty 0 -9 0
10 #fcfcfc #000000 #000000 0 1;
#X obj 488 605 vsl 15 128 1 1000 0 1 empty ENV\\\ DEC empty 0 -9 0
10 #fcfcfc #000000 #000000 3900 1;
#X obj 513 605 vsl 15 128 0 1 0 1 empty ENV\\\ SUS empty 0 -9 0 10
#fcfcfc #000000 #000000 6700 1;
#X obj 537 605 vsl 15 128 0 1000 0 0 empty ENV\\\ REL empty 0 -9 0
10 #fcfcfc #000000 #000000 0 1;
#X obj 129 866 hsl 128 15 20 20000 1 1 empty CUTOFF CUTOFF -2 -8 0
10 #fcfcfc #000000 #000000 12700 1;
#X obj 126 887 sig~;
#X obj 126 921 +~;
#X obj 405 795 hsl 128 15 20 20000 1 1 empty ENV\\\ AMOUNT ENV\\\ AMOUNT
-2 -8 0 10 #fcfcfc #000000 #000000 9900 1;
#X obj 402 815 sig~;
#X obj 383 842 *~;
#X obj 168 978 sig~ 3;
#X obj 125 957 clip~ 0 20000;
#X obj 616 732 *~;
#X obj 668 803 sig~;
#X obj 671 782 hsl 128 15 20 20000 1 1 empty LFO\\\ AMOUNT LFO\\\ AMOUNT
-2 -8 0 10 #fcfcfc #000000 #000000 0 1;
#X obj 619 626 hsl 128 15 0.08 8 0 1 empty LFO\\\ FREQ LFO\\\ FREQ
-2 -8 0 10 #fcfcfc #000000 #000000 9700 1;
#X obj 616 675 *~ -1;
#X obj 616 699 +~ 1;
#X obj 698 655 -~ 0.5;
#X obj 698 679 *~ 1000;
#X obj 698 703 clip~ 0 1;
#X obj 698 727 *~;
#X obj 617 772 +~;
#X obj 617 821 *~;
#X obj 657 701 == 0;
#X obj 801 703 == 1;
#X obj 769 626 hradio 15 1 0 2 empty LFO\\\ WAVEFORM LFO\\\ WAVEFORM
0 -8 0 10 #fcfcfc #000000 #000000 0;
#X obj 769 653 t f f;
#X obj 382 876 *~;
#X obj 617 884 *~;
#X obj 413 843 == 0;
#X obj 635 843 == 1;
#X obj 544 804 hradio 15 1 1 2 empty ENV\\\ SEL empty 0 -8 0 10 #fcfcfc
#000000 #000000 1;
#X obj 544 824 t f f;
#X obj 616 651 phasor~;
#X obj 170 937 hsl 128 15 0.1 3 1 1 empty RES RES -2 -8 0 10 #fcfcfc
#000000 #000000 0 1;
#X obj 381 903 +~;
#X obj 375 1117 outlet~;
#X obj 413 95 s \$2-gate;
#X obj 382 721 r \$2-gate;
#X obj 646 1018 r \$2-gate;
#X connect 0 0 87 0;
#X connect 1 0 2 0;
#X connect 1 0 5 0;
#X connect 1 0 9 0;
#X connect 1 0 13 0;
#X connect 2 0 3 0;
#X connect 3 0 4 0;
#X connect 4 0 65 0;
#X connect 5 0 6 0;
#X connect 6 0 7 0;
#X connect 7 0 8 0;
#X connect 8 0 65 1;
#X connect 9 0 10 0;
#X connect 10 0 13 1;
#X connect 11 0 12 0;
#X connect 12 0 14 0;
#X connect 13 0 11 0;
#X connect 14 0 65 1;
#X connect 15 0 4 1;
#X connect 16 0 8 1;
#X connect 17 0 14 1;
#X connect 18 0 19 0;
#X connect 19 0 15 0;
#X connect 19 1 16 0;
#X connect 19 2 17 0;
#X connect 20 0 21 0;
#X connect 20 0 24 0;
#X connect 20 0 28 0;
#X connect 20 0 32 0;
#X connect 21 0 22 0;
#X connect 22 0 23 0;
#X connect 23 0 66 0;
#X connect 24 0 25 0;
#X connect 25 0 26 0;
#X connect 26 0 27 0;
#X connect 27 0 66 1;
#X connect 28 0 29 0;
#X connect 29 0 32 1;
#X connect 30 0 31 0;
#X connect 31 0 33 0;
#X connect 32 0 30 0;
#X connect 33 0 66 1;
#X connect 34 0 23 1;
#X connect 35 0 27 1;
#X connect 36 0 33 1;
#X connect 37 0 38 0;
#X connect 38 0 34 0;
#X connect 38 1 35 0;
#X connect 38 2 36 0;
#X connect 39 0 1 0;
#X connect 39 0 42 0;
#X connect 39 0 64 0;
#X connect 40 0 20 0;
#X connect 41 0 42 0;
#X connect 41 1 42 1;
#X connect 42 0 40 0;
#X connect 43 0 44 0;
#X connect 43 0 47 0;
#X connect 43 0 51 0;
#X connect 43 0 55 0;
#X connect 44 0 45 0;
#X connect 45 0 46 0;
#X connect 46 0 67 0;
#X connect 47 0 48 0;
#X connect 48 0 49 0;
#X connect 49 0 50 0;
#X connect 50 0 67 1;
#X connect 51 0 52 0;
#X connect 52 0 55 1;
#X connect 53 0 54 0;
#X connect 54 0 56 0;
#X connect 55 0 53 0;
#X connect 56 0 67 1;
#X connect 57 0 46 1;
#X connect 58 0 50 1;
#X connect 59 0 56 1;
#X connect 60 0 61 0;
#X connect 61 0 57 0;
#X connect 61 1 58 0;
#X connect 61 2 59 0;
#X connect 62 0 43 0;
#X connect 63 0 64 0;
#X connect 63 1 64 1;
#X connect 64 0 62 0;
#X connect 65 0 70 0;
#X connect 66 0 76 0;
#X connect 67 0 73 0;
#X connect 68 0 69 0;
#X connect 69 0 70 1;
#X connect 70 0 77 0;
#X connect 71 0 72 0;
#X connect 72 0 73 1;
#X connect 73 0 77 1;
#X connect 74 0 75 0;
#X connect 75 0 76 1;
#X connect 76 0 77 1;
#X connect 77 0 78 0;
#X connect 78 0 89 0;
#X connect 79 0 71 0;
#X connect 80 0 74 0;
#X connect 81 0 68 0;
#X connect 82 0 18 0;
#X connect 83 0 37 0;
#X connect 84 0 60 0;
#X connect 85 0 41 0;
#X connect 86 0 63 0;
#X connect 87 0 39 0;
#X connect 87 1 90 0;
#X connect 88 0 92 0;
#X connect 89 0 88 0;
#X connect 90 0 136 0;
#X connect 91 0 92 1;
#X connect 92 0 135 0;
#X connect 93 0 91 1;
#X connect 94 0 91 2;
#X connect 95 0 91 3;
#X connect 96 0 91 4;
#X connect 97 0 107 0;
#X connect 98 0 97 1;
#X connect 99 0 97 2;
#X connect 100 0 97 3;
#X connect 101 0 97 4;
#X connect 102 0 103 0;
#X connect 103 0 104 0;
#X connect 104 0 109 0;
#X connect 105 0 106 0;
#X connect 106 0 107 1;
#X connect 107 0 126 0;
#X connect 108 0 88 2;
#X connect 109 0 88 1;
#X connect 110 0 120 0;
#X connect 111 0 121 1;
#X connect 112 0 111 0;
#X connect 113 0 132 0;
#X connect 114 0 115 0;
#X connect 115 0 110 0;
#X connect 116 0 117 0;
#X connect 117 0 118 0;
#X connect 118 0 119 0;
#X connect 119 0 120 1;
#X connect 120 0 121 0;
#X connect 121 0 127 0;
#X connect 122 0 110 1;
#X connect 123 0 119 1;
#X connect 124 0 125 0;
#X connect 125 0 122 0;
#X connect 125 1 123 0;
#X connect 126 0 134 0;
#X connect 127 0 134 1;
#X connect 128 0 126 1;
#X connect 129 0 127 1;
#X connect 130 0 131 0;
#X connect 131 0 128 0;
#X connect 131 1 129 0;
#X connect 132 0 114 0;
#X connect 132 0 116 0;
#X connect 133 0 108 0;
#X connect 134 0 104 1;
#X connect 137 0 97 0;
#X connect 138 0 91 0;
#X restore 116 241 pd osc;
#N canvas 262 125 1341 959 osc 0;
#X obj 346 4 inlet;
#X obj 247 228 phasor~;
#X obj 83 307 *~ 2;
#X obj 83 331 -~ 1;
#X obj 83 355 *~;
#X obj 158 305 -~ 0.5;
#X obj 158 329 *~ 1000;
#X obj 158 353 clip~ -1 1;
#X obj 158 377 *~;
#X obj 273 306 *~ -1;
#X obj 273 330 +~ 1;
#X obj 247 391 *~ 4;
#X obj 247 415 -~ 1;
#X obj 247 367 min~;
#X obj 247 439 *~;
#X obj 118 332 == 0;
#X obj 214 329 == 1;
#X obj 284 416 == 2;
#X obj 308 230 hradio 15 1 1 3 empty osc1WF WAVEFORM 0 -8 0 10 #fcfcfc
#000000 #000000 2;
#X obj 308 250 t f f f;
#X obj 524 234 phasor~;
#X obj 360 313 *~ 2;
#X obj 360 337 -~ 1;
#X obj 360 361 *~;
#X obj 435 311 -~ 0.5;
#X obj 435 335 *~ 1000;
#X obj 435 359 clip~ -1 1;
#X obj 435 383 *~;
#X obj 550 312 *~ -1;
#X obj 550 336 +~ 1;
#X obj 524 397 *~ 4;
#X obj 524 421 -~ 1;
#X obj 524 373 min~;
#X obj 524 445 *~;
#X obj 395 338 == 0;
#X obj 491 335 == 1;
#X obj 561 422 == 2;
#X obj 585 236 hradio 15 1 1 3 empty osc2WF WAVEFORM 0 -8 0 10 #fcfcfc
#000000 #000000 2;
#X obj 585 256 t f f f;
#X obj 247 197 mtof;
#X obj 524 200 mtof;
#X obj 524 126 t b f;
#X obj 524 162 +;
#X obj 801 234 phasor~;
#X obj 637 313 *~ 2;
#X obj 637 337 -~ 1;
#X obj 637 361 *~;
#X obj 712 311 -~ 0.5;
#X obj 712 335 *~ 1000;
#X obj 712 359 clip~ -1 1;
#X obj 712 383 *~;
#X obj 827 312 *~ -1;
#X obj 827 336 +~ 1;
#X obj 801 397 *~ 4;
#X obj 801 421 -~ 1;
#X obj 801 373 min~;
#X obj 801 445 *~;
#X obj 672 338 == 0;
#X obj 768 335 == 1;
#X obj 838 422 == 2;
#X obj 862 236 hradio 15 1 1 3 empty osc3WF WAVEFORM 0 -8 0 10 #fcfcfc
#000000 #000000 2;
#X obj 862 256 t f f f;
#X obj 801 200 mtof;
#X obj 714 145 t b f;
#X obj 714 181 +;
#X obj 84 459 +~;
#X obj 361 465 +~;
#X obj 638 465 +~;
#X obj 121 504 pack f 20;
#X obj 121 528 line~;
#X obj 83 548 *~;
#X obj 677 499 pack f 20;
#X obj 677 523 line~;
#X obj 639 543 *~;
#X obj 395 493 pack f 20;
#X obj 395 517 line~;
#X obj 360 535 *~;
#X obj 84 596 +~;
#X obj 84 629 /~ 3;
#X obj 677 474 r osc3Vol;
#X obj 395 469 r osc2Vol;
#X obj 121 474 r osc1Vol;
#X obj 308 110 r osc1WF;
#X obj 585 152 r osc2WF;
#X obj 862 188 r osc3WF;
#X obj 524 91 r osc2Rel;
#X obj 714 94 r osc3Rel;
#X obj 346 31 unpack f f;
#X obj 81 1003 else/lowpass~;
#X obj 81 979 -~ 1;
#X obj 413 70 > 0;
#X obj 646 1046 else/adsr~ 20 150 0.5 200 -log;
#X obj 375 1066 *~;
#X obj 728 903 vsl 15 128 1 1000 0 1 empty A empty 0 -9 0 10 #fcfcfc
#000000 #000000 7600 1;
#X obj 752 902 vsl 15 128 1 1000 0 1 empty D empty 0 -9 0 10 #fcfcfc
#000000 #000000 7600 1;
#X obj 777 903 vsl 15 128 0 1 0 1 empty S empty 0 -9 0 10 #fcfcfc #000000
#000000 3600 1;
#X obj 801 902 vsl 15 128 0 1000 0 0 empty R empty 0 -9 0 10 #fcfcfc
#000000 #000000 0 1;
#X obj 382 749 else/adsr~ 20 150 0.5 200 -log;
#X obj 464 606 vsl 15 128 1 1000 0 1 empty ENV\\\ ATT empty 0 -9 0
10 #fcfcfc #000000 #000000 0 1;
#X obj 488 605 vsl 15 128 1 1000 0 1 empty ENV\\\ DEC empty 0 -9 0
10 #fcfcfc #000000 #000000 3900 1;
#X obj 513 605 vsl 15 128 0 1 0 1 empty ENV\\\ SUS empty 0 -9 0 10
#fcfcfc #000000 #000000 6700 1;
#X obj 537 605 vsl 15 128 0 1000 0 0 empty ENV\\\ REL empty 0 -9 0
10 #fcfcfc #000000 #000000 0 1;
#X obj 129 866 hsl 128 15 20 20000 1 1 empty CUTOFF CUTOFF -2 -8 0
10 #fcfcfc #000000 #000000 12700 1;
#X obj 126 887 sig~;
#X obj 126 921 +~;
#X obj 405 795 hsl 128 15 20 20000 1 1 empty ENV\\\ AMOUNT ENV\\\ AMOUNT
-2 -8 0 10 #fcfcfc #000000 #000000 9900 1;
#X obj 402 815 sig~;
#X obj 383 842 *~;
#X obj 168 978 sig~ 3;
#X obj 125 957 clip~ 0 20000;
#X obj 616 732 *~;
#X obj 668 803 sig~;
#X obj 671 782 hsl 128 15 20 20000 1 1 empty LFO\\\ AMOUNT LFO\\\ AMOUNT
-2 -8 0 10 #fcfcfc #000000 #000000 0 1;
#X obj 619 626 hsl 128 15 0.08 8 0 1 empty LFO\\\ FREQ LFO\\\ FREQ
-2 -8 0 10 #fcfcfc #000000 #000000 9700 1;
#X obj 616 675 *~ -1;
#X obj 616 699 +~ 1;
#X obj 698 655 -~ 0.5;
#X obj 698 679 *~ 1000;
#X obj 698 703 clip~ 0 1;
#X obj 698 727 *~;
#X obj 617 772 +~;
#X obj 617 821 *~;
#X obj 657 701 == 0;
#X obj 801 703 == 1;
#X obj 769 626 hradio 15 1 0 2 empty LFO\\\ WAVEFORM LFO\\\ WAVEFORM
0 -8 0 10 #fcfcfc #000000 #000000 0;
#X obj 769 653 t f f;
#X obj 382 876 *~;
#X obj 617 884 *~;
#X obj 413 843 == 0;
#X obj 635 843 == 1;
#X obj 544 804 hradio 15 1 1 2 empty ENV\\\ SEL empty 0 -8 0 10 #fcfcfc
#000000 #000000 1;
#X obj 544 824 t f f;
#X obj 616 651 phasor~;
#X obj 170 937 hsl 128 15 0.1 3 1 1 empty RES RES -2 -8 0 10 #fcfcfc
#000000 #000000 0 1;
#X obj 381 903 +~;
#X obj 375 1117 outlet~;
#X obj 413 95 s \$4-gate;
#X obj 382 721 r \$4-gate;
#X obj 646 1018 r \$4-gate;
#X connect 0 0 87 0;
#X connect 1 0 2 0;
#X connect 1 0 5 0;
#X connect 1 0 9 0;
#X connect 1 0 13 0;
#X connect 2 0 3 0;
#X connect 3 0 4 0;
#X connect 4 0 65 0;
#X connect 5 0 6 0;
#X connect 6 0 7 0;
#X connect 7 0 8 0;
#X connect 8 0 65 1;
#X connect 9 0 10 0;
#X connect 10 0 13 1;
#X connect 11 0 12 0;
#X connect 12 0 14 0;
#X connect 13 0 11 0;
#X connect 14 0 65 1;
#X connect 15 0 4 1;
#X connect 16 0 8 1;
#X connect 17 0 14 1;
#X connect 18 0 19 0;
#X connect 19 0 15 0;
#X connect 19 1 16 0;
#X connect 19 2 17 0;
#X connect 20 0 21 0;
#X connect 20 0 24 0;
#X connect 20 0 28 0;
#X connect 20 0 32 0;
#X connect 21 0 22 0;
#X connect 22 0 23 0;
#X connect 23 0 66 0;
#X connect 24 0 25 0;
#X connect 25 0 26 0;
#X connect 26 0 27 0;
#X connect 27 0 66 1;
#X connect 28 0 29 0;
#X connect 29 0 32 1;
#X connect 30 0 31 0;
#X connect 31 0 33 0;
#X connect 32 0 30 0;
#X connect 33 0 66 1;
#X connect 34 0 23 1;
#X connect 35 0 27 1;
#X connect 36 0 33 1;
#X connect 37 0 38 0;
#X connect 38 0 34 0;
#X connect 38 1 35 0;
#X connect 38 2 36 0;
#X connect 39 0 1 0;
#X connect 39 0 42 0;
#X connect 39 0 64 0;
#X connect 40 0 20 0;
#X connect 41 0 42 0;
#X connect 41 1 42 1;
#X connect 42 0 40 0;
#X connect 43 0 44 0;
#X connect 43 0 47 0;
#X connect 43 0 51 0;
#X connect 43 0 55 0;
#X connect 44 0 45 0;
#X connect 45 0 46 0;
#X connect 46 0 67 0;
#X connect 47 0 48 0;
#X connect 48 0 49 0;
#X connect 49 0 50 0;
#X connect 50 0 67 1;
#X connect 51 0 52 0;
#X connect 52 0 55 1;
#X connect 53 0 54 0;
#X connect 54 0 56 0;
#X connect 55 0 53 0;
#X connect 56 0 67 1;
#X connect 57 0 46 1;
#X connect 58 0 50 1;
#X connect 59 0 56 1;
#X connect 60 0 61 0;
#X connect 61 0 57 0;
#X connect 61 1 58 0;
#X connect 61 2 59 0;
#X connect 62 0 43 0;
#X connect 63 0 64 0;
#X connect 63 1 64 1;
#X connect 64 0 62 0;
#X connect 65 0 70 0;
#X connect 66 0 76 0;
#X connect 67 0 73 0;
#X connect 68 0 69 0;
#X connect 69 0 70 1;
#X connect 70 0 77 0;
#X connect 71 0 72 0;
#X connect 72 0 73 1;
#X connect 73 0 77 1;
#X connect 74 0 75 0;
#X connect 75 0 76 1;
#X connect 76 0 77 1;
#X connect 77 0 78 0;
#X connect 78 0 89 0;
#X connect 79 0 71 0;
#X connect 80 0 74 0;
#X connect 81 0 68 0;
#X connect 82 0 18 0;
#X connect 83 0 37 0;
#X connect 84 0 60 0;
#X connect 85 0 41 0;
#X connect 86 0 63 0;
#X connect 87 0 39 0;
#X connect 87 1 90 0;
#X connect 88 0 92 0;
#X connect 89 0 88 0;
#X connect 90 0 136 0;
#X connect 91 0 92 1;
#X connect 92 0 135 0;
#X connect 93 0 91 1;
#X connect 94 0 91 2;
#X connect 95 0 91 3;
#X connect 96 0 91 4;
#X connect 97 0 107 0;
#X connect 98 0 97 1;
#X connect 99 0 97 2;
#X connect 100 0 97 3;
#X connect 101 0 97 4;
#X connect 102 0 103 0;
#X connect 103 0 104 0;
#X connect 104 0 109 0;
#X connect 105 0 106 0;
#X connect 106 0 107 1;
#X connect 107 0 126 0;
#X connect 108 0 88 2;
#X connect 109 0 88 1;
#X connect 110 0 120 0;
#X connect 111 0 121 1;
#X connect 112 0 111 0;
#X connect 113 0 132 0;
#X connect 114 0 115 0;
#X connect 115 0 110 0;
#X connect 116 0 117 0;
#X connect 117 0 118 0;
#X connect 118 0 119 0;
#X connect 119 0 120 1;
#X connect 120 0 121 0;
#X connect 121 0 127 0;
#X connect 122 0 110 1;
#X connect 123 0 119 1;
#X connect 124 0 125 0;
#X connect 125 0 122 0;
#X connect 125 1 123 0;
#X connect 126 0 134 0;
#X connect 127 0 134 1;
#X connect 128 0 126 1;
#X connect 129 0 127 1;
#X connect 130 0 131 0;
#X connect 131 0 128 0;
#X connect 131 1 129 0;
#X connect 132 0 114 0;
#X connect 132 0 116 0;
#X connect 133 0 108 0;
#X connect 134 0 104 1;
#X connect 137 0 97 0;
#X connect 138 0 91 0;
#X restore 171 242 pd osc;
#N canvas 262 125 1341 959 osc 0;
#X obj 346 4 inlet;
#X obj 247 228 phasor~;
#X obj 83 307 *~ 2;
#X obj 83 331 -~ 1;
#X obj 83 355 *~;
#X obj 158 305 -~ 0.5;
#X obj 158 329 *~ 1000;
#X obj 158 353 clip~ -1 1;
#X obj 158 377 *~;
#X obj 273 306 *~ -1;
#X obj 273 330 +~ 1;
#X obj 247 391 *~ 4;
#X obj 247 415 -~ 1;
#X obj 247 367 min~;
#X obj 247 439 *~;
#X obj 118 332 == 0;
#X obj 214 329 == 1;
#X obj 284 416 == 2;
#X obj 308 230 hradio 15 1 1 3 empty osc1WF WAVEFORM 0 -8 0 10 #fcfcfc
#000000 #000000 2;
#X obj 308 250 t f f f;
#X obj 524 234 phasor~;
#X obj 360 313 *~ 2;
#X obj 360 337 -~ 1;
#X obj 360 361 *~;
#X obj 435 311 -~ 0.5;
#X obj 435 335 *~ 1000;
#X obj 435 359 clip~ -1 1;
#X obj 435 383 *~;
#X obj 550 312 *~ -1;
#X obj 550 336 +~ 1;
#X obj 524 397 *~ 4;
#X obj 524 421 -~ 1;
#X obj 524 373 min~;
#X obj 524 445 *~;
#X obj 395 338 == 0;
#X obj 491 335 == 1;
#X obj 561 422 == 2;
#X obj 585 236 hradio 15 1 1 3 empty osc2WF WAVEFORM 0 -8 0 10 #fcfcfc
#000000 #000000 2;
#X obj 585 256 t f f f;
#X obj 247 197 mtof;
#X obj 524 200 mtof;
#X obj 524 126 t b f;
#X obj 524 162 +;
#X obj 801 234 phasor~;
#X obj 637 313 *~ 2;
#X obj 637 337 -~ 1;
#X obj 637 361 *~;
#X obj 712 311 -~ 0.5;
#X obj 712 335 *~ 1000;
#X obj 712 359 clip~ -1 1;
#X obj 712 383 *~;
#X obj 827 312 *~ -1;
#X obj 827 336 +~ 1;
#X obj 801 397 *~ 4;
#X obj 801 421 -~ 1;
#X obj 801 373 min~;
#X obj 801 445 *~;
#X obj 672 338 == 0;
#X obj 768 335 == 1;
#X obj 838 422 == 2;
#X obj 862 236 hradio 15 1 1 3 empty osc3WF WAVEFORM 0 -8 0 10 #fcfcfc
#000000 #000000 2;
#X obj 862 256 t f f f;
#X obj 801 200 mtof;
#X obj 714 145 t b f;
#X obj 714 181 +;
#X obj 84 459 +~;
#X obj 361 465 +~;
#X obj 638 465 +~;
#X obj 121 504 pack f 20;
#X obj 121 528 line~;
#X obj 83 548 *~;
#X obj 677 499 pack f 20;
#X obj 677 523 line~;
#X obj 639 543 *~;
#X obj 395 493 pack f 20;
#X obj 395 517 line~;
#X obj 360 535 *~;
#X obj 84 596 +~;
#X obj 84 629 /~ 3;
#X obj 677 474 r osc3Vol;
#X obj 395 469 r osc2Vol;
#X obj 121 474 r osc1Vol;
#X obj 308 110 r osc1WF;
#X obj 585 152 r osc2WF;
#X obj 862 188 r osc3WF;
#X obj 524 91 r osc2Rel;
#X obj 714 94 r osc3Rel;
#X obj 346 31 unpack f f;
#X obj 81 1003 else/lowpass~;
#X obj 81 979 -~ 1;
#X obj 413 70 > 0;
#X obj 646 1046 else/adsr~ 20 150 0.5 200 -log;
#X obj 375 1066 *~;
#X obj 728 903 vsl 15 128 1 1000 0 1 empty A empty 0 -9 0 10 #fcfcfc
#000000 #000000 7600 1;
#X obj 752 902 vsl 15 128 1 1000 0 1 empty D empty 0 -9 0 10 #fcfcfc
#000000 #000000 7600 1;
#X obj 777 903 vsl 15 128 0 1 0 1 empty S empty 0 -9 0 10 #fcfcfc #000000
#000000 3600 1;
#X obj 801 902 vsl 15 128 0 1000 0 0 empty R empty 0 -9 0 10 #fcfcfc
#000000 #000000 0 1;
#X obj 382 749 else/adsr~ 20 150 0.5 200 -log;
#X obj 464 606 vsl 15 128 1 1000 0 1 empty ENV\\\ ATT empty 0 -9 0
10 #fcfcfc #000000 #000000 0 1;
#X obj 488 605 vsl 15 128 1 1000 0 1 empty ENV\\\ DEC empty 0 -9 0
10 #fcfcfc #000000 #000000 3900 1;
#X obj 513 605 vsl 15 128 0 1 0 1 empty ENV\\\ SUS empty 0 -9 0 10
#fcfcfc #000000 #000000 6700 1;
#X obj 537 605 vsl 15 128 0 1000 0 0 empty ENV\\\ REL empty 0 -9 0
10 #fcfcfc #000000 #000000 0 1;
#X obj 129 866 hsl 128 15 20 20000 1 1 empty CUTOFF CUTOFF -2 -8 0
10 #fcfcfc #000000 #000000 12700 1;
#X obj 126 887 sig~;
#X obj 126 921 +~;
#X obj 405 795 hsl 128 15 20 20000 1 1 empty ENV\\\ AMOUNT ENV\\\ AMOUNT
-2 -8 0 10 #fcfcfc #000000 #000000 9900 1;
#X obj 402 815 sig~;
#X obj 383 842 *~;
#X obj 168 978 sig~ 3;
#X obj 125 957 clip~ 0 20000;
#X obj 616 732 *~;
#X obj 668 803 sig~;
#X obj 671 782 hsl 128 15 20 20000 1 1 empty LFO\\\ AMOUNT LFO\\\ AMOUNT
-2 -8 0 10 #fcfcfc #000000 #000000 0 1;
#X obj 619 626 hsl 128 15 0.08 8 0 1 empty LFO\\\ FREQ LFO\\\ FREQ
-2 -8 0 10 #fcfcfc #000000 #000000 9700 1;
#X obj 616 675 *~ -1;
#X obj 616 699 +~ 1;
#X obj 698 655 -~ 0.5;
#X obj 698 679 *~ 1000;
#X obj 698 703 clip~ 0 1;
#X obj 698 727 *~;
#X obj 617 772 +~;
#X obj 617 821 *~;
#X obj 657 701 == 0;
#X obj 801 703 == 1;
#X obj 769 626 hradio 15 1 0 2 empty LFO\\\ WAVEFORM LFO\\\ WAVEFORM
0 -8 0 10 #fcfcfc #000000 #000000 0;
#X obj 769 653 t f f;
#X obj 382 876 *~;
#X obj 617 884 *~;
#X obj 413 843 == 0;
#X obj 635 843 == 1;
#X obj 544 804 hradio 15 1 1 2 empty ENV\\\ SEL empty 0 -8 0 10 #fcfcfc
#000000 #000000 1;
#X obj 544 824 t f f;
#X obj 616 651 phasor~;
#X obj 170 937 hsl 128 15 0.1 3 1 1 empty RES RES -2 -8 0 10 #fcfcfc
#000000 #000000 0 1;
#X obj 381 903 +~;
#X obj 375 1117 outlet~;
#X obj 413 95 s \$5-gate;
#X obj 382 721 r \$5-gate;
#X obj 646 1018 r \$5-gate;
#X connect 0 0 87 0;
#X connect 1 0 2 0;
#X connect 1 0 5 0;
#X connect 1 0 9 0;
#X connect 1 0 13 0;
#X connect 2 0 3 0;
#X connect 3 0 4 0;
#X connect 4 0 65 0;
#X connect 5 0 6 0;
#X connect 6 0 7 0;
#X connect 7 0 8 0;
#X connect 8 0 65 1;
#X connect 9 0 10 0;
#X connect 10 0 13 1;
#X connect 11 0 12 0;
#X connect 12 0 14 0;
#X connect 13 0 11 0;
#X connect 14 0 65 1;
#X connect 15 0 4 1;
#X connect 16 0 8 1;
#X connect 17 0 14 1;
#X connect 18 0 19 0;
#X connect 19 0 15 0;
#X connect 19 1 16 0;
#X connect 19 2 17 0;
#X connect 20 0 21 0;
#X connect 20 0 24 0;
#X connect 20 0 28 0;
#X connect 20 0 32 0;
#X connect 21 0 22 0;
#X connect 22 0 23 0;
#X connect 23 0 66 0;
#X connect 24 0 25 0;
#X connect 25 0 26 0;
#X connect 26 0 27 0;
#X connect 27 0 66 1;
#X connect 28 0 29 0;
#X connect 29 0 32 1;
#X connect 30 0 31 0;
#X connect 31 0 33 0;
#X connect 32 0 30 0;
#X connect 33 0 66 1;
#X connect 34 0 23 1;
#X connect 35 0 27 1;
#X connect 36 0 33 1;
#X connect 37 0 38 0;
#X connect 38 0 34 0;
#X connect 38 1 35 0;
#X connect 38 2 36 0;
#X connect 39 0 1 0;
#X connect 39 0 42 0;
#X connect 39 0 64 0;
#X connect 40 0 20 0;
#X connect 41 0 42 0;
#X connect 41 1 42 1;
#X connect 42 0 40 0;
#X connect 43 0 44 0;
#X connect 43 0 47 0;
#X connect 43 0 51 0;
#X connect 43 0 55 0;
#X connect 44 0 45 0;
#X connect 45 0 46 0;
#X connect 46 0 67 0;
#X connect 47 0 48 0;
#X connect 48 0 49 0;
#X connect 49 0 50 0;
#X connect 50 0 67 1;
#X connect 51 0 52 0;
#X connect 52 0 55 1;
#X connect 53 0 54 0;
#X connect 54 0 56 0;
#X connect 55 0 53 0;
#X connect 56 0 67 1;
#X connect 57 0 46 1;
#X connect 58 0 50 1;
#X connect 59 0 56 1;
#X connect 60 0 61 0;
#X connect 61 0 57 0;
#X connect 61 1 58 0;
#X connect 61 2 59 0;
#X connect 62 0 43 0;
#X connect 63 0 64 0;
#X connect 63 1 64 1;
#X connect 64 0 62 0;
#X connect 65 0 70 0;
#X connect 66 0 76 0;
#X connect 67 0 73 0;
#X connect 68 0 69 0;
#X connect 69 0 70 1;
#X connect 70 0 77 0;
#X connect 71 0 72 0;
#X connect 72 0 73 1;
#X connect 73 0 77 1;
#X connect 74 0 75 0;
#X connect 75 0 76 1;
#X connect 76 0 77 1;
#X connect 77 0 78 0;
#X connect 78 0 89 0;
#X connect 79 0 71 0;
#X connect 80 0 74 0;
#X connect 81 0 68 0;
#X connect 82 0 18 0;
#X connect 83 0 37 0;
#X connect 84 0 60 0;
#X connect 85 0 41 0;
#X connect 86 0 63 0;
#X connect 87 0 39 0;
#X connect 87 1 90 0;
#X connect 88 0 92 0;
#X connect 89 0 88 0;
#X connect 90 0 136 0;
#X connect 91 0 92 1;
#X connect 92 0 135 0;
#X connect 93 0 91 1;
#X connect 94 0 91 2;
#X connect 95 0 91 3;
#X connect 96 0 91 4;
#X connect 97 0 107 0;
#X connect 98 0 97 1;
#X connect 99 0 97 2;
#X connect 100 0 97 3;
#X connect 101 0 97 4;
#X connect 102 0 103 0;
#X connect 103 0 104 0;
#X connect 104 0 109 0;
#X connect 105 0 106 0;
#X connect 106 0 107 1;
#X connect 107 0 126 0;
#X connect 108 0 88 2;
#X connect 109 0 88 1;
#X connect 110 0 120 0;
#X connect 111 0 121 1;
#X connect 112 0 111 0;
#X connect 113 0 132 0;
#X connect 114 0 115 0;
#X connect 115 0 110 0;
#X connect 116 0 117 0;
#X connect 117 0 118 0;
#X connect 118 0 119 0;
#X connect 119 0 120 1;
#X connect 120 0 121 0;
#X connect 121 0 127 0;
#X connect 122 0 110 1;
#X connect 123 0 119 1;
#X connect 124 0 125 0;
#X connect 125 0 122 0;
#X connect 125 1 123 0;
#X connect 126 0 134 0;
#X connect 127 0 134 1;
#X connect 128 0 126 1;
#X connect 129 0 127 1;
#X connect 130 0 131 0;
#X connect 131 0 128 0;
#X connect 131 1 129 0;
#X connect 132 0 114 0;
#X connect 132 0 116 0;
#X connect 133 0 108 0;
#X connect 134 0 104 1;
#X connect 137 0 97 0;
#X connect 138 0 91 0;
#X restore 225 240 pd osc;
#N canvas 262 125 1341 959 osc 0;
#X obj 346 4 inlet;
#X obj 247 228 phasor~;
#X obj 83 307 *~ 2;
#X obj 83 331 -~ 1;
#X obj 83 355 *~;
#X obj 158 305 -~ 0.5;
#X obj 158 329 *~ 1000;
#X obj 158 353 clip~ -1 1;
#X obj 158 377 *~;
#X obj 273 306 *~ -1;
#X obj 273 330 +~ 1;
#X obj 247 391 *~ 4;
#X obj 247 415 -~ 1;
#X obj 247 367 min~;
#X obj 247 439 *~;
#X obj 118 332 == 0;
#X obj 214 329 == 1;
#X obj 284 416 == 2;
#X obj 308 230 hradio 15 1 1 3 empty osc1WF WAVEFORM 0 -8 0 10 #fcfcfc
#000000 #000000 2;
#X obj 308 250 t f f f;
#X obj 524 234 phasor~;
#X obj 360 313 *~ 2;
#X obj 360 337 -~ 1;
#X obj 360 361 *~;
#X obj 435 311 -~ 0.5;
#X obj 435 335 *~ 1000;
#X obj 435 359 clip~ -1 1;
#X obj 435 383 *~;
#X obj 550 312 *~ -1;
#X obj 550 336 +~ 1;
#X obj 524 397 *~ 4;
#X obj 524 421 -~ 1;
#X obj 524 373 min~;
#X obj 524 445 *~;
#X obj 395 338 == 0;
#X obj 491 335 == 1;
#X obj 561 422 == 2;
#X obj 585 236 hradio 15 1 1 3 empty osc2WF WAVEFORM 0 -8 0 10 #fcfcfc
#000000 #000000 2;
#X obj 585 256 t f f f;
#X obj 247 197 mtof;
#X obj 524 200 mtof;
#X obj 524 126 t b f;
#X obj 524 162 +;
#X obj 801 234 phasor~;
#X obj 637 313 *~ 2;
#X obj 637 337 -~ 1;
#X obj 637 361 *~;
#X obj 712 311 -~ 0.5;
#X obj 712 335 *~ 1000;
#X obj 712 359 clip~ -1 1;
#X obj 712 383 *~;
#X obj 827 312 *~ -1;
#X obj 827 336 +~ 1;
#X obj 801 397 *~ 4;
#X obj 801 421 -~ 1;
#X obj 801 373 min~;
#X obj 801 445 *~;
#X obj 672 338 == 0;
#X obj 768 335 == 1;
#X obj 838 422 == 2;
#X obj 862 236 hradio 15 1 1 3 empty osc3WF WAVEFORM 0 -8 0 10 #fcfcfc
#000000 #000000 2;
#X obj 862 256 t f f f;
#X obj 801 200 mtof;
#X obj 714 145 t b f;
#X obj 714 181 +;
#X obj 84 459 +~;
#X obj 361 465 +~;
#X obj 638 465 +~;
#X obj 121 504 pack f 20;
#X obj 121 528 line~;
#X obj 83 548 *~;
#X obj 677 499 pack f 20;
#X obj 677 523 line~;
#X obj 639 543 *~;
#X obj 395 493 pack f 20;
#X obj 395 517 line~;
#X obj 360 535 *~;
#X obj 84 596 +~;
#X obj 84 629 /~ 3;
#X obj 677 474 r osc3Vol;
#X obj 395 469 r osc2Vol;
#X obj 121 474 r osc1Vol;
#X obj 308 110 r osc1WF;
#X obj 585 152 r osc2WF;
#X obj 862 188 r osc3WF;
#X obj 524 91 r osc2Rel;
#X obj 714 94 r osc3Rel;
#X obj 346 31 unpack f f;
#X obj 81 1003 else/lowpass~;
#X obj 81 979 -~ 1;
#X obj 413 70 > 0;
#X obj 646 1046 else/adsr~ 20 150 0.5 200 -log;
#X obj 375 1066 *~;
#X obj 728 903 vsl 15 128 1 1000 0 1 empty A empty 0 -9 0 10 #fcfcfc
#000000 #000000 7600 1;
#X obj 752 902 vsl 15 128 1 1000 0 1 empty D empty 0 -9 0 10 #fcfcfc
#000000 #000000 7600 1;
#X obj 777 903 vsl 15 128 0 1 0 1 empty S empty 0 -9 0 10 #fcfcfc #000000
#000000 3600 1;
#X obj 801 902 vsl 15 128 0 1000 0 0 empty R empty 0 -9 0 10 #fcfcfc
#000000 #000000 0 1;
#X obj 382 749 else/adsr~ 20 150 0.5 200 -log;
#X obj 464 606 vsl 15 128 1 1000 0 1 empty ENV\\\ ATT empty 0 -9 0
10 #fcfcfc #000000 #000000 0 1;
#X obj 488 605 vsl 15 128 1 1000 0 1 empty ENV\\\ DEC empty 0 -9 0
10 #fcfcfc #000000 #000000 3900 1;
#X obj 513 605 vsl 15 128 0 1 0 1 empty ENV\\\ SUS empty 0 -9 0 10
#fcfcfc #000000 #000000 6700 1;
#X obj 537 605 vsl 15 128 0 1000 0 0 empty ENV\\\ REL empty 0 -9 0
10 #fcfcfc #000000 #000000 0 1;
#X obj 129 866 hsl 128 15 20 20000 1 1 empty CUTOFF CUTOFF -2 -8 0
10 #fcfcfc #000000 #000000 12700 1;
#X obj 126 887 sig~;
#X obj 126 921 +~;
#X obj 405 795 hsl 128 15 20 20000 1 1 empty ENV\\\ AMOUNT ENV\\\ AMOUNT
-2 -8 0 10 #fcfcfc #000000 #000000 9900 1;
#X obj 402 815 sig~;
#X obj 383 842 *~;
#X obj 168 978 sig~ 3;
#X obj 125 957 clip~ 0 20000;
#X obj 616 732 *~;
#X obj 668 803 sig~;
#X obj 671 782 hsl 128 15 20 20000 1 1 empty LFO\\\ AMOUNT LFO\\\ AMOUNT
-2 -8 0 10 #fcfcfc #000000 #000000 0 1;
#X obj 619 626 hsl 128 15 0.08 8 0 1 empty LFO\\\ FREQ LFO\\\ FREQ
-2 -8 0 10 #fcfcfc #000000 #000000 9700 1;
#X obj 616 675 *~ -1;
#X obj 616 699 +~ 1;
#X obj 698 655 -~ 0.5;
#X obj 698 679 *~ 1000;
#X obj 698 703 clip~ 0 1;
#X obj 698 727 *~;
#X obj 617 772 +~;
#X obj 617 821 *~;
#X obj 657 701 == 0;
#X obj 801 703 == 1;
#X obj 769 626 hradio 15 1 0 2 empty LFO\\\ WAVEFORM LFO\\\ WAVEFORM
0 -8 0 10 #fcfcfc #000000 #000000 0;
#X obj 769 653 t f f;
#X obj 382 876 *~;
#X obj 617 884 *~;
#X obj 413 843 == 0;
#X obj 635 843 == 1;
#X obj 544 804 hradio 15 1 1 2 empty ENV\\\ SEL empty 0 -8 0 10 #fcfcfc
#000000 #000000 1;
#X obj 544 824 t f f;
#X obj 616 651 phasor~;
#X obj 170 937 hsl 128 15 0.1 3 1 1 empty RES RES -2 -8 0 10 #fcfcfc
#000000 #000000 0 1;
#X obj 381 903 +~;
#X obj 375 1117 outlet~;
#X obj 413 95 s \$6-gate;
#X obj 382 721 r \$6-gate;
#X obj 646 1018 r \$6-gate;
#X connect 0 0 87 0;
#X connect 1 0 2 0;
#X connect 1 0 5 0;
#X connect 1 0 9 0;
#X connect 1 0 13 0;
#X connect 2 0 3 0;
#X connect 3 0 4 0;
#X connect 4 0 65 0;
#X connect 5 0 6 0;
#X connect 6 0 7 0;
#X connect 7 0 8 0;
#X connect 8 0 65 1;
#X connect 9 0 10 0;
#X connect 10 0 13 1;
#X connect 11 0 12 0;
#X connect 12 0 14 0;
#X connect 13 0 11 0;
#X connect 14 0 65 1;
#X connect 15 0 4 1;
#X connect 16 0 8 1;
#X connect 17 0 14 1;
#X connect 18 0 19 0;
#X connect 19 0 15 0;
#X connect 19 1 16 0;
#X connect 19 2 17 0;
#X connect 20 0 21 0;
#X connect 20 0 24 0;
#X connect 20 0 28 0;
#X connect 20 0 32 0;
#X connect 21 0 22 0;
#X connect 22 0 23 0;
#X connect 23 0 66 0;
#X connect 24 0 25 0;
#X connect 25 0 26 0;
#X connect 26 0 27 0;
#X connect 27 0 66 1;
#X connect 28 0 29 0;
#X connect 29 0 32 1;
#X connect 30 0 31 0;
#X connect 31 0 33 0;
#X connect 32 0 30 0;
#X connect 33 0 66 1;
#X connect 34 0 23 1;
#X connect 35 0 27 1;
#X connect 36 0 33 1;
#X connect 37 0 38 0;
#X connect 38 0 34 0;
#X connect 38 1 35 0;
#X connect 38 2 36 0;
#X connect 39 0 1 0;
#X connect 39 0 42 0;
#X connect 39 0 64 0;
#X connect 40 0 20 0;
#X connect 41 0 42 0;
#X connect 41 1 42 1;
#X connect 42 0 40 0;
#X connect 43 0 44 0;
#X connect 43 0 47 0;
#X connect 43 0 51 0;
#X connect 43 0 55 0;
#X connect 44 0 45 0;
#X connect 45 0 46 0;
#X connect 46 0 67 0;
#X connect 47 0 48 0;
#X connect 48 0 49 0;
#X connect 49 0 50 0;
#X connect 50 0 67 1;
#X connect 51 0 52 0;
#X connect 52 0 55 1;
#X connect 53 0 54 0;
#X connect 54 0 56 0;
#X connect 55 0 53 0;
#X connect 56 0 67 1;
#X connect 57 0 46 1;
#X connect 58 0 50 1;
#X connect 59 0 56 1;
#X connect 60 0 61 0;
#X connect 61 0 57 0;
#X connect 61 1 58 0;
#X connect 61 2 59 0;
#X connect 62 0 43 0;
#X connect 63 0 64 0;
#X connect 63 1 64 1;
#X connect 64 0 62 0;
#X connect 65 0 70 0;
#X connect 66 0 76 0;
#X connect 67 0 73 0;
#X connect 68 0 69 0;
#X connect 69 0 70 1;
#X connect 70 0 77 0;
#X connect 71 0 72 0;
#X connect 72 0 73 1;
#X connect 73 0 77 1;
#X connect 74 0 75 0;
#X connect 75 0 76 1;
#X connect 76 0 77 1;
#X connect 77 0 78 0;
#X connect 78 0 89 0;
#X connect 79 0 71 0;
#X connect 80 0 74 0;
#X connect 81 0 68 0;
#X connect 82 0 18 0;
#X connect 83 0 37 0;
#X connect 84 0 60 0;
#X connect 85 0 41 0;
#X connect 86 0 63 0;
#X connect 87 0 39 0;
#X connect 87 1 90 0;
#X connect 88 0 92 0;
#X connect 89 0 88 0;
#X connect 90 0 136 0;
#X connect 91 0 92 1;
#X connect 92 0 135 0;
#X connect 93 0 91 1;
#X connect 94 0 91 2;
#X connect 95 0 91 3;
#X connect 96 0 91 4;
#X connect 97 0 107 0;
#X connect 98 0 97 1;
#X connect 99 0 97 2;
#X connect 100 0 97 3;
#X connect 101 0 97 4;
#X connect 102 0 103 0;
#X connect 103 0 104 0;
#X connect 104 0 109 0;
#X connect 105 0 106 0;
#X connect 106 0 107 1;
#X connect 107 0 126 0;
#X connect 108 0 88 2;
#X connect 109 0 88 1;
#X connect 110 0 120 0;
#X connect 111 0 121 1;
#X connect 112 0 111 0;
#X connect 113 0 132 0;
#X connect 114 0 115 0;
#X connect 115 0 110 0;
#X connect 116 0 117 0;
#X connect 117 0 118 0;
#X connect 118 0 119 0;
#X connect 119 0 120 1;
#X connect 120 0 121 0;
#X connect 121 0 127 0;
#X connect 122 0 110 1;
#X connect 123 0 119 1;
#X connect 124 0 125 0;
#X connect 125 0 122 0;
#X connect 125 1 123 0;
#X connect 126 0 134 0;
#X connect 127 0 134 1;
#X connect 128 0 126 1;
#X connect 129 0 127 1;
#X connect 130 0 131 0;
#X connect 131 0 128 0;
#X connect 131 1 129 0;
#X connect 132 0 114 0;
#X connect 132 0 116 0;
#X connect 133 0 108 0;
#X connect 134 0 104 1;
#X connect 137 0 97 0;
#X connect 138 0 91 0;
#X restore 283 241 pd osc;
#X obj 97 480 loadbang;
#X obj 97 554 tabwrite~ scope;
#X obj 8 21 inlet;
#X obj 61 22 inlet;
#X obj 8 73 poly 6 1;
#X obj 8 354 /~ 1;
#N canvas 78 78 450 300 limiter~ 0;
#X obj 62 191 *~;
#X obj 92 69 env~;
#X obj 92 91 dbtorms;
#X obj 92 135 -;
#X obj 229 85 vsl 15 128 0 1 0 0 empty empty empty 0 -9 0 10 #fcfcfc
#000000 #000000 0 1;
#X msg 92 113 1 \$1;
#X obj 62 29 inlet~;
#X obj 62 253 outlet~;
#X obj 92 157 lop~ 0.05;
#X connect 0 0 7 0;
#X connect 1 0 2 0;
#X connect 2 0 5 0;
#X connect 3 0 4 0;
#X connect 3 0 8 0;
#X connect 5 0 3 0;
#X connect 6 0 0 0;
#X connect 6 0 1 0;
#X connect 8 0 0 1;
#X restore 8 412 pd limiter~;
#X obj 137 393 *~;
#X obj 155 361 sig~;
#X obj 155 334 r genVol;
#X connect 0 0 7 0;
#X connect 1 0 4 0;
#X connect 3 0 5 0;
#X connect 4 0 14 0;
#X connect 5 0 18 0;
#X connect 6 0 17 0;
#X connect 7 0 3 0;
#X connect 7 1 8 0;
#X connect 7 2 9 0;
#X connect 7 3 10 0;
#X connect 7 4 11 0;
#X connect 7 5 12 0;
#X connect 8 0 5 0;
#X connect 9 0 5 0;
#X connect 10 0 5 0;
#X connect 11 0 5 0;
#X connect 12 0 5 0;
#X connect 13 0 1 0;
#X connect 15 0 6 0;
#X connect 16 0 6 1;
#X connect 17 0 0 0;
#X connect 17 1 0 1;
#X connect 17 2 0 2;
#X connect 18 0 20 0;
#X connect 19 0 2 0;
#X connect 19 0 2 1;
#X connect 19 0 14 0;
#X connect 20 0 19 0;
#X connect 21 0 20 1;
#X connect 22 0 21 0;
#X coords 0 655 1 654 67 60 0;
#X restore 18 83 pd synth;
#X obj 31 148 vsl 15 380 0.01 1 1 1 genVol empty GEN\\\ VOL 0 -9 0
10 #fcfcfc #000000 #000000 37900 1;
#X connect 0 0 30 0;
#X connect 0 1 30 1;
#X connect 21 0 29 0;
#X connect 23 0 19 0;
#X connect 24 0 18 0;
#X connect 25 0 29 1;
#X connect 29 0 30 0;
#X connect 29 1 30 1;
#X coords 0 608 1 607 85 60 0;
