#N canvas 2 23 1920 1036 12;
#X obj 332 677 loadbang;
#X obj 332 700 tgl 18 0 empty empty empty 17 7 0 10 #fcfcfc #000000
#000000 0 1;
#X obj 332 723 metro 100;
#X obj 332 747 tabwrite~ \$0-scope;
#X obj 12 156 cnv 7 7 140 empty empty karplus\\\ strong 12 8 0 16 #faff00
#faff00 0;
#X obj 196 728 *~ 1;
#N canvas 0 22 450 278 (subpatch) 0;
#X array \$0-scope 441 float 0;
#X coords 0 1 440 -1 200 140 1;
#X restore 482 677 graph;
#X obj 313 321 delread4~ \$0-delay;
#X obj 223 524 +~;
#X obj 314 542 delwrite~ \$0-delay 100;
#X obj 313 144 nbx 3 19 20 135 0 1 empty empty MIDI 0 -8 0 12 #00ff04
#000000 #000000 57 256;
#X obj 313 168 mtof;
#X floatatom 313 202 5 0 0 0 - - - 0;
#X msg 313 235 1000 \$1;
#X obj 313 259 /;
#X floatatom 313 293 5 0 0 0 - - - 0;
#X text 9 11 Karplus Strong ––––––;
#X obj 158 259 line~;
#X obj 566 117 notein;
#X obj 566 141 poly 1 1;
#X obj 566 165 pack f f f;
#X obj 566 199 route 1;
#X obj 566 223 unpack f f;
#X obj 676 315 sel 0;
#X obj 313 355 *~ 0.99;
#X obj 313 379 lop~ 6000;
#X text 566 91 Incorporacion MIDI;
#X obj 566 367 s \$0-midi;
#X obj 708 344 s \$0-noteOn;
#X obj 283 105 r \$0-midi;
#N canvas 2 25 1920 1036 dac 0;
#X obj 73 279 hip~ 3;
#X obj 73 303 clip~ -1 1;
#X obj 73 327 /~ 2;
#X obj 73 361 dac~ 1 2;
#X obj 73 255 /~ 4;
#X obj 85 202 inlet~;
#X obj 286 265 block~ 64;
#X connect 0 0 1 0;
#X connect 1 0 2 0;
#X connect 2 0 3 0;
#X connect 2 0 3 1;
#X connect 4 0 0 0;
#X connect 5 0 4 0;
#X restore 195 761 pd dac;
#X obj 618 574 block~ 8;
#X obj 643 255 t f f;
#X obj 643 278 > 0;
#X obj 573 310 list prepend;
#X obj 573 333 route 1;
#X obj 134 314 delwrite~ \$0-comb 100;
#X msg 155 378 1000 \$1;
#X obj 155 401 /;
#X obj 155 424 delread4~ \$0-comb;
#X obj 54 446 -~;
#X obj 155 355 * 1.5;
#X msg 158 232 1 \, 0 \$1;
#X obj 314 408 hip~ 0;
#X obj 48 238 noise~;
#X obj 44 290 *~;
#X obj 54 470 lop~ 1000;
#X connect 0 0 1 0;
#X connect 1 0 2 0;
#X connect 2 0 3 0;
#X connect 5 0 3 0;
#X connect 5 0 30 0;
#X connect 7 0 24 0;
#X connect 8 0 9 0;
#X connect 10 0 11 0;
#X connect 11 0 12 0;
#X connect 12 0 13 0;
#X connect 12 0 41 0;
#X connect 13 0 14 0;
#X connect 14 0 15 0;
#X connect 14 0 42 0;
#X connect 15 0 7 0;
#X connect 17 0 45 1;
#X connect 18 0 19 0;
#X connect 18 1 19 1;
#X connect 19 0 20 0;
#X connect 19 1 20 1;
#X connect 19 2 20 2;
#X connect 20 0 21 0;
#X connect 21 0 22 0;
#X connect 22 0 34 0;
#X connect 22 1 32 0;
#X connect 23 1 28 0;
#X connect 24 0 25 0;
#X connect 25 0 43 0;
#X connect 29 0 10 0;
#X connect 32 0 33 0;
#X connect 32 1 23 0;
#X connect 33 0 34 1;
#X connect 34 0 35 0;
#X connect 35 0 27 0;
#X connect 37 0 38 0;
#X connect 38 0 39 0;
#X connect 39 0 40 1;
#X connect 40 0 46 0;
#X connect 41 0 37 0;
#X connect 42 0 17 0;
#X connect 43 0 8 1;
#X connect 44 0 45 0;
#X connect 45 0 36 0;
#X connect 45 0 40 0;
#X connect 46 0 8 0;
