#N canvas 0 22 1920 1036 12;
#X obj 23 370 hip~ 3;
#X obj 23 394 clip~ -1 1;
#X obj 23 418 /~ 2;
#X obj 23 442 dac~ 1 2;
#X obj 159 250 loadbang;
#X obj 159 273 tgl 18 0 empty empty empty 17 7 0 10 #fcfcfc #000000
#000000 0 1;
#X obj 159 296 metro 100;
#X obj 159 320 tabwrite~ \$0-scope;
#X obj 23 272 catch~ \$0-output;
#X obj 23 301 *~ 1;
#N canvas 0 22 450 278 (subpatch) 0;
#X array \$0-scope 441 float 0;
#X coords 0 1 440 -1 200 140 1;
#X restore 309 250 graph;
#X obj 23 346 /~ 4;
#X msg 29 159 0 2 4 5 7 9 11;
#X obj 29 183 array set \$0-scale;
#X obj 29 107 array define -k \$0-scale 7;
#A 0 0 2 4 5 7 9 11;
#X text 29 87 Crea array de 7 pasos y guarda sus contenidos (-k);
#X text 29 139 Escala de Do mayor en intervalos tomando Do como referencia.
;
#X obj 680 43 nbx 3 19 30 300 0 1 empty empty BPM 0 -8 0 12 #00ff04
#000000 #000000 60 256;
#X msg 680 67 60000 \$1;
#X obj 680 91 /;
#X obj 680 115 / 4;
#X obj 638 133 tgl 19 0 empty empty empty 17 7 0 10 #00ff04 #000000
#000000 0 1;
#X obj 638 167 metro;
#X floatatom 680 139 5 0 0 0 - - - 0;
#X obj 638 191 bng 19 250 50 0 empty empty empty 17 7 0 10 #faff00
#000000 #000000;
#X obj 638 215 i;
#X obj 678 215 + 1;
#X obj 638 263 t b f;
#X obj 638 345 random 21;
#X obj 638 397 t f f;
#X obj 638 431 % 7;
#X obj 638 455 tabread \$0-scale;
#X obj 750 499 +;
#X obj 768 431 div 7;
#X obj 768 455 * 12;
#X floatatom 638 369 5 0 0 0 - - - 0;
#X floatatom 750 523 5 0 0 0 - - - 0;
#X text 415 455 Lee los intervalos de escala ->;
#X text 816 437 <- Agrega una octava cada 7 valores;
#X obj 750 546 + 48;
#X text 788 547 <- Do mayor;
#X text 711 345 <- Rango de 3 Octavas;
#X obj 750 570 makenote 127 250;
#X obj 750 594 poly 6 1;
#X obj 750 618 pack f f f;
#X obj 750 642 clone -s 1 fm-synth~ 6 \$0;
#X obj 750 690 throw~ \$0-output;
#X obj 750 666 /~ 3;
#X obj 670 292 sel 0;
#X msg 670 316 seed 51678;
#X obj 638 239 % 8;
#X text 756 311 <- Reinicia la semilla;
#X text 9 10 Cuantizacion ––––––;
#X text 19 28 Un método para generar melodías generativas es cuantizar
los números aleatorios a una escala. En este ejemplo lo hacemos en
una escala mayor.;
#X obj 922 589 loadbang;
#X msg 922 613 all 1;
#X connect 0 0 1 0;
#X connect 1 0 2 0;
#X connect 2 0 3 0;
#X connect 2 0 3 1;
#X connect 4 0 5 0;
#X connect 5 0 6 0;
#X connect 6 0 7 0;
#X connect 8 0 9 0;
#X connect 9 0 7 0;
#X connect 9 0 11 0;
#X connect 11 0 0 0;
#X connect 12 0 13 0;
#X connect 17 0 18 0;
#X connect 18 0 19 0;
#X connect 19 0 20 0;
#X connect 20 0 23 0;
#X connect 21 0 22 0;
#X connect 22 0 24 0;
#X connect 23 0 22 1;
#X connect 24 0 25 0;
#X connect 25 0 26 0;
#X connect 25 0 50 0;
#X connect 26 0 25 1;
#X connect 27 0 28 0;
#X connect 27 1 48 0;
#X connect 28 0 35 0;
#X connect 29 0 30 0;
#X connect 29 1 33 0;
#X connect 30 0 31 0;
#X connect 31 0 32 0;
#X connect 32 0 36 0;
#X connect 33 0 34 0;
#X connect 34 0 32 1;
#X connect 35 0 29 0;
#X connect 36 0 39 0;
#X connect 39 0 42 0;
#X connect 42 0 43 0;
#X connect 42 1 43 1;
#X connect 43 0 44 0;
#X connect 43 1 44 1;
#X connect 43 2 44 2;
#X connect 44 0 45 0;
#X connect 45 0 47 0;
#X connect 47 0 46 0;
#X connect 48 0 49 0;
#X connect 49 0 28 0;
#X connect 50 0 27 0;
#X connect 54 0 55 0;
#X connect 55 0 45 1;
