#N canvas 0 22 1920 1036 12;
#X obj 23 370 hip~ 3;
#X obj 23 394 clip~ -1 1;
#X obj 23 418 /~ 2;
#X obj 23 442 dac~ 1 2;
#X obj 159 250 loadbang;
#X obj 159 273 tgl 18 0 empty empty empty 17 7 0 10 #fcfcfc #000000
#000000 0 1;
#X obj 159 296 metro 100;
#X obj 159 320 tabwrite~ \$0-scope;
#X obj 23 272 catch~ \$0-output;
#X obj 23 301 *~ 1;
#N canvas 0 22 450 278 (subpatch) 0;
#X array \$0-scope 441 float 0;
#X coords 0 1 440 -1 200 140 1;
#X restore 309 250 graph;
#X obj 23 346 /~ 4;
#X msg 29 159 0 2 4 5 7 9 11;
#X obj 29 183 array set \$0-scale;
#X obj 29 107 array define -k \$0-scale 7;
#A 0 0 2 4 5 7 9 11;
#X text 29 87 Crea array de 7 pasos y guarda sus contenidos (-k);
#X text 29 139 Escala de Do mayor en intervalos tomando Do como referencia.
;
#X obj 680 43 nbx 3 19 30 300 0 1 empty empty BPM 0 -8 0 12 #00ff04
#000000 #000000 80 256;
#X msg 680 67 60000 \$1;
#X obj 680 91 /;
#X obj 680 115 / 4;
#X obj 638 133 tgl 19 0 empty empty empty 17 7 0 10 #00ff04 #000000
#000000 0 1;
#X obj 638 167 metro;
#X floatatom 680 139 5 0 0 0 - - - 0;
#X obj 638 191 bng 19 250 50 0 empty empty empty 17 7 0 10 #faff00
#000000 #000000;
#X obj 638 215 i;
#X obj 678 215 + 1;
#X obj 673 507 t f f;
#X obj 673 541 % 7;
#X obj 673 565 tabread \$0-scale;
#X obj 785 609 +;
#X obj 803 541 div 7;
#X obj 803 565 * 12;
#X obj 785 633 + 48;
#X obj 641 712 makenote 127 250;
#X obj 641 736 poly 6 1;
#X obj 641 760 pack f f f;
#X obj 641 784 clone -s 1 fm-synth~ 6 \$0;
#X obj 641 832 throw~ \$0-output;
#X obj 641 808 /~ 3;
#X obj 673 454 % 8;
#X obj 813 731 loadbang;
#X msg 813 755 all 1;
#X obj 638 239 s \$0-clock;
#X obj 641 315 r \$0-clock;
#X obj 231 472 bng 15 250 50 0 empty empty empty 17 7 0 10 #fcfcfc
#000000 #000000;
#X obj 231 492 t b b;
#X msg 231 516 8;
#X obj 231 540 until;
#X obj 231 564 i;
#X obj 271 564 + 1;
#X msg 271 516 0;
#X obj 231 588 t b f;
#X obj 201 632 random 21;
#X obj 201 656 tabwrite \$0-secuencia;
#X obj 201 680 array define -k \$0-secuencia 8;
#A 0 11 20 1 20 17 16 12 11;
#X obj 673 478 tabread \$0-secuencia;
#X obj 641 403 change -1;
#X obj 252 733 bng 15 250 50 0 empty empty empty 17 7 0 10 #fcfcfc
#000000 #000000;
#X obj 252 753 t b b;
#X msg 252 777 8;
#X obj 252 801 until;
#X obj 252 825 i;
#X obj 292 825 + 1;
#X msg 292 777 0;
#X obj 252 849 t b f;
#X obj 222 971 array define -k \$0-gate 8;
#A 0 1 1 1 1 1 1 1 1;
#X obj 222 893 random 100;
#X obj 222 947 tabwrite \$0-gate;
#X obj 641 683 f;
#X obj 641 427 t f f;
#X obj 641 597 % 8;
#X obj 641 621 tabread \$0-gate;
#X obj 641 645 sel 1;
#X obj 1043 507 t f f;
#X obj 1043 541 % 7;
#X obj 1043 565 tabread \$0-scale;
#X obj 1155 609 +;
#X obj 1173 541 div 7;
#X obj 1173 565 * 12;
#X obj 1011 736 poly 6 1;
#X obj 1011 760 pack f f f;
#X obj 1011 784 clone -s 1 fm-synth~ 6 \$0;
#X obj 1011 832 throw~ \$0-output;
#X obj 1011 808 /~ 3;
#X obj 1043 454 % 8;
#X obj 1183 731 loadbang;
#X msg 1183 755 all 1;
#X obj 1043 478 tabread \$0-secuencia;
#X obj 1011 403 change -1;
#X obj 1011 683 f;
#X obj 1011 427 t f f;
#X obj 1011 597 % 8;
#X obj 1011 621 tabread \$0-gate;
#X obj 1011 645 sel 1;
#X obj 1155 633 + 36;
#X obj 1011 379 div 4;
#X obj 1011 712 makenote 127 1000;
#X obj 1413 507 t f f;
#X obj 1413 541 % 7;
#X obj 1413 565 tabread \$0-scale;
#X obj 1525 609 +;
#X obj 1543 541 div 7;
#X obj 1543 565 * 12;
#X obj 1381 736 poly 6 1;
#X obj 1381 760 pack f f f;
#X obj 1381 784 clone -s 1 fm-synth~ 6 \$0;
#X obj 1381 832 throw~ \$0-output;
#X obj 1381 808 /~ 3;
#X obj 1413 406 % 8;
#X obj 1553 731 loadbang;
#X msg 1553 755 all 1;
#X obj 1413 430 tabread \$0-secuencia;
#X obj 1381 355 change -1;
#X obj 1381 683 f;
#X obj 1381 379 t f f;
#X obj 1381 597 % 8;
#X obj 1381 621 tabread \$0-gate;
#X obj 1381 645 sel 1;
#X obj 1381 331 div 3;
#X msg 1413 454 21 \$1;
#X obj 1413 478 -;
#X obj 1381 712 makenote 127 750;
#X obj 1525 633 + 60;
#X obj 641 379 div 2;
#X obj 1678 480 t f f;
#X obj 1678 514 % 7;
#X obj 1678 538 tabread \$0-scale;
#X obj 1790 582 +;
#X obj 1808 514 div 7;
#X obj 1808 538 * 12;
#X obj 1646 709 poly 6 1;
#X obj 1646 733 pack f f f;
#X obj 1646 757 clone -s 1 fm-synth~ 6 \$0;
#X obj 1646 805 throw~ \$0-output;
#X obj 1646 781 /~ 3;
#X obj 1678 383 % 8;
#X obj 1818 704 loadbang;
#X msg 1818 728 all 1;
#X obj 1678 407 tabread \$0-secuencia;
#X obj 1646 332 change -1;
#X obj 1646 656 f;
#X obj 1646 356 t f f;
#X obj 1646 570 % 8;
#X obj 1646 594 tabread \$0-gate;
#X obj 1646 618 sel 1;
#X obj 1646 685 makenote 127 125;
#X obj 1678 455 + 7;
#X obj 1678 431 - 3;
#X obj 1790 606 + 60;
#X obj 222 917 < 100;
#X text 9 10 Fuga ––––––;
#X text 274 465 Genera una secuencia aleatoria de 8 pasos;
#X text 1461 469 <- invierte la secuencia;
#X text 1191 634 <- Octava;
#X text 824 635 <- Octava;
#X text 1560 636 <- Octava;
#X text 1831 606 <- Octava;
#X text 1711 444 <- transposicion en la escala;
#X text 690 382 <- division;
#X text 1080 379 <- division;
#X text 1432 330 <- division;
#X text 1719 312 <- division;
#X text 19 29 Es facil crear un tipo de fuga algoritmica usando divisores
de reloj y cuantizadores para leer la secuencia desde un array e invertirla
o transponer la melodia dentro de la misma escala.;
#X obj 732 322 tgl 19 0 empty empty empty 17 7 0 10 #00ff04 #000000
#000000 0 1;
#X obj 641 339 spigot;
#X obj 1010 308 r \$0-clock;
#X obj 1101 315 tgl 19 0 empty empty empty 17 7 0 10 #00ff04 #000000
#000000 0 1;
#X obj 1010 332 spigot;
#X obj 1382 276 r \$0-clock;
#X obj 1473 283 tgl 19 0 empty empty empty 17 7 0 10 #00ff04 #000000
#000000 0 1;
#X obj 1382 300 spigot;
#X obj 1644 249 r \$0-clock;
#X obj 1735 256 tgl 19 0 empty empty empty 17 7 0 10 #00ff04 #000000
#000000 0 1;
#X obj 1644 273 spigot;
#X floatatom 1732 466 5 0 0 0 - - - 0;
#X obj 1646 308 div 8;
#X connect 0 0 1 0;
#X connect 1 0 2 0;
#X connect 2 0 3 0;
#X connect 2 0 3 1;
#X connect 4 0 5 0;
#X connect 5 0 6 0;
#X connect 6 0 7 0;
#X connect 8 0 9 0;
#X connect 9 0 7 0;
#X connect 9 0 11 0;
#X connect 11 0 0 0;
#X connect 12 0 13 0;
#X connect 17 0 18 0;
#X connect 18 0 19 0;
#X connect 19 0 20 0;
#X connect 20 0 23 0;
#X connect 21 0 22 0;
#X connect 22 0 24 0;
#X connect 23 0 22 1;
#X connect 24 0 25 0;
#X connect 25 0 26 0;
#X connect 25 0 43 0;
#X connect 26 0 25 1;
#X connect 27 0 28 0;
#X connect 27 1 31 0;
#X connect 28 0 29 0;
#X connect 29 0 30 0;
#X connect 30 0 33 0;
#X connect 31 0 32 0;
#X connect 32 0 30 1;
#X connect 33 0 69 1;
#X connect 34 0 35 0;
#X connect 34 1 35 1;
#X connect 35 0 36 0;
#X connect 35 1 36 1;
#X connect 35 2 36 2;
#X connect 36 0 37 0;
#X connect 37 0 39 0;
#X connect 39 0 38 0;
#X connect 40 0 56 0;
#X connect 41 0 42 0;
#X connect 42 0 37 1;
#X connect 44 0 165 0;
#X connect 45 0 46 0;
#X connect 46 0 47 0;
#X connect 46 1 51 0;
#X connect 47 0 48 0;
#X connect 48 0 49 0;
#X connect 49 0 50 0;
#X connect 49 0 52 0;
#X connect 50 0 49 1;
#X connect 51 0 49 1;
#X connect 52 0 53 0;
#X connect 52 1 54 1;
#X connect 53 0 54 0;
#X connect 56 0 27 0;
#X connect 57 0 70 0;
#X connect 58 0 59 0;
#X connect 59 0 60 0;
#X connect 59 1 64 0;
#X connect 60 0 61 0;
#X connect 61 0 62 0;
#X connect 62 0 63 0;
#X connect 62 0 65 0;
#X connect 63 0 62 1;
#X connect 64 0 62 1;
#X connect 65 0 67 0;
#X connect 65 1 68 1;
#X connect 67 0 150 0;
#X connect 69 0 34 0;
#X connect 70 0 71 0;
#X connect 70 1 40 0;
#X connect 71 0 72 0;
#X connect 72 0 73 0;
#X connect 73 0 69 0;
#X connect 74 0 75 0;
#X connect 74 1 78 0;
#X connect 75 0 76 0;
#X connect 76 0 77 0;
#X connect 77 0 95 0;
#X connect 78 0 79 0;
#X connect 79 0 77 1;
#X connect 80 0 81 0;
#X connect 80 1 81 1;
#X connect 80 2 81 2;
#X connect 81 0 82 0;
#X connect 82 0 84 0;
#X connect 84 0 83 0;
#X connect 85 0 88 0;
#X connect 86 0 87 0;
#X connect 87 0 82 1;
#X connect 88 0 74 0;
#X connect 89 0 91 0;
#X connect 90 0 97 0;
#X connect 91 0 92 0;
#X connect 91 1 85 0;
#X connect 92 0 93 0;
#X connect 93 0 94 0;
#X connect 94 0 90 0;
#X connect 95 0 90 1;
#X connect 96 0 89 0;
#X connect 97 0 80 0;
#X connect 97 1 80 1;
#X connect 98 0 99 0;
#X connect 98 1 102 0;
#X connect 99 0 100 0;
#X connect 100 0 101 0;
#X connect 101 0 123 0;
#X connect 102 0 103 0;
#X connect 103 0 101 1;
#X connect 104 0 105 0;
#X connect 104 1 105 1;
#X connect 104 2 105 2;
#X connect 105 0 106 0;
#X connect 106 0 108 0;
#X connect 108 0 107 0;
#X connect 109 0 112 0;
#X connect 110 0 111 0;
#X connect 111 0 106 1;
#X connect 112 0 120 0;
#X connect 113 0 115 0;
#X connect 114 0 122 0;
#X connect 115 0 116 0;
#X connect 115 1 109 0;
#X connect 116 0 117 0;
#X connect 117 0 118 0;
#X connect 118 0 114 0;
#X connect 119 0 113 0;
#X connect 120 0 121 0;
#X connect 121 0 98 0;
#X connect 122 0 104 0;
#X connect 122 1 104 1;
#X connect 123 0 114 1;
#X connect 124 0 57 0;
#X connect 125 0 126 0;
#X connect 125 1 129 0;
#X connect 126 0 127 0;
#X connect 127 0 128 0;
#X connect 128 0 149 0;
#X connect 129 0 130 0;
#X connect 130 0 128 1;
#X connect 131 0 132 0;
#X connect 131 1 132 1;
#X connect 131 2 132 2;
#X connect 132 0 133 0;
#X connect 133 0 135 0;
#X connect 135 0 134 0;
#X connect 136 0 139 0;
#X connect 137 0 138 0;
#X connect 138 0 133 1;
#X connect 139 0 148 0;
#X connect 140 0 142 0;
#X connect 141 0 146 0;
#X connect 142 0 143 0;
#X connect 142 1 136 0;
#X connect 143 0 144 0;
#X connect 144 0 145 0;
#X connect 145 0 141 0;
#X connect 146 0 131 0;
#X connect 146 1 131 1;
#X connect 147 0 125 0;
#X connect 147 0 175 0;
#X connect 148 0 147 0;
#X connect 149 0 141 1;
#X connect 150 0 68 0;
#X connect 164 0 165 1;
#X connect 165 0 124 0;
#X connect 166 0 168 0;
#X connect 167 0 168 1;
#X connect 168 0 96 0;
#X connect 169 0 171 0;
#X connect 170 0 171 1;
#X connect 171 0 119 0;
#X connect 172 0 174 0;
#X connect 173 0 174 1;
#X connect 174 0 176 0;
#X connect 176 0 140 0;
