#N canvas 0 22 1920 1036 12;
#X obj 23 370 hip~ 3;
#X obj 23 394 clip~ -1 1;
#X obj 23 418 /~ 2;
#X obj 23 442 dac~ 1 2;
#X obj 159 250 loadbang;
#X obj 159 273 tgl 18 0 empty empty empty 17 7 0 10 #fcfcfc #000000
#000000 0 1;
#X obj 159 296 metro 100;
#X obj 159 320 tabwrite~ \$0-scope;
#X obj 23 272 catch~ \$0-output;
#X obj 23 301 *~ 1;
#N canvas 0 22 450 278 (subpatch) 0;
#X array \$0-scope 441 float 0;
#X coords 0 1 440 -1 200 140 1;
#X restore 309 250 graph;
#X msg 29 159 0 2 4 5 7 9 11;
#X obj 29 183 array set \$0-scale;
#X obj 29 107 array define -k \$0-scale 7;
#A 0 0 2 4 5 7 9 11;
#X text 29 87 Crea array de 7 pasos y guarda sus contenidos (-k);
#X text 29 139 Escala de Do mayor en intervalos tomando Do como referencia.
;
#X obj 600 53 nbx 3 19 30 300 0 1 empty empty BPM 0 -8 0 12 #00ff04
#000000 #000000 120 256;
#X msg 600 77 60000 \$1;
#X obj 600 101 /;
#X obj 600 125 / 4;
#X obj 558 143 tgl 19 0 empty empty empty 17 7 0 10 #00ff04 #000000
#000000 0 1;
#X obj 558 177 metro;
#X floatatom 600 149 5 0 0 0 - - - 0;
#X obj 558 201 bng 19 250 50 0 empty empty empty 17 7 0 10 #faff00
#000000 #000000;
#X obj 558 225 i;
#X obj 598 225 + 1;
#X obj 682 367 change -1;
#X obj 682 391 t b f;
#X obj 744 423 % 4;
#X obj 744 447 sel 0;
#X obj 682 485 bng 19 250 50 0 empty empty empty 17 7 0 10 #fcfcfc
#000000 #000000;
#X obj 682 509 t b b;
#X obj 682 557 until;
#X obj 728 531 s \$0-new;
#X obj 682 581 t b b;
#X obj 682 697 i;
#X obj 717 696 +;
#X obj 700 633 r \$0-new;
#X msg 700 657 0;
#X obj 700 726 r \$0-new;
#X obj 682 845 +;
#X obj 970 488 poly 6 1;
#X obj 970 512 pack f f f;
#X obj 970 584 throw~ \$0-output;
#X obj 858 274 t f f;
#X obj 858 308 % 7;
#X obj 858 332 tabread \$0-scale;
#X obj 970 376 +;
#X obj 988 308 div 7;
#X obj 988 332 * 12;
#X obj 744 472 bng 19 250 50 0 empty empty empty 17 7 0 10 #fcfcfc
#000000 #000000;
#X obj 744 496 s \$0-reset;
#X obj 797 565 r \$0-reset;
#X obj 740 755 r \$0-reset;
#X msg 682 533 4;
#X obj 700 816 random 14;
#X obj 970 453 makenote 127 2000;
#X obj 682 343 div 16;
#X msg 740 779 seed 17686;
#X obj 970 536 clone -s 1 moog-synth~ 6;
#X obj 780 620 random 3;
#X obj 970 424 + 40;
#X obj 779 644 + 3;
#X msg 797 589 seed 11636;
#X text 9 10 Generacion de acordes ––––––;
#X text 19 28 Usando el objeto until con contadores y numeros aleatorios
podemos generar una serie de numeros con intervalos para crear acordes.
;
#X obj 558 249 t f f;
#X obj 682 869 list prepend;
#X obj 793 871 t l;
#X obj 756 840 r \$0-new;
#X obj 560 901 list;
#X obj 560 522 change -1;
#X obj 560 656 random 100;
#X obj 560 704 sel 1;
#X obj 560 728 bng 19 250 50 0 empty empty empty 17 7 0 10 #fcfcfc
#000000 #000000;
#X obj 560 925 s \$0-notes;
#X obj 879 86 r \$0-notes;
#X obj 845 148 until;
#X text 944 117 First store list \, then start the loop;
#X text 939 167 "until" bangs its output until told to stop by a "bang"
to its right inlet., f 38;
#X text 949 231 Store the remaining list.;
#X obj 858 231 list store;
#X obj 879 115 t b b l;
#X obj 845 173 f;
#X obj 883 174 + 1;
#X msg 902 148 0, f 2;
#X msg 845 204 get \$1 1;
#X obj 560 546 t b f;
#X obj 609 573 % 8;
#X obj 609 597 sel 0;
#X text 306 901 Almacena las notas en una lista ->;
#X text 823 870 <- Agrega los numeros a una lista;
#X text 817 839 <- Reinicia la lista;
#X text 651 107 Lanza los numeros uno por uno ->;
#N canvas 0 22 1920 1036 ritmos 0;
#X obj 739 610 bng 19 250 50 0 empty empty empty 17 7 0 10 #faff00
#000000 #000000;
#X msg 739 634 open ./BD.wav \, 1;
#X obj 739 658 readsf~;
#X obj 674 207 i;
#X obj 714 207 + 1;
#X obj 674 306 change -1;
#X obj 749 230 nbx 3 19 1 100 0 1 empty empty DIV 0 -8 0 12 #00ff04
#000000 #000000 1 256;
#X obj 674 259 div;
#X floatatom 674 231 5 0 0 0 - - - 0;
#X floatatom 674 283 5 0 0 0 - - - 0;
#X obj 739 682 throw~ \$0-output;
#X obj 674 440 +;
#X obj 674 524 % 16;
#X obj 739 582 sel 1;
#X obj 725 417 nbx 3 19 0 32 0 1 empty empty HIT 0 -8 0 12 #00ff04
#000000 #000000 4 256;
#X obj 725 441 t f f;
#X obj 739 558 < 4;
#X obj 674 480 * 4;
#X obj 711 499 nbx 3 19 1 32 0 1 empty empty LEN 0 -8 0 12 #00ff04
#000000 #000000 16 256;
#X obj 692 378 nbx 3 19 0 32 0 1 empty empty OFF 0 -8 0 12 #00ff04
#000000 #000000 0 256;
#X obj 949 610 bng 19 250 50 0 empty empty empty 17 7 0 10 #faff00
#000000 #000000;
#X obj 949 658 readsf~;
#X obj 949 682 throw~ \$0-output;
#X obj 884 440 +;
#X obj 884 524 % 16;
#X obj 949 582 sel 1;
#X obj 935 417 nbx 3 19 0 32 0 1 empty empty HIT 0 -8 0 12 #00ff04
#000000 #000000 2 256;
#X obj 935 441 t f f;
#X obj 949 558 < 4;
#X obj 884 480 * 4;
#X obj 921 499 nbx 3 19 1 32 0 1 empty empty LEN 0 -8 0 12 #00ff04
#000000 #000000 14 256;
#X obj 902 378 nbx 3 19 0 32 0 1 empty empty OFF 0 -8 0 12 #00ff04
#000000 #000000 0 256;
#X msg 949 634 open ./SD.wav \, 1;
#X obj 1159 610 bng 19 250 50 0 empty empty empty 17 7 0 10 #faff00
#000000 #000000;
#X obj 1159 658 readsf~;
#X obj 1159 682 throw~ \$0-output;
#X msg 1159 634 open ./HH.wav \, 1;
#X obj 674 141 r \$0-clock;
#X obj 1098 389 random 100;
#X obj 1098 437 sel 1;
#X obj 674 330 t f f b;
#X obj 1100 364 bang;
#X obj 1098 413 < 20;
#X connect 0 0 1 0;
#X connect 1 0 2 0;
#X connect 2 0 10 0;
#X connect 3 0 4 0;
#X connect 3 0 8 0;
#X connect 4 0 3 1;
#X connect 5 0 40 0;
#X connect 6 0 7 1;
#X connect 7 0 9 0;
#X connect 8 0 7 0;
#X connect 9 0 5 0;
#X connect 11 0 17 0;
#X connect 12 0 16 0;
#X connect 13 0 0 0;
#X connect 14 0 15 0;
#X connect 15 0 17 1;
#X connect 15 1 16 1;
#X connect 16 0 13 0;
#X connect 17 0 12 0;
#X connect 18 0 12 1;
#X connect 19 0 11 1;
#X connect 20 0 32 0;
#X connect 21 0 22 0;
#X connect 23 0 29 0;
#X connect 24 0 28 0;
#X connect 25 0 20 0;
#X connect 26 0 27 0;
#X connect 27 0 29 1;
#X connect 27 1 28 1;
#X connect 28 0 25 0;
#X connect 29 0 24 0;
#X connect 30 0 24 1;
#X connect 31 0 23 1;
#X connect 32 0 21 0;
#X connect 33 0 36 0;
#X connect 34 0 35 0;
#X connect 36 0 34 0;
#X connect 37 0 3 0;
#X connect 37 0 41 0;
#X connect 38 0 42 0;
#X connect 39 0 33 0;
#X connect 40 0 11 0;
#X connect 40 1 23 0;
#X connect 41 0 38 0;
#X connect 42 0 39 0;
#X restore 1250 524 pd ritmos;
#X obj 647 231 s \$0-clock;
#N canvas 0 22 1920 1036 melodia 0;
#X obj 562 151 i;
#X obj 602 151 + 1;
#X obj 558 273 t b f;
#X obj 809 364 t f f;
#X obj 809 398 % 7;
#X obj 809 422 tabread \$0-scale;
#X obj 921 466 +;
#X obj 939 398 div 7;
#X obj 939 422 * 12;
#X floatatom 921 490 5 0 0 0 - - - 0;
#X obj 951 585 pack f f f;
#X obj 1002 976 throw~ \$0-output;
#X obj 610 302 sel 0;
#X obj 558 319 t b b;
#X obj 809 315 f;
#X msg 1300 579 all \$1;
#X obj 1328 521 + 1;
#X obj 1300 550 f;
#X obj 1080 520 /;
#X obj 610 326 bng 19 250 50 0 empty empty empty 17 7 0 10 #00faff
#000000 #000000;
#X obj 558 471 random 100;
#X obj 558 519 sel 1;
#X obj 558 543 bng 19 250 50 0 empty empty empty 17 7 0 10 #faff00
#000000 #000000;
#X obj 558 567 s \$0-trigger;
#X obj 809 175 r \$0-trigger;
#X obj 578 408 r \$0-reset;
#X obj 1080 448 random 16;
#X obj 1300 386 r \$0-trigger;
#X text 1300 362 Cambia ratio del FM;
#X text 1077 342 Secuencia Duracion de la nota;
#X text 812 149 Secuencia Notas;
#X text 636 492 <- Probabilidad;
#X text 639 324 <- Reiniciar semilla;
#X msg 578 432 seed 54;
#X obj 551 107 r \$0-clock;
#X obj 610 350 s \$0-reset-1;
#X obj 1110 395 r \$0-reset-1;
#X obj 1358 444 r \$0-reset-1;
#X obj 857 233 r \$0-reset-1;
#X obj 590 379 s \$0-clock-1;
#X obj 827 204 r \$0-clock-1;
#X obj 1080 366 r \$0-clock-1;
#X obj 1328 415 r \$0-clock-1;
#X obj 921 513 + 52;
#X obj 1080 831 +~;
#X obj 1073 866 delwrite~ \$0-stutter 1000;
#X msg 1363 719 250 \$1;
#X obj 1363 743 /;
#X obj 1346 829 delread4~ \$0-stutter;
#X obj 1349 875 *~;
#X obj 1606 709 random 100;
#X obj 1606 757 sel 1;
#X obj 1606 805 vline~;
#X obj 1552 618 r \$0-clock-1;
#X obj 1365 687 + 1;
#X obj 562 198 change -1;
#X msg 1606 780 1 1 \, 0 1 250;
#X obj 1014 683 sig~ 1;
#X obj 1014 707 -~;
#X obj 989 744 *~;
#X msg 1363 767 \$1 1;
#X obj 1363 791 line~;
#X obj 1117 741 *~ 0.99;
#X obj 949 625 clone -s 1 fm-synth~ 1 \$0;
#X obj 951 561 poly 1 1;
#X obj 1116 791 hip~ 20;
#X obj 1116 767 lop~ 6000;
#X obj 1349 899 expr~ tanh($v1);
#X obj 951 537 makenote 127 250;
#X msg 1080 496 1000 \$1;
#X obj 1080 472 + 1;
#X obj 562 175 div 1;
#X obj 558 496 < 80;
#X obj 1606 733 < 20;
#X obj 1365 663 random 8;
#X obj 1328 497 random 5;
#X obj 1003 932 /~ 2;
#X obj 827 286 random 21;
#X obj 863 712 +~ 1;
#X obj 863 736 /~ 2;
#X obj 810 787 sig~ 2;
#X obj 810 811 pow~;
#X obj 949 649 *~;
#X obj 863 760 *~ -1;
#X obj 863 688 osc~ 32;
#X obj 563 221 % 12;
#X msg 858 256 seed 5.16712e+06;
#X msg 1110 419 seed 514617;
#X msg 1358 468 seed 58542;
#X connect 0 0 1 0;
#X connect 0 0 71 0;
#X connect 1 0 0 1;
#X connect 2 0 13 0;
#X connect 2 1 12 0;
#X connect 3 0 4 0;
#X connect 3 1 7 0;
#X connect 4 0 5 0;
#X connect 5 0 6 0;
#X connect 6 0 9 0;
#X connect 7 0 8 0;
#X connect 8 0 6 1;
#X connect 9 0 43 0;
#X connect 10 0 63 0;
#X connect 12 0 19 0;
#X connect 13 0 20 0;
#X connect 13 1 39 0;
#X connect 14 0 3 0;
#X connect 15 0 63 1;
#X connect 16 0 17 1;
#X connect 17 0 15 0;
#X connect 18 0 68 2;
#X connect 19 0 35 0;
#X connect 20 0 72 0;
#X connect 21 0 22 0;
#X connect 22 0 23 0;
#X connect 24 0 14 0;
#X connect 25 0 33 0;
#X connect 26 0 70 0;
#X connect 27 0 17 0;
#X connect 33 0 20 0;
#X connect 34 0 0 0;
#X connect 36 0 87 0;
#X connect 37 0 88 0;
#X connect 38 0 86 0;
#X connect 40 0 77 0;
#X connect 41 0 26 0;
#X connect 42 0 75 0;
#X connect 43 0 68 0;
#X connect 44 0 45 0;
#X connect 46 0 47 0;
#X connect 47 0 60 0;
#X connect 48 0 49 0;
#X connect 49 0 67 0;
#X connect 50 0 73 0;
#X connect 51 0 56 0;
#X connect 51 0 74 0;
#X connect 52 0 49 1;
#X connect 52 0 58 1;
#X connect 53 0 50 0;
#X connect 54 0 46 0;
#X connect 55 0 85 0;
#X connect 56 0 52 0;
#X connect 57 0 58 0;
#X connect 58 0 59 1;
#X connect 59 0 44 0;
#X connect 59 0 76 0;
#X connect 60 0 61 0;
#X connect 61 0 48 0;
#X connect 62 0 66 0;
#X connect 63 0 82 0;
#X connect 64 0 10 0;
#X connect 64 1 10 1;
#X connect 64 2 10 2;
#X connect 65 0 44 1;
#X connect 66 0 65 0;
#X connect 67 0 62 0;
#X connect 67 0 76 0;
#X connect 68 0 64 0;
#X connect 68 1 64 1;
#X connect 69 0 18 0;
#X connect 70 0 69 0;
#X connect 71 0 55 0;
#X connect 72 0 21 0;
#X connect 73 0 51 0;
#X connect 74 0 54 0;
#X connect 75 0 16 0;
#X connect 76 0 11 0;
#X connect 77 0 14 1;
#X connect 78 0 79 0;
#X connect 79 0 83 0;
#X connect 80 0 81 0;
#X connect 81 0 82 1;
#X connect 82 0 59 0;
#X connect 83 0 81 1;
#X connect 84 0 78 0;
#X connect 85 0 2 0;
#X connect 86 0 77 0;
#X connect 87 0 26 0;
#X restore 1257 482 pd melodia;
#X obj 23 346 /~ 2;
#X obj 970 560 /~ 4;
#X obj 560 498 div 1;
#X msg 609 621 seed 164;
#X obj 560 680 < 50;
#X connect 0 0 1 0;
#X connect 1 0 2 0;
#X connect 2 0 3 0;
#X connect 2 0 3 1;
#X connect 4 0 5 0;
#X connect 5 0 6 0;
#X connect 6 0 7 0;
#X connect 8 0 9 0;
#X connect 9 0 7 0;
#X connect 9 0 97 0;
#X connect 11 0 12 0;
#X connect 16 0 17 0;
#X connect 17 0 18 0;
#X connect 18 0 19 0;
#X connect 19 0 22 0;
#X connect 20 0 21 0;
#X connect 21 0 23 0;
#X connect 22 0 21 1;
#X connect 23 0 24 0;
#X connect 23 0 95 0;
#X connect 24 0 25 0;
#X connect 24 0 66 0;
#X connect 25 0 24 1;
#X connect 26 0 27 0;
#X connect 27 0 30 0;
#X connect 27 1 28 0;
#X connect 28 0 29 0;
#X connect 29 0 50 0;
#X connect 30 0 31 0;
#X connect 31 0 54 0;
#X connect 31 1 33 0;
#X connect 32 0 34 0;
#X connect 34 0 35 0;
#X connect 34 1 60 0;
#X connect 35 0 36 0;
#X connect 35 0 40 0;
#X connect 36 0 35 1;
#X connect 37 0 38 0;
#X connect 38 0 35 1;
#X connect 39 0 55 0;
#X connect 40 0 67 0;
#X connect 41 0 42 0;
#X connect 41 1 42 1;
#X connect 41 2 42 2;
#X connect 42 0 59 0;
#X connect 44 0 45 0;
#X connect 44 1 48 0;
#X connect 45 0 46 0;
#X connect 46 0 47 0;
#X connect 47 0 61 0;
#X connect 48 0 49 0;
#X connect 49 0 47 1;
#X connect 50 0 51 0;
#X connect 52 0 63 0;
#X connect 53 0 58 0;
#X connect 54 0 32 0;
#X connect 55 0 40 1;
#X connect 56 0 41 0;
#X connect 56 1 41 1;
#X connect 57 0 26 0;
#X connect 58 0 55 0;
#X connect 59 0 98 0;
#X connect 60 0 62 0;
#X connect 61 0 56 0;
#X connect 62 0 36 1;
#X connect 63 0 60 0;
#X connect 66 0 99 0;
#X connect 66 1 57 0;
#X connect 67 0 68 0;
#X connect 67 0 70 1;
#X connect 68 0 67 1;
#X connect 69 0 67 1;
#X connect 70 0 75 0;
#X connect 71 0 87 0;
#X connect 72 0 101 0;
#X connect 73 0 74 0;
#X connect 74 0 70 0;
#X connect 76 0 82 0;
#X connect 77 0 83 0;
#X connect 81 0 44 0;
#X connect 81 1 77 1;
#X connect 82 0 77 0;
#X connect 82 1 85 0;
#X connect 82 2 81 1;
#X connect 83 0 84 0;
#X connect 83 0 86 0;
#X connect 84 0 83 1;
#X connect 85 0 83 1;
#X connect 86 0 81 0;
#X connect 87 0 72 0;
#X connect 87 1 88 0;
#X connect 88 0 89 0;
#X connect 89 0 100 0;
#X connect 97 0 0 0;
#X connect 98 0 43 0;
#X connect 99 0 71 0;
#X connect 100 0 72 0;
#X connect 101 0 73 0;
