#N canvas 824 79 532 722 12;
#X obj 59 32 inlet;
#X obj 59 56 unpack f f;
#X obj 59 203 mtof;
#X obj 59 227 phasor~;
#X obj 59 541 +~;
#X obj 59 565 -~ 0.25;
#X obj 59 589 cos~;
#X obj 109 365 -~ 0.25;
#X obj 109 389 cos~;
#X obj 109 517 *~;
#X obj 328 466 vline~;
#X obj 328 490 *~;
#X obj 209 613 *~;
#X obj 209 637 outlet~;
#X obj 276 85 sel 0;
#X obj 328 124 - 1;
#X obj 328 148 / 126;
#X msg 328 172 1 \$1;
#X obj 328 196 -;
#X obj 328 244 + 100;
#X obj 328 268 dbtorms;
#X obj 328 292 t f f;
#X obj 328 365 pack f f;
#X obj 381 341 sqrt;
#X obj 328 316 sqrt;
#X obj 172 236 inlet;
#X obj 109 317 *~;
#X obj 109 413 /~;
#X msg 276 383 0 250;
#X obj 328 220 * -12;
#X obj 160 498 +~ 0.1;
#X msg 328 432 \$1 1 \, \$2 250 1;
#X obj 109 493 /~ 3;
#X obj 109 437 lop~ 100;
#X obj 381 316 * 0.2;
#X connect 0 0 1 0;
#X connect 1 0 2 0;
#X connect 1 1 14 0;
#X connect 2 0 3 0;
#X connect 3 0 4 0;
#X connect 3 0 26 0;
#X connect 4 0 5 0;
#X connect 5 0 6 0;
#X connect 6 0 12 0;
#X connect 7 0 8 0;
#X connect 8 0 27 0;
#X connect 9 0 4 1;
#X connect 10 0 11 0;
#X connect 10 0 11 1;
#X connect 11 0 30 0;
#X connect 11 0 12 1;
#X connect 12 0 13 0;
#X connect 14 0 28 0;
#X connect 14 1 15 0;
#X connect 15 0 16 0;
#X connect 16 0 17 0;
#X connect 17 0 18 0;
#X connect 18 0 29 0;
#X connect 19 0 20 0;
#X connect 20 0 21 0;
#X connect 21 0 24 0;
#X connect 21 1 34 0;
#X connect 22 0 31 0;
#X connect 23 0 22 1;
#X connect 24 0 22 0;
#X connect 25 0 26 1;
#X connect 25 0 27 1;
#X connect 26 0 7 0;
#X connect 27 0 33 0;
#X connect 28 0 10 0;
#X connect 29 0 19 0;
#X connect 30 0 9 1;
#X connect 31 0 10 0;
#X connect 32 0 9 0;
#X connect 33 0 32 0;
#X connect 34 0 23 0;
