#N canvas 824 79 532 722 12;
#X obj 59 32 inlet;
#X obj 59 56 unpack f f;
#X obj 59 203 mtof;
#X obj 1 258 phasor~;
#X obj 328 466 vline~;
#X obj 328 490 *~;
#X obj 209 613 *~;
#X obj 209 637 outlet~;
#X obj 276 85 sel 0;
#X obj 328 124 - 1;
#X obj 328 148 / 126;
#X msg 328 172 1 \$1;
#X obj 328 196 -;
#X obj 328 244 + 100;
#X obj 328 268 dbtorms;
#X obj 328 292 t f f;
#X obj 328 365 pack f f;
#X obj 381 341 sqrt;
#X obj 328 316 sqrt;
#X msg 276 383 0 250;
#X obj 328 220 * -12;
#X obj 1 282 *~ 2;
#X obj 1 306 -~ 1;
#X obj 131 460 bob~;
#X obj 209 242 +~ 36;
#X obj 209 266 mtof~;
#X obj 209 290 clip~ 20 15000;
#X obj 66 272 phasor~;
#X obj 66 296 *~ 2;
#X obj 66 320 -~ 1;
#X obj 66 344 /~ 2;
#X obj 59 227 * 1.01;
#X obj 381 317 * 0.25;
#X msg 328 432 1 1 \, \$2 2000 1;
#X obj 209 218 *~ 80;
#X obj 178 435 sig~ 0.5;
#X obj 137 276 phasor~;
#X obj 137 300 *~ 2;
#X obj 137 324 -~ 1;
#X obj 137 347 /~ 3;
#X obj 130 231 * 1.33;
#X connect 0 0 1 0;
#X connect 1 0 2 0;
#X connect 1 1 8 0;
#X connect 2 0 3 0;
#X connect 2 0 31 0;
#X connect 2 0 40 0;
#X connect 3 0 21 0;
#X connect 4 0 5 0;
#X connect 4 0 5 1;
#X connect 5 0 6 1;
#X connect 5 0 34 0;
#X connect 6 0 7 0;
#X connect 8 0 19 0;
#X connect 8 1 9 0;
#X connect 9 0 10 0;
#X connect 10 0 11 0;
#X connect 11 0 12 0;
#X connect 12 0 20 0;
#X connect 13 0 14 0;
#X connect 14 0 15 0;
#X connect 15 0 18 0;
#X connect 15 1 32 0;
#X connect 16 0 33 0;
#X connect 17 0 16 1;
#X connect 18 0 16 0;
#X connect 19 0 4 0;
#X connect 20 0 13 0;
#X connect 21 0 22 0;
#X connect 22 0 23 0;
#X connect 23 0 6 0;
#X connect 24 0 25 0;
#X connect 25 0 26 0;
#X connect 26 0 23 1;
#X connect 27 0 28 0;
#X connect 28 0 29 0;
#X connect 29 0 30 0;
#X connect 30 0 23 0;
#X connect 31 0 27 0;
#X connect 32 0 17 0;
#X connect 33 0 4 0;
#X connect 34 0 24 0;
#X connect 35 0 23 2;
#X connect 36 0 37 0;
#X connect 37 0 38 0;
#X connect 38 0 39 0;
#X connect 39 0 23 0;
#X connect 40 0 36 0;
